G04 #@! TF.GenerationSoftware,KiCad,Pcbnew,(5.1.2)-2*
G04 #@! TF.CreationDate,2019-10-15T13:17:40+02:00*
G04 #@! TF.ProjectId,USB_UART_Iolated,5553425f-5541-4525-945f-496f6c617465,rev?*
G04 #@! TF.SameCoordinates,Original*
G04 #@! TF.FileFunction,Legend,Bot*
G04 #@! TF.FilePolarity,Positive*
%FSLAX46Y46*%
G04 Gerber Fmt 4.6, Leading zero omitted, Abs format (unit mm)*
G04 Created by KiCad (PCBNEW (5.1.2)-2) date 2019-10-15 13:17:40*
%MOMM*%
%LPD*%
G04 APERTURE LIST*
%ADD10C,0.150000*%
%ADD11C,0.177800*%
%ADD12C,0.120000*%
G04 APERTURE END LIST*
D10*
X148227142Y-126074714D02*
X148227142Y-125312714D01*
X148045714Y-125312714D01*
X147936857Y-125349000D01*
X147864285Y-125421571D01*
X147828000Y-125494142D01*
X147791714Y-125639285D01*
X147791714Y-125748142D01*
X147828000Y-125893285D01*
X147864285Y-125965857D01*
X147936857Y-126038428D01*
X148045714Y-126074714D01*
X148227142Y-126074714D01*
X147174857Y-126038428D02*
X147247428Y-126074714D01*
X147392571Y-126074714D01*
X147465142Y-126038428D01*
X147501428Y-125965857D01*
X147501428Y-125675571D01*
X147465142Y-125603000D01*
X147392571Y-125566714D01*
X147247428Y-125566714D01*
X147174857Y-125603000D01*
X147138571Y-125675571D01*
X147138571Y-125748142D01*
X147501428Y-125820714D01*
X146848285Y-126038428D02*
X146775714Y-126074714D01*
X146630571Y-126074714D01*
X146558000Y-126038428D01*
X146521714Y-125965857D01*
X146521714Y-125929571D01*
X146558000Y-125857000D01*
X146630571Y-125820714D01*
X146739428Y-125820714D01*
X146812000Y-125784428D01*
X146848285Y-125711857D01*
X146848285Y-125675571D01*
X146812000Y-125603000D01*
X146739428Y-125566714D01*
X146630571Y-125566714D01*
X146558000Y-125603000D01*
X146195142Y-126074714D02*
X146195142Y-125566714D01*
X146195142Y-125312714D02*
X146231428Y-125349000D01*
X146195142Y-125385285D01*
X146158857Y-125349000D01*
X146195142Y-125312714D01*
X146195142Y-125385285D01*
X145505714Y-125566714D02*
X145505714Y-126183571D01*
X145542000Y-126256142D01*
X145578285Y-126292428D01*
X145650857Y-126328714D01*
X145759714Y-126328714D01*
X145832285Y-126292428D01*
X145505714Y-126038428D02*
X145578285Y-126074714D01*
X145723428Y-126074714D01*
X145796000Y-126038428D01*
X145832285Y-126002142D01*
X145868571Y-125929571D01*
X145868571Y-125711857D01*
X145832285Y-125639285D01*
X145796000Y-125603000D01*
X145723428Y-125566714D01*
X145578285Y-125566714D01*
X145505714Y-125603000D01*
X145142857Y-125566714D02*
X145142857Y-126074714D01*
X145142857Y-125639285D02*
X145106571Y-125603000D01*
X145034000Y-125566714D01*
X144925142Y-125566714D01*
X144852571Y-125603000D01*
X144816285Y-125675571D01*
X144816285Y-126074714D01*
X144163142Y-126038428D02*
X144235714Y-126074714D01*
X144380857Y-126074714D01*
X144453428Y-126038428D01*
X144489714Y-125965857D01*
X144489714Y-125675571D01*
X144453428Y-125603000D01*
X144380857Y-125566714D01*
X144235714Y-125566714D01*
X144163142Y-125603000D01*
X144126857Y-125675571D01*
X144126857Y-125748142D01*
X144489714Y-125820714D01*
X143473714Y-126074714D02*
X143473714Y-125312714D01*
X143473714Y-126038428D02*
X143546285Y-126074714D01*
X143691428Y-126074714D01*
X143764000Y-126038428D01*
X143800285Y-126002142D01*
X143836571Y-125929571D01*
X143836571Y-125711857D01*
X143800285Y-125639285D01*
X143764000Y-125603000D01*
X143691428Y-125566714D01*
X143546285Y-125566714D01*
X143473714Y-125603000D01*
X142530285Y-126074714D02*
X142530285Y-125312714D01*
X142530285Y-125603000D02*
X142457714Y-125566714D01*
X142312571Y-125566714D01*
X142240000Y-125603000D01*
X142203714Y-125639285D01*
X142167428Y-125711857D01*
X142167428Y-125929571D01*
X142203714Y-126002142D01*
X142240000Y-126038428D01*
X142312571Y-126074714D01*
X142457714Y-126074714D01*
X142530285Y-126038428D01*
X141913428Y-125566714D02*
X141732000Y-126074714D01*
X141550571Y-125566714D02*
X141732000Y-126074714D01*
X141804571Y-126256142D01*
X141840857Y-126292428D01*
X141913428Y-126328714D01*
X141260285Y-126002142D02*
X141224000Y-126038428D01*
X141260285Y-126074714D01*
X141296571Y-126038428D01*
X141260285Y-126002142D01*
X141260285Y-126074714D01*
X141260285Y-125603000D02*
X141224000Y-125639285D01*
X141260285Y-125675571D01*
X141296571Y-125639285D01*
X141260285Y-125603000D01*
X141260285Y-125675571D01*
X140316857Y-126074714D02*
X140316857Y-125312714D01*
X140062857Y-125857000D01*
X139808857Y-125312714D01*
X139808857Y-126074714D01*
X139119428Y-126074714D02*
X139119428Y-125675571D01*
X139155714Y-125603000D01*
X139228285Y-125566714D01*
X139373428Y-125566714D01*
X139446000Y-125603000D01*
X139119428Y-126038428D02*
X139192000Y-126074714D01*
X139373428Y-126074714D01*
X139446000Y-126038428D01*
X139482285Y-125965857D01*
X139482285Y-125893285D01*
X139446000Y-125820714D01*
X139373428Y-125784428D01*
X139192000Y-125784428D01*
X139119428Y-125748142D01*
X138756571Y-126074714D02*
X138756571Y-125566714D01*
X138756571Y-125711857D02*
X138720285Y-125639285D01*
X138684000Y-125603000D01*
X138611428Y-125566714D01*
X138538857Y-125566714D01*
X138284857Y-126074714D02*
X138284857Y-125566714D01*
X138284857Y-125312714D02*
X138321142Y-125349000D01*
X138284857Y-125385285D01*
X138248571Y-125349000D01*
X138284857Y-125312714D01*
X138284857Y-125385285D01*
X137813142Y-126074714D02*
X137885714Y-126038428D01*
X137922000Y-126002142D01*
X137958285Y-125929571D01*
X137958285Y-125711857D01*
X137922000Y-125639285D01*
X137885714Y-125603000D01*
X137813142Y-125566714D01*
X137704285Y-125566714D01*
X137631714Y-125603000D01*
X137595428Y-125639285D01*
X137559142Y-125711857D01*
X137559142Y-125929571D01*
X137595428Y-126002142D01*
X137631714Y-126038428D01*
X137704285Y-126074714D01*
X137813142Y-126074714D01*
X136506857Y-125312714D02*
X136361714Y-125312714D01*
X136289142Y-125349000D01*
X136216571Y-125421571D01*
X136180285Y-125566714D01*
X136180285Y-125820714D01*
X136216571Y-125965857D01*
X136289142Y-126038428D01*
X136361714Y-126074714D01*
X136506857Y-126074714D01*
X136579428Y-126038428D01*
X136652000Y-125965857D01*
X136688285Y-125820714D01*
X136688285Y-125566714D01*
X136652000Y-125421571D01*
X136579428Y-125349000D01*
X136506857Y-125312714D01*
X135744857Y-126074714D02*
X135817428Y-126038428D01*
X135853714Y-125965857D01*
X135853714Y-125312714D01*
X135164285Y-126038428D02*
X135236857Y-126074714D01*
X135382000Y-126074714D01*
X135454571Y-126038428D01*
X135490857Y-125965857D01*
X135490857Y-125675571D01*
X135454571Y-125603000D01*
X135382000Y-125566714D01*
X135236857Y-125566714D01*
X135164285Y-125603000D01*
X135128000Y-125675571D01*
X135128000Y-125748142D01*
X135490857Y-125820714D01*
X134910285Y-125566714D02*
X134620000Y-125566714D01*
X134801428Y-125312714D02*
X134801428Y-125965857D01*
X134765142Y-126038428D01*
X134692571Y-126074714D01*
X134620000Y-126074714D01*
X134366000Y-126074714D02*
X134366000Y-125566714D01*
X134366000Y-125312714D02*
X134402285Y-125349000D01*
X134366000Y-125385285D01*
X134329714Y-125349000D01*
X134366000Y-125312714D01*
X134366000Y-125385285D01*
X133676571Y-126038428D02*
X133749142Y-126074714D01*
X133894285Y-126074714D01*
X133966857Y-126038428D01*
X134003142Y-126002142D01*
X134039428Y-125929571D01*
X134039428Y-125711857D01*
X134003142Y-125639285D01*
X133966857Y-125603000D01*
X133894285Y-125566714D01*
X133749142Y-125566714D01*
X133676571Y-125603000D01*
X133749142Y-125276428D02*
X133858000Y-125385285D01*
X150622000Y-72099714D02*
X150622000Y-71337714D01*
X150622000Y-71700571D02*
X150186571Y-71700571D01*
X150186571Y-72099714D02*
X150186571Y-71337714D01*
X149896285Y-71337714D02*
X149714857Y-72099714D01*
X149569714Y-71555428D01*
X149424571Y-72099714D01*
X149243142Y-71337714D01*
X147936857Y-72099714D02*
X148190857Y-71736857D01*
X148372285Y-72099714D02*
X148372285Y-71337714D01*
X148082000Y-71337714D01*
X148009428Y-71374000D01*
X147973142Y-71410285D01*
X147936857Y-71482857D01*
X147936857Y-71591714D01*
X147973142Y-71664285D01*
X148009428Y-71700571D01*
X148082000Y-71736857D01*
X148372285Y-71736857D01*
X147610285Y-71700571D02*
X147356285Y-71700571D01*
X147247428Y-72099714D02*
X147610285Y-72099714D01*
X147610285Y-71337714D01*
X147247428Y-71337714D01*
X146993428Y-71337714D02*
X146812000Y-72099714D01*
X146666857Y-71555428D01*
X146521714Y-72099714D01*
X146340285Y-71337714D01*
X145070285Y-72099714D02*
X145505714Y-72099714D01*
X145288000Y-72099714D02*
X145288000Y-71337714D01*
X145360571Y-71446571D01*
X145433142Y-71519142D01*
X145505714Y-71555428D01*
X144743714Y-72027142D02*
X144707428Y-72063428D01*
X144743714Y-72099714D01*
X144780000Y-72063428D01*
X144743714Y-72027142D01*
X144743714Y-72099714D01*
X144235714Y-71337714D02*
X144163142Y-71337714D01*
X144090571Y-71374000D01*
X144054285Y-71410285D01*
X144018000Y-71482857D01*
X143981714Y-71628000D01*
X143981714Y-71809428D01*
X144018000Y-71954571D01*
X144054285Y-72027142D01*
X144090571Y-72063428D01*
X144163142Y-72099714D01*
X144235714Y-72099714D01*
X144308285Y-72063428D01*
X144344571Y-72027142D01*
X144380857Y-71954571D01*
X144417142Y-71809428D01*
X144417142Y-71628000D01*
X144380857Y-71482857D01*
X144344571Y-71410285D01*
X144308285Y-71374000D01*
X144235714Y-71337714D01*
D11*
X145580952Y-116022380D02*
X145580952Y-115022380D01*
X145152380Y-115974761D02*
X145057142Y-116022380D01*
X144866666Y-116022380D01*
X144771428Y-115974761D01*
X144723809Y-115879523D01*
X144723809Y-115831904D01*
X144771428Y-115736666D01*
X144866666Y-115689047D01*
X145009523Y-115689047D01*
X145104761Y-115641428D01*
X145152380Y-115546190D01*
X145152380Y-115498571D01*
X145104761Y-115403333D01*
X145009523Y-115355714D01*
X144866666Y-115355714D01*
X144771428Y-115403333D01*
X144152380Y-116022380D02*
X144247619Y-115974761D01*
X144295238Y-115927142D01*
X144342857Y-115831904D01*
X144342857Y-115546190D01*
X144295238Y-115450952D01*
X144247619Y-115403333D01*
X144152380Y-115355714D01*
X144009523Y-115355714D01*
X143914285Y-115403333D01*
X143866666Y-115450952D01*
X143819047Y-115546190D01*
X143819047Y-115831904D01*
X143866666Y-115927142D01*
X143914285Y-115974761D01*
X144009523Y-116022380D01*
X144152380Y-116022380D01*
X143247619Y-116022380D02*
X143342857Y-115974761D01*
X143390476Y-115879523D01*
X143390476Y-115022380D01*
X142438095Y-116022380D02*
X142438095Y-115498571D01*
X142485714Y-115403333D01*
X142580952Y-115355714D01*
X142771428Y-115355714D01*
X142866666Y-115403333D01*
X142438095Y-115974761D02*
X142533333Y-116022380D01*
X142771428Y-116022380D01*
X142866666Y-115974761D01*
X142914285Y-115879523D01*
X142914285Y-115784285D01*
X142866666Y-115689047D01*
X142771428Y-115641428D01*
X142533333Y-115641428D01*
X142438095Y-115593809D01*
X142104761Y-115355714D02*
X141723809Y-115355714D01*
X141961904Y-115022380D02*
X141961904Y-115879523D01*
X141914285Y-115974761D01*
X141819047Y-116022380D01*
X141723809Y-116022380D01*
X141390476Y-116022380D02*
X141390476Y-115355714D01*
X141390476Y-115022380D02*
X141438095Y-115070000D01*
X141390476Y-115117619D01*
X141342857Y-115070000D01*
X141390476Y-115022380D01*
X141390476Y-115117619D01*
X140771428Y-116022380D02*
X140866666Y-115974761D01*
X140914285Y-115927142D01*
X140961904Y-115831904D01*
X140961904Y-115546190D01*
X140914285Y-115450952D01*
X140866666Y-115403333D01*
X140771428Y-115355714D01*
X140628571Y-115355714D01*
X140533333Y-115403333D01*
X140485714Y-115450952D01*
X140438095Y-115546190D01*
X140438095Y-115831904D01*
X140485714Y-115927142D01*
X140533333Y-115974761D01*
X140628571Y-116022380D01*
X140771428Y-116022380D01*
X140009523Y-115355714D02*
X140009523Y-116022380D01*
X140009523Y-115450952D02*
X139961904Y-115403333D01*
X139866666Y-115355714D01*
X139723809Y-115355714D01*
X139628571Y-115403333D01*
X139580952Y-115498571D01*
X139580952Y-116022380D01*
X138342857Y-116022380D02*
X138342857Y-115022380D01*
X138342857Y-115403333D02*
X138247619Y-115355714D01*
X138057142Y-115355714D01*
X137961904Y-115403333D01*
X137914285Y-115450952D01*
X137866666Y-115546190D01*
X137866666Y-115831904D01*
X137914285Y-115927142D01*
X137961904Y-115974761D01*
X138057142Y-116022380D01*
X138247619Y-116022380D01*
X138342857Y-115974761D01*
X137009523Y-116022380D02*
X137009523Y-115498571D01*
X137057142Y-115403333D01*
X137152380Y-115355714D01*
X137342857Y-115355714D01*
X137438095Y-115403333D01*
X137009523Y-115974761D02*
X137104761Y-116022380D01*
X137342857Y-116022380D01*
X137438095Y-115974761D01*
X137485714Y-115879523D01*
X137485714Y-115784285D01*
X137438095Y-115689047D01*
X137342857Y-115641428D01*
X137104761Y-115641428D01*
X137009523Y-115593809D01*
X136533333Y-116022380D02*
X136533333Y-115355714D01*
X136533333Y-115546190D02*
X136485714Y-115450952D01*
X136438095Y-115403333D01*
X136342857Y-115355714D01*
X136247619Y-115355714D01*
X135914285Y-116022380D02*
X135914285Y-115355714D01*
X135914285Y-115546190D02*
X135866666Y-115450952D01*
X135819047Y-115403333D01*
X135723809Y-115355714D01*
X135628571Y-115355714D01*
X135295238Y-116022380D02*
X135295238Y-115355714D01*
X135295238Y-115022380D02*
X135342857Y-115070000D01*
X135295238Y-115117619D01*
X135247619Y-115070000D01*
X135295238Y-115022380D01*
X135295238Y-115117619D01*
X134438095Y-115974761D02*
X134533333Y-116022380D01*
X134723809Y-116022380D01*
X134819047Y-115974761D01*
X134866666Y-115879523D01*
X134866666Y-115498571D01*
X134819047Y-115403333D01*
X134723809Y-115355714D01*
X134533333Y-115355714D01*
X134438095Y-115403333D01*
X134390476Y-115498571D01*
X134390476Y-115593809D01*
X134866666Y-115689047D01*
X133961904Y-116022380D02*
X133961904Y-115355714D01*
X133961904Y-115546190D02*
X133914285Y-115450952D01*
X133866666Y-115403333D01*
X133771428Y-115355714D01*
X133676190Y-115355714D01*
D12*
X147320000Y-110490000D02*
X149860000Y-113030000D01*
X144780000Y-113030000D02*
X147320000Y-110490000D01*
X142240000Y-110490000D02*
X144780000Y-113030000D01*
X139700000Y-113030000D02*
X142240000Y-110490000D01*
X137160000Y-110490000D02*
X139700000Y-113030000D01*
X134620000Y-113030000D02*
X137160000Y-110490000D01*
X132080000Y-110490000D02*
X134620000Y-113030000D01*
X129540000Y-113030000D02*
X132080000Y-110490000D01*
X149860000Y-110490000D02*
X149860000Y-113030000D01*
X129540000Y-110490000D02*
X129540000Y-113030000D01*
X132080000Y-113030000D02*
X129540000Y-110490000D01*
X134620000Y-110490000D02*
X132080000Y-113030000D01*
X137160000Y-113030000D02*
X134620000Y-110490000D01*
X139700000Y-110490000D02*
X137160000Y-113030000D01*
X142240000Y-113030000D02*
X139700000Y-110490000D01*
X144780000Y-110490000D02*
X142240000Y-113030000D01*
X147320000Y-113030000D02*
X144780000Y-110490000D01*
X149860000Y-110490000D02*
X147320000Y-113030000D01*
X129540000Y-113030000D02*
X149860000Y-113030000D01*
X129540000Y-110490000D02*
X149860000Y-110490000D01*
M02*
