G04 #@! TF.GenerationSoftware,KiCad,Pcbnew,(5.1.2)-2*
G04 #@! TF.CreationDate,2019-10-15T13:17:40+02:00*
G04 #@! TF.ProjectId,USB_UART_Iolated,5553425f-5541-4525-945f-496f6c617465,rev?*
G04 #@! TF.SameCoordinates,Original*
G04 #@! TF.FileFunction,Soldermask,Bot*
G04 #@! TF.FilePolarity,Negative*
%FSLAX46Y46*%
G04 Gerber Fmt 4.6, Leading zero omitted, Abs format (unit mm)*
G04 Created by KiCad (PCBNEW (5.1.2)-2) date 2019-10-15 13:17:40*
%MOMM*%
%LPD*%
G04 APERTURE LIST*
%ADD10C,0.100000*%
G04 APERTURE END LIST*
D10*
G36*
X152031000Y-124091000D02*
G01*
X150229000Y-124091000D01*
X150229000Y-122289000D01*
X152031000Y-122289000D01*
X152031000Y-124091000D01*
X152031000Y-124091000D01*
G37*
G36*
X128446627Y-122302037D02*
G01*
X128616466Y-122353557D01*
X128772991Y-122437222D01*
X128772992Y-122437223D01*
X128772994Y-122437224D01*
X128910185Y-122549815D01*
X129022778Y-122687009D01*
X129106443Y-122843534D01*
X129157963Y-123013373D01*
X129175359Y-123190000D01*
X129157963Y-123366627D01*
X129106443Y-123536466D01*
X129022778Y-123692991D01*
X129022776Y-123692994D01*
X128910185Y-123830185D01*
X128772994Y-123942776D01*
X128772992Y-123942777D01*
X128772991Y-123942778D01*
X128616466Y-124026443D01*
X128446627Y-124077963D01*
X128314258Y-124091000D01*
X128225742Y-124091000D01*
X128093373Y-124077963D01*
X127923534Y-124026443D01*
X127767009Y-123942778D01*
X127767008Y-123942777D01*
X127767006Y-123942776D01*
X127629815Y-123830185D01*
X127517224Y-123692994D01*
X127517222Y-123692991D01*
X127433557Y-123536466D01*
X127382037Y-123366627D01*
X127364641Y-123190000D01*
X127382037Y-123013373D01*
X127433557Y-122843534D01*
X127517222Y-122687009D01*
X127629815Y-122549815D01*
X127767006Y-122437224D01*
X127767008Y-122437223D01*
X127767009Y-122437222D01*
X127923534Y-122353557D01*
X128093373Y-122302037D01*
X128225742Y-122289000D01*
X128314258Y-122289000D01*
X128446627Y-122302037D01*
X128446627Y-122302037D01*
G37*
G36*
X128446627Y-119762037D02*
G01*
X128616466Y-119813557D01*
X128772991Y-119897222D01*
X128772992Y-119897223D01*
X128772994Y-119897224D01*
X128910185Y-120009815D01*
X129022778Y-120147009D01*
X129106443Y-120303534D01*
X129157963Y-120473373D01*
X129175359Y-120650000D01*
X129157963Y-120826627D01*
X129106443Y-120996466D01*
X129022778Y-121152991D01*
X129022776Y-121152994D01*
X128910185Y-121290185D01*
X128772994Y-121402776D01*
X128772992Y-121402777D01*
X128772991Y-121402778D01*
X128616466Y-121486443D01*
X128446627Y-121537963D01*
X128314258Y-121551000D01*
X128225742Y-121551000D01*
X128093373Y-121537963D01*
X127923534Y-121486443D01*
X127767009Y-121402778D01*
X127767008Y-121402777D01*
X127767006Y-121402776D01*
X127629815Y-121290185D01*
X127517224Y-121152994D01*
X127517222Y-121152991D01*
X127433557Y-120996466D01*
X127382037Y-120826627D01*
X127364641Y-120650000D01*
X127382037Y-120473373D01*
X127433557Y-120303534D01*
X127517222Y-120147009D01*
X127629815Y-120009815D01*
X127767006Y-119897224D01*
X127767008Y-119897223D01*
X127767009Y-119897222D01*
X127923534Y-119813557D01*
X128093373Y-119762037D01*
X128225742Y-119749000D01*
X128314258Y-119749000D01*
X128446627Y-119762037D01*
X128446627Y-119762037D01*
G37*
G36*
X151306627Y-119762037D02*
G01*
X151476466Y-119813557D01*
X151632991Y-119897222D01*
X151632992Y-119897223D01*
X151632994Y-119897224D01*
X151770185Y-120009815D01*
X151882778Y-120147009D01*
X151966443Y-120303534D01*
X152017963Y-120473373D01*
X152035359Y-120650000D01*
X152017963Y-120826627D01*
X151966443Y-120996466D01*
X151882778Y-121152991D01*
X151882776Y-121152994D01*
X151770185Y-121290185D01*
X151632994Y-121402776D01*
X151632992Y-121402777D01*
X151632991Y-121402778D01*
X151476466Y-121486443D01*
X151306627Y-121537963D01*
X151174258Y-121551000D01*
X151085742Y-121551000D01*
X150953373Y-121537963D01*
X150783534Y-121486443D01*
X150627009Y-121402778D01*
X150627008Y-121402777D01*
X150627006Y-121402776D01*
X150489815Y-121290185D01*
X150377224Y-121152994D01*
X150377222Y-121152991D01*
X150293557Y-120996466D01*
X150242037Y-120826627D01*
X150224641Y-120650000D01*
X150242037Y-120473373D01*
X150293557Y-120303534D01*
X150377222Y-120147009D01*
X150489815Y-120009815D01*
X150627006Y-119897224D01*
X150627008Y-119897223D01*
X150627009Y-119897222D01*
X150783534Y-119813557D01*
X150953373Y-119762037D01*
X151085742Y-119749000D01*
X151174258Y-119749000D01*
X151306627Y-119762037D01*
X151306627Y-119762037D01*
G37*
G36*
X128446627Y-117222037D02*
G01*
X128616466Y-117273557D01*
X128772991Y-117357222D01*
X128772992Y-117357223D01*
X128772994Y-117357224D01*
X128910185Y-117469815D01*
X129022778Y-117607009D01*
X129106443Y-117763534D01*
X129157963Y-117933373D01*
X129175359Y-118110000D01*
X129157963Y-118286627D01*
X129106443Y-118456466D01*
X129022778Y-118612991D01*
X129022776Y-118612994D01*
X128910185Y-118750185D01*
X128772994Y-118862776D01*
X128772992Y-118862777D01*
X128772991Y-118862778D01*
X128616466Y-118946443D01*
X128446627Y-118997963D01*
X128314258Y-119011000D01*
X128225742Y-119011000D01*
X128093373Y-118997963D01*
X127923534Y-118946443D01*
X127767009Y-118862778D01*
X127767008Y-118862777D01*
X127767006Y-118862776D01*
X127629815Y-118750185D01*
X127517224Y-118612994D01*
X127517222Y-118612991D01*
X127433557Y-118456466D01*
X127382037Y-118286627D01*
X127364641Y-118110000D01*
X127382037Y-117933373D01*
X127433557Y-117763534D01*
X127517222Y-117607009D01*
X127629815Y-117469815D01*
X127767006Y-117357224D01*
X127767008Y-117357223D01*
X127767009Y-117357222D01*
X127923534Y-117273557D01*
X128093373Y-117222037D01*
X128225742Y-117209000D01*
X128314258Y-117209000D01*
X128446627Y-117222037D01*
X128446627Y-117222037D01*
G37*
G36*
X151306627Y-117222037D02*
G01*
X151476466Y-117273557D01*
X151632991Y-117357222D01*
X151632992Y-117357223D01*
X151632994Y-117357224D01*
X151770185Y-117469815D01*
X151882778Y-117607009D01*
X151966443Y-117763534D01*
X152017963Y-117933373D01*
X152035359Y-118110000D01*
X152017963Y-118286627D01*
X151966443Y-118456466D01*
X151882778Y-118612991D01*
X151882776Y-118612994D01*
X151770185Y-118750185D01*
X151632994Y-118862776D01*
X151632992Y-118862777D01*
X151632991Y-118862778D01*
X151476466Y-118946443D01*
X151306627Y-118997963D01*
X151174258Y-119011000D01*
X151085742Y-119011000D01*
X150953373Y-118997963D01*
X150783534Y-118946443D01*
X150627009Y-118862778D01*
X150627008Y-118862777D01*
X150627006Y-118862776D01*
X150489815Y-118750185D01*
X150377224Y-118612994D01*
X150377222Y-118612991D01*
X150293557Y-118456466D01*
X150242037Y-118286627D01*
X150224641Y-118110000D01*
X150242037Y-117933373D01*
X150293557Y-117763534D01*
X150377222Y-117607009D01*
X150489815Y-117469815D01*
X150627006Y-117357224D01*
X150627008Y-117357223D01*
X150627009Y-117357222D01*
X150783534Y-117273557D01*
X150953373Y-117222037D01*
X151085742Y-117209000D01*
X151174258Y-117209000D01*
X151306627Y-117222037D01*
X151306627Y-117222037D01*
G37*
G36*
X151306627Y-114682037D02*
G01*
X151476466Y-114733557D01*
X151632991Y-114817222D01*
X151632992Y-114817223D01*
X151632994Y-114817224D01*
X151770185Y-114929815D01*
X151882778Y-115067009D01*
X151966443Y-115223534D01*
X152017963Y-115393373D01*
X152035359Y-115570000D01*
X152017963Y-115746627D01*
X151966443Y-115916466D01*
X151882778Y-116072991D01*
X151882776Y-116072994D01*
X151770185Y-116210185D01*
X151632994Y-116322776D01*
X151632992Y-116322777D01*
X151632991Y-116322778D01*
X151476466Y-116406443D01*
X151306627Y-116457963D01*
X151174258Y-116471000D01*
X151085742Y-116471000D01*
X150953373Y-116457963D01*
X150783534Y-116406443D01*
X150627009Y-116322778D01*
X150627008Y-116322777D01*
X150627006Y-116322776D01*
X150489815Y-116210185D01*
X150377224Y-116072994D01*
X150377222Y-116072991D01*
X150293557Y-115916466D01*
X150242037Y-115746627D01*
X150224641Y-115570000D01*
X150242037Y-115393373D01*
X150293557Y-115223534D01*
X150377222Y-115067009D01*
X150489815Y-114929815D01*
X150627006Y-114817224D01*
X150627008Y-114817223D01*
X150627009Y-114817222D01*
X150783534Y-114733557D01*
X150953373Y-114682037D01*
X151085742Y-114669000D01*
X151174258Y-114669000D01*
X151306627Y-114682037D01*
X151306627Y-114682037D01*
G37*
G36*
X128446627Y-114682037D02*
G01*
X128616466Y-114733557D01*
X128772991Y-114817222D01*
X128772992Y-114817223D01*
X128772994Y-114817224D01*
X128910185Y-114929815D01*
X129022778Y-115067009D01*
X129106443Y-115223534D01*
X129157963Y-115393373D01*
X129175359Y-115570000D01*
X129157963Y-115746627D01*
X129106443Y-115916466D01*
X129022778Y-116072991D01*
X129022776Y-116072994D01*
X128910185Y-116210185D01*
X128772994Y-116322776D01*
X128772992Y-116322777D01*
X128772991Y-116322778D01*
X128616466Y-116406443D01*
X128446627Y-116457963D01*
X128314258Y-116471000D01*
X128225742Y-116471000D01*
X128093373Y-116457963D01*
X127923534Y-116406443D01*
X127767009Y-116322778D01*
X127767008Y-116322777D01*
X127767006Y-116322776D01*
X127629815Y-116210185D01*
X127517224Y-116072994D01*
X127517222Y-116072991D01*
X127433557Y-115916466D01*
X127382037Y-115746627D01*
X127364641Y-115570000D01*
X127382037Y-115393373D01*
X127433557Y-115223534D01*
X127517222Y-115067009D01*
X127629815Y-114929815D01*
X127767006Y-114817224D01*
X127767008Y-114817223D01*
X127767009Y-114817222D01*
X127923534Y-114733557D01*
X128093373Y-114682037D01*
X128225742Y-114669000D01*
X128314258Y-114669000D01*
X128446627Y-114682037D01*
X128446627Y-114682037D01*
G37*
G36*
X151306627Y-112142037D02*
G01*
X151476466Y-112193557D01*
X151632991Y-112277222D01*
X151632992Y-112277223D01*
X151632994Y-112277224D01*
X151770185Y-112389815D01*
X151882778Y-112527009D01*
X151966443Y-112683534D01*
X152017963Y-112853373D01*
X152035359Y-113030000D01*
X152017963Y-113206627D01*
X151966443Y-113376466D01*
X151882778Y-113532991D01*
X151882776Y-113532994D01*
X151770185Y-113670185D01*
X151632994Y-113782776D01*
X151632992Y-113782777D01*
X151632991Y-113782778D01*
X151476466Y-113866443D01*
X151306627Y-113917963D01*
X151174258Y-113931000D01*
X151085742Y-113931000D01*
X150953373Y-113917963D01*
X150783534Y-113866443D01*
X150627009Y-113782778D01*
X150627008Y-113782777D01*
X150627006Y-113782776D01*
X150489815Y-113670185D01*
X150377224Y-113532994D01*
X150377222Y-113532991D01*
X150293557Y-113376466D01*
X150242037Y-113206627D01*
X150224641Y-113030000D01*
X150242037Y-112853373D01*
X150293557Y-112683534D01*
X150377222Y-112527009D01*
X150489815Y-112389815D01*
X150627006Y-112277224D01*
X150627008Y-112277223D01*
X150627009Y-112277222D01*
X150783534Y-112193557D01*
X150953373Y-112142037D01*
X151085742Y-112129000D01*
X151174258Y-112129000D01*
X151306627Y-112142037D01*
X151306627Y-112142037D01*
G37*
G36*
X128446627Y-112142037D02*
G01*
X128616466Y-112193557D01*
X128772991Y-112277222D01*
X128772992Y-112277223D01*
X128772994Y-112277224D01*
X128910185Y-112389815D01*
X129022778Y-112527009D01*
X129106443Y-112683534D01*
X129157963Y-112853373D01*
X129175359Y-113030000D01*
X129157963Y-113206627D01*
X129106443Y-113376466D01*
X129022778Y-113532991D01*
X129022776Y-113532994D01*
X128910185Y-113670185D01*
X128772994Y-113782776D01*
X128772992Y-113782777D01*
X128772991Y-113782778D01*
X128616466Y-113866443D01*
X128446627Y-113917963D01*
X128314258Y-113931000D01*
X128225742Y-113931000D01*
X128093373Y-113917963D01*
X127923534Y-113866443D01*
X127767009Y-113782778D01*
X127767008Y-113782777D01*
X127767006Y-113782776D01*
X127629815Y-113670185D01*
X127517224Y-113532994D01*
X127517222Y-113532991D01*
X127433557Y-113376466D01*
X127382037Y-113206627D01*
X127364641Y-113030000D01*
X127382037Y-112853373D01*
X127433557Y-112683534D01*
X127517222Y-112527009D01*
X127629815Y-112389815D01*
X127767006Y-112277224D01*
X127767008Y-112277223D01*
X127767009Y-112277222D01*
X127923534Y-112193557D01*
X128093373Y-112142037D01*
X128225742Y-112129000D01*
X128314258Y-112129000D01*
X128446627Y-112142037D01*
X128446627Y-112142037D01*
G37*
G36*
X151306627Y-109602037D02*
G01*
X151476466Y-109653557D01*
X151632991Y-109737222D01*
X151632992Y-109737223D01*
X151632994Y-109737224D01*
X151770185Y-109849815D01*
X151882778Y-109987009D01*
X151966443Y-110143534D01*
X152017963Y-110313373D01*
X152035359Y-110490000D01*
X152017963Y-110666627D01*
X151966443Y-110836466D01*
X151882778Y-110992991D01*
X151882776Y-110992994D01*
X151770185Y-111130185D01*
X151632994Y-111242776D01*
X151632992Y-111242777D01*
X151632991Y-111242778D01*
X151476466Y-111326443D01*
X151306627Y-111377963D01*
X151174258Y-111391000D01*
X151085742Y-111391000D01*
X150953373Y-111377963D01*
X150783534Y-111326443D01*
X150627009Y-111242778D01*
X150627008Y-111242777D01*
X150627006Y-111242776D01*
X150489815Y-111130185D01*
X150377224Y-110992994D01*
X150377222Y-110992991D01*
X150293557Y-110836466D01*
X150242037Y-110666627D01*
X150224641Y-110490000D01*
X150242037Y-110313373D01*
X150293557Y-110143534D01*
X150377222Y-109987009D01*
X150489815Y-109849815D01*
X150627006Y-109737224D01*
X150627008Y-109737223D01*
X150627009Y-109737222D01*
X150783534Y-109653557D01*
X150953373Y-109602037D01*
X151085742Y-109589000D01*
X151174258Y-109589000D01*
X151306627Y-109602037D01*
X151306627Y-109602037D01*
G37*
G36*
X128446627Y-109602037D02*
G01*
X128616466Y-109653557D01*
X128772991Y-109737222D01*
X128772992Y-109737223D01*
X128772994Y-109737224D01*
X128910185Y-109849815D01*
X129022778Y-109987009D01*
X129106443Y-110143534D01*
X129157963Y-110313373D01*
X129175359Y-110490000D01*
X129157963Y-110666627D01*
X129106443Y-110836466D01*
X129022778Y-110992991D01*
X129022776Y-110992994D01*
X128910185Y-111130185D01*
X128772994Y-111242776D01*
X128772992Y-111242777D01*
X128772991Y-111242778D01*
X128616466Y-111326443D01*
X128446627Y-111377963D01*
X128314258Y-111391000D01*
X128225742Y-111391000D01*
X128093373Y-111377963D01*
X127923534Y-111326443D01*
X127767009Y-111242778D01*
X127767008Y-111242777D01*
X127767006Y-111242776D01*
X127629815Y-111130185D01*
X127517224Y-110992994D01*
X127517222Y-110992991D01*
X127433557Y-110836466D01*
X127382037Y-110666627D01*
X127364641Y-110490000D01*
X127382037Y-110313373D01*
X127433557Y-110143534D01*
X127517222Y-109987009D01*
X127629815Y-109849815D01*
X127767006Y-109737224D01*
X127767008Y-109737223D01*
X127767009Y-109737222D01*
X127923534Y-109653557D01*
X128093373Y-109602037D01*
X128225742Y-109589000D01*
X128314258Y-109589000D01*
X128446627Y-109602037D01*
X128446627Y-109602037D01*
G37*
G36*
X128446627Y-107062037D02*
G01*
X128616466Y-107113557D01*
X128772991Y-107197222D01*
X128772992Y-107197223D01*
X128772994Y-107197224D01*
X128910185Y-107309815D01*
X129022778Y-107447009D01*
X129106443Y-107603534D01*
X129157963Y-107773373D01*
X129175359Y-107950000D01*
X129157963Y-108126627D01*
X129106443Y-108296466D01*
X129022778Y-108452991D01*
X129022776Y-108452994D01*
X128910185Y-108590185D01*
X128772994Y-108702776D01*
X128772992Y-108702777D01*
X128772991Y-108702778D01*
X128616466Y-108786443D01*
X128446627Y-108837963D01*
X128314258Y-108851000D01*
X128225742Y-108851000D01*
X128093373Y-108837963D01*
X127923534Y-108786443D01*
X127767009Y-108702778D01*
X127767008Y-108702777D01*
X127767006Y-108702776D01*
X127629815Y-108590185D01*
X127517224Y-108452994D01*
X127517222Y-108452991D01*
X127433557Y-108296466D01*
X127382037Y-108126627D01*
X127364641Y-107950000D01*
X127382037Y-107773373D01*
X127433557Y-107603534D01*
X127517222Y-107447009D01*
X127629815Y-107309815D01*
X127767006Y-107197224D01*
X127767008Y-107197223D01*
X127767009Y-107197222D01*
X127923534Y-107113557D01*
X128093373Y-107062037D01*
X128225742Y-107049000D01*
X128314258Y-107049000D01*
X128446627Y-107062037D01*
X128446627Y-107062037D01*
G37*
G36*
X151306627Y-107062037D02*
G01*
X151476466Y-107113557D01*
X151632991Y-107197222D01*
X151632992Y-107197223D01*
X151632994Y-107197224D01*
X151770185Y-107309815D01*
X151882778Y-107447009D01*
X151966443Y-107603534D01*
X152017963Y-107773373D01*
X152035359Y-107950000D01*
X152017963Y-108126627D01*
X151966443Y-108296466D01*
X151882778Y-108452991D01*
X151882776Y-108452994D01*
X151770185Y-108590185D01*
X151632994Y-108702776D01*
X151632992Y-108702777D01*
X151632991Y-108702778D01*
X151476466Y-108786443D01*
X151306627Y-108837963D01*
X151174258Y-108851000D01*
X151085742Y-108851000D01*
X150953373Y-108837963D01*
X150783534Y-108786443D01*
X150627009Y-108702778D01*
X150627008Y-108702777D01*
X150627006Y-108702776D01*
X150489815Y-108590185D01*
X150377224Y-108452994D01*
X150377222Y-108452991D01*
X150293557Y-108296466D01*
X150242037Y-108126627D01*
X150224641Y-107950000D01*
X150242037Y-107773373D01*
X150293557Y-107603534D01*
X150377222Y-107447009D01*
X150489815Y-107309815D01*
X150627006Y-107197224D01*
X150627008Y-107197223D01*
X150627009Y-107197222D01*
X150783534Y-107113557D01*
X150953373Y-107062037D01*
X151085742Y-107049000D01*
X151174258Y-107049000D01*
X151306627Y-107062037D01*
X151306627Y-107062037D01*
G37*
G36*
X151306627Y-104522037D02*
G01*
X151476466Y-104573557D01*
X151632991Y-104657222D01*
X151632992Y-104657223D01*
X151632994Y-104657224D01*
X151770185Y-104769815D01*
X151882778Y-104907009D01*
X151966443Y-105063534D01*
X152017963Y-105233373D01*
X152035359Y-105410000D01*
X152017963Y-105586627D01*
X151966443Y-105756466D01*
X151882778Y-105912991D01*
X151882776Y-105912994D01*
X151770185Y-106050185D01*
X151632994Y-106162776D01*
X151632992Y-106162777D01*
X151632991Y-106162778D01*
X151476466Y-106246443D01*
X151306627Y-106297963D01*
X151174258Y-106311000D01*
X151085742Y-106311000D01*
X150953373Y-106297963D01*
X150783534Y-106246443D01*
X150627009Y-106162778D01*
X150627008Y-106162777D01*
X150627006Y-106162776D01*
X150489815Y-106050185D01*
X150377224Y-105912994D01*
X150377222Y-105912991D01*
X150293557Y-105756466D01*
X150242037Y-105586627D01*
X150224641Y-105410000D01*
X150242037Y-105233373D01*
X150293557Y-105063534D01*
X150377222Y-104907009D01*
X150489815Y-104769815D01*
X150627006Y-104657224D01*
X150627008Y-104657223D01*
X150627009Y-104657222D01*
X150783534Y-104573557D01*
X150953373Y-104522037D01*
X151085742Y-104509000D01*
X151174258Y-104509000D01*
X151306627Y-104522037D01*
X151306627Y-104522037D01*
G37*
G36*
X129171000Y-106311000D02*
G01*
X127369000Y-106311000D01*
X127369000Y-104509000D01*
X129171000Y-104509000D01*
X129171000Y-106311000D01*
X129171000Y-106311000D01*
G37*
G36*
X139231000Y-85891000D02*
G01*
X137629000Y-85891000D01*
X137629000Y-84289000D01*
X139231000Y-84289000D01*
X139231000Y-85891000D01*
X139231000Y-85891000D01*
G37*
G36*
X141163643Y-84319782D02*
G01*
X141309415Y-84380162D01*
X141309416Y-84380163D01*
X141440608Y-84467822D01*
X141552178Y-84579392D01*
X141618072Y-84678009D01*
X141639838Y-84710585D01*
X141700218Y-84856357D01*
X141731000Y-85011108D01*
X141731000Y-85168892D01*
X141700218Y-85323643D01*
X141639838Y-85469415D01*
X141639837Y-85469416D01*
X141552178Y-85600608D01*
X141440608Y-85712178D01*
X141341991Y-85778072D01*
X141309415Y-85799838D01*
X141163643Y-85860218D01*
X141008892Y-85891000D01*
X140851108Y-85891000D01*
X140696357Y-85860218D01*
X140550585Y-85799838D01*
X140518009Y-85778071D01*
X140419392Y-85712178D01*
X140307822Y-85600608D01*
X140220163Y-85469416D01*
X140220162Y-85469415D01*
X140159782Y-85323643D01*
X140129000Y-85168892D01*
X140129000Y-85011108D01*
X140159782Y-84856357D01*
X140220162Y-84710585D01*
X140241928Y-84678009D01*
X140307822Y-84579392D01*
X140419392Y-84467822D01*
X140550584Y-84380163D01*
X140550585Y-84380162D01*
X140696357Y-84319782D01*
X140851108Y-84289000D01*
X141008892Y-84289000D01*
X141163643Y-84319782D01*
X141163643Y-84319782D01*
G37*
G36*
X138663643Y-82319782D02*
G01*
X138809415Y-82380162D01*
X138809416Y-82380163D01*
X138940608Y-82467822D01*
X139052178Y-82579392D01*
X139118072Y-82678009D01*
X139139838Y-82710585D01*
X139200218Y-82856357D01*
X139231000Y-83011108D01*
X139231000Y-83168892D01*
X139200218Y-83323643D01*
X139139838Y-83469415D01*
X139139837Y-83469416D01*
X139052178Y-83600608D01*
X138940608Y-83712178D01*
X138841991Y-83778071D01*
X138809415Y-83799838D01*
X138663643Y-83860218D01*
X138508892Y-83891000D01*
X138351108Y-83891000D01*
X138196357Y-83860218D01*
X138050585Y-83799838D01*
X138018009Y-83778072D01*
X137919392Y-83712178D01*
X137807822Y-83600608D01*
X137720163Y-83469416D01*
X137720162Y-83469415D01*
X137659782Y-83323643D01*
X137629000Y-83168892D01*
X137629000Y-83011108D01*
X137659782Y-82856357D01*
X137720162Y-82710585D01*
X137741928Y-82678009D01*
X137807822Y-82579392D01*
X137919392Y-82467822D01*
X138050584Y-82380163D01*
X138050585Y-82380162D01*
X138196357Y-82319782D01*
X138351108Y-82289000D01*
X138508892Y-82289000D01*
X138663643Y-82319782D01*
X138663643Y-82319782D01*
G37*
G36*
X141163643Y-82319782D02*
G01*
X141309415Y-82380162D01*
X141309416Y-82380163D01*
X141440608Y-82467822D01*
X141552178Y-82579392D01*
X141618072Y-82678009D01*
X141639838Y-82710585D01*
X141700218Y-82856357D01*
X141731000Y-83011108D01*
X141731000Y-83168892D01*
X141700218Y-83323643D01*
X141639838Y-83469415D01*
X141639837Y-83469416D01*
X141552178Y-83600608D01*
X141440608Y-83712178D01*
X141341991Y-83778071D01*
X141309415Y-83799838D01*
X141163643Y-83860218D01*
X141008892Y-83891000D01*
X140851108Y-83891000D01*
X140696357Y-83860218D01*
X140550585Y-83799838D01*
X140518009Y-83778072D01*
X140419392Y-83712178D01*
X140307822Y-83600608D01*
X140220163Y-83469416D01*
X140220162Y-83469415D01*
X140159782Y-83323643D01*
X140129000Y-83168892D01*
X140129000Y-83011108D01*
X140159782Y-82856357D01*
X140220162Y-82710585D01*
X140241928Y-82678009D01*
X140307822Y-82579392D01*
X140419392Y-82467822D01*
X140550584Y-82380163D01*
X140550585Y-82380162D01*
X140696357Y-82319782D01*
X140851108Y-82289000D01*
X141008892Y-82289000D01*
X141163643Y-82319782D01*
X141163643Y-82319782D01*
G37*
G36*
X134112410Y-78888604D02*
G01*
X134394674Y-79005521D01*
X134648705Y-79175259D01*
X134864741Y-79391295D01*
X135034479Y-79645326D01*
X135151396Y-79927590D01*
X135211000Y-80227240D01*
X135211000Y-80532760D01*
X135151396Y-80832410D01*
X135034479Y-81114674D01*
X134864741Y-81368705D01*
X134648705Y-81584741D01*
X134394674Y-81754479D01*
X134112410Y-81871396D01*
X133812761Y-81931000D01*
X133507239Y-81931000D01*
X133207590Y-81871396D01*
X132925326Y-81754479D01*
X132671295Y-81584741D01*
X132455259Y-81368705D01*
X132285521Y-81114674D01*
X132168604Y-80832410D01*
X132109000Y-80532760D01*
X132109000Y-80227240D01*
X132168604Y-79927590D01*
X132285521Y-79645326D01*
X132455259Y-79391295D01*
X132671295Y-79175259D01*
X132925326Y-79005521D01*
X133207590Y-78888604D01*
X133507239Y-78829000D01*
X133812761Y-78829000D01*
X134112410Y-78888604D01*
X134112410Y-78888604D01*
G37*
G36*
X146152410Y-78888604D02*
G01*
X146434674Y-79005521D01*
X146688705Y-79175259D01*
X146904741Y-79391295D01*
X147074479Y-79645326D01*
X147191396Y-79927590D01*
X147251000Y-80227240D01*
X147251000Y-80532760D01*
X147191396Y-80832410D01*
X147074479Y-81114674D01*
X146904741Y-81368705D01*
X146688705Y-81584741D01*
X146434674Y-81754479D01*
X146152410Y-81871396D01*
X145852761Y-81931000D01*
X145547239Y-81931000D01*
X145247590Y-81871396D01*
X144965326Y-81754479D01*
X144711295Y-81584741D01*
X144495259Y-81368705D01*
X144325521Y-81114674D01*
X144208604Y-80832410D01*
X144149000Y-80532760D01*
X144149000Y-80227240D01*
X144208604Y-79927590D01*
X144325521Y-79645326D01*
X144495259Y-79391295D01*
X144711295Y-79175259D01*
X144965326Y-79005521D01*
X145247590Y-78888604D01*
X145547239Y-78829000D01*
X145852761Y-78829000D01*
X146152410Y-78888604D01*
X146152410Y-78888604D01*
G37*
M02*
