M48
; DRILL file {KiCad (5.1.2)-2} date 15.10.2019. 13:17:43
; FORMAT={-:-/ absolute / inch / decimal}
; #@! TF.CreationDate,2019-10-15T13:17:43+02:00
; #@! TF.GenerationSoftware,Kicad,Pcbnew,(5.1.2)-2
; #@! TF.FileFunction,Plated,1,2,PTH
FMAT,2
INCH
T1C0.0157
T2C0.0362
T3C0.0394
T4C0.0787
%
G90
G05
T1
X5.24Y-4.68
X5.36Y-3.75
X5.425Y-4.295
X5.4275Y-4.475
X5.43Y-3.74
X5.4804Y-3.4704
X5.51Y-4.88
X5.525Y-4.295
X5.55Y-4.0
X5.5896Y-3.4704
X5.67Y-4.7
X5.7754Y-4.88
X5.7996Y-3.4704
X5.87Y-3.91
T2
X5.45Y-3.2713
X5.45Y-3.35
X5.5484Y-3.2713
X5.5484Y-3.35
T3
X5.95Y-4.15
X5.95Y-4.25
X5.95Y-4.35
X5.95Y-4.45
X5.95Y-4.55
X5.95Y-4.65
X5.95Y-4.75
X5.95Y-4.85
X5.05Y-4.15
X5.05Y-4.25
X5.05Y-4.35
X5.05Y-4.45
X5.05Y-4.55
X5.05Y-4.65
X5.05Y-4.75
X5.05Y-4.85
T4
X5.2622Y-3.1646
X5.7362Y-3.1646
T0
M30
