G04 #@! TF.GenerationSoftware,KiCad,Pcbnew,(5.1.2)-2*
G04 #@! TF.CreationDate,2019-10-15T13:17:40+02:00*
G04 #@! TF.ProjectId,USB_UART_Iolated,5553425f-5541-4525-945f-496f6c617465,rev?*
G04 #@! TF.SameCoordinates,Original*
G04 #@! TF.FileFunction,Soldermask,Top*
G04 #@! TF.FilePolarity,Negative*
%FSLAX46Y46*%
G04 Gerber Fmt 4.6, Leading zero omitted, Abs format (unit mm)*
G04 Created by KiCad (PCBNEW (5.1.2)-2) date 2019-10-15 13:17:40*
%MOMM*%
%LPD*%
G04 APERTURE LIST*
%ADD10C,0.100000*%
G04 APERTURE END LIST*
D10*
G36*
X152031000Y-124091000D02*
G01*
X150229000Y-124091000D01*
X150229000Y-122289000D01*
X152031000Y-122289000D01*
X152031000Y-124091000D01*
X152031000Y-124091000D01*
G37*
G36*
X128446627Y-122302037D02*
G01*
X128616466Y-122353557D01*
X128772991Y-122437222D01*
X128772992Y-122437223D01*
X128772994Y-122437224D01*
X128910185Y-122549815D01*
X129022778Y-122687009D01*
X129106443Y-122843534D01*
X129157963Y-123013373D01*
X129175359Y-123190000D01*
X129157963Y-123366627D01*
X129106443Y-123536466D01*
X129022778Y-123692991D01*
X129022776Y-123692994D01*
X128910185Y-123830185D01*
X128772994Y-123942776D01*
X128772992Y-123942777D01*
X128772991Y-123942778D01*
X128616466Y-124026443D01*
X128446627Y-124077963D01*
X128314258Y-124091000D01*
X128225742Y-124091000D01*
X128093373Y-124077963D01*
X127923534Y-124026443D01*
X127767009Y-123942778D01*
X127767008Y-123942777D01*
X127767006Y-123942776D01*
X127629815Y-123830185D01*
X127517224Y-123692994D01*
X127517222Y-123692991D01*
X127433557Y-123536466D01*
X127382037Y-123366627D01*
X127364641Y-123190000D01*
X127382037Y-123013373D01*
X127433557Y-122843534D01*
X127517222Y-122687009D01*
X127629815Y-122549815D01*
X127767006Y-122437224D01*
X127767008Y-122437223D01*
X127767009Y-122437222D01*
X127923534Y-122353557D01*
X128093373Y-122302037D01*
X128225742Y-122289000D01*
X128314258Y-122289000D01*
X128446627Y-122302037D01*
X128446627Y-122302037D01*
G37*
G36*
X144677380Y-121936113D02*
G01*
X144726681Y-121951068D01*
X144772129Y-121975360D01*
X144811955Y-122008045D01*
X144844640Y-122047871D01*
X144868932Y-122093319D01*
X144883887Y-122142620D01*
X144889000Y-122194526D01*
X144889000Y-123169474D01*
X144883887Y-123221380D01*
X144868932Y-123270681D01*
X144844640Y-123316129D01*
X144811955Y-123355955D01*
X144772129Y-123388640D01*
X144726681Y-123412932D01*
X144677380Y-123427887D01*
X144625474Y-123433000D01*
X144075526Y-123433000D01*
X144023620Y-123427887D01*
X143974319Y-123412932D01*
X143928871Y-123388640D01*
X143889045Y-123355955D01*
X143856360Y-123316129D01*
X143832068Y-123270681D01*
X143817113Y-123221380D01*
X143812000Y-123169474D01*
X143812000Y-122194526D01*
X143817113Y-122142620D01*
X143832068Y-122093319D01*
X143856360Y-122047871D01*
X143889045Y-122008045D01*
X143928871Y-121975360D01*
X143974319Y-121951068D01*
X144023620Y-121936113D01*
X144075526Y-121931000D01*
X144625474Y-121931000D01*
X144677380Y-121936113D01*
X144677380Y-121936113D01*
G37*
G36*
X142810480Y-121936113D02*
G01*
X142859781Y-121951068D01*
X142905229Y-121975360D01*
X142945055Y-122008045D01*
X142977740Y-122047871D01*
X143002032Y-122093319D01*
X143016987Y-122142620D01*
X143022100Y-122194526D01*
X143022100Y-123169474D01*
X143016987Y-123221380D01*
X143002032Y-123270681D01*
X142977740Y-123316129D01*
X142945055Y-123355955D01*
X142905229Y-123388640D01*
X142859781Y-123412932D01*
X142810480Y-123427887D01*
X142758574Y-123433000D01*
X142208626Y-123433000D01*
X142156720Y-123427887D01*
X142107419Y-123412932D01*
X142061971Y-123388640D01*
X142022145Y-123355955D01*
X141989460Y-123316129D01*
X141965168Y-123270681D01*
X141950213Y-123221380D01*
X141945100Y-123169474D01*
X141945100Y-122194526D01*
X141950213Y-122142620D01*
X141965168Y-122093319D01*
X141989460Y-122047871D01*
X142022145Y-122008045D01*
X142061971Y-121975360D01*
X142107419Y-121951068D01*
X142156720Y-121936113D01*
X142208626Y-121931000D01*
X142758574Y-121931000D01*
X142810480Y-121936113D01*
X142810480Y-121936113D01*
G37*
G36*
X146552380Y-121936113D02*
G01*
X146601681Y-121951068D01*
X146647129Y-121975360D01*
X146686955Y-122008045D01*
X146719640Y-122047871D01*
X146743932Y-122093319D01*
X146758887Y-122142620D01*
X146764000Y-122194526D01*
X146764000Y-123169474D01*
X146758887Y-123221380D01*
X146743932Y-123270681D01*
X146719640Y-123316129D01*
X146686955Y-123355955D01*
X146647129Y-123388640D01*
X146601681Y-123412932D01*
X146552380Y-123427887D01*
X146500474Y-123433000D01*
X145950526Y-123433000D01*
X145898620Y-123427887D01*
X145849319Y-123412932D01*
X145803871Y-123388640D01*
X145764045Y-123355955D01*
X145731360Y-123316129D01*
X145707068Y-123270681D01*
X145692113Y-123221380D01*
X145687000Y-123169474D01*
X145687000Y-122194526D01*
X145692113Y-122142620D01*
X145707068Y-122093319D01*
X145731360Y-122047871D01*
X145764045Y-122008045D01*
X145803871Y-121975360D01*
X145849319Y-121951068D01*
X145898620Y-121936113D01*
X145950526Y-121931000D01*
X146500474Y-121931000D01*
X146552380Y-121936113D01*
X146552380Y-121936113D01*
G37*
G36*
X135279380Y-121809113D02*
G01*
X135328681Y-121824068D01*
X135374129Y-121848360D01*
X135413955Y-121881045D01*
X135446640Y-121920871D01*
X135470932Y-121966319D01*
X135485887Y-122015620D01*
X135491000Y-122067526D01*
X135491000Y-123042474D01*
X135485887Y-123094380D01*
X135470932Y-123143681D01*
X135446640Y-123189129D01*
X135413955Y-123228955D01*
X135374129Y-123261640D01*
X135328681Y-123285932D01*
X135279380Y-123300887D01*
X135227474Y-123306000D01*
X134677526Y-123306000D01*
X134625620Y-123300887D01*
X134576319Y-123285932D01*
X134530871Y-123261640D01*
X134491045Y-123228955D01*
X134458360Y-123189129D01*
X134434068Y-123143681D01*
X134419113Y-123094380D01*
X134414000Y-123042474D01*
X134414000Y-122067526D01*
X134419113Y-122015620D01*
X134434068Y-121966319D01*
X134458360Y-121920871D01*
X134491045Y-121881045D01*
X134530871Y-121848360D01*
X134576319Y-121824068D01*
X134625620Y-121809113D01*
X134677526Y-121804000D01*
X135227474Y-121804000D01*
X135279380Y-121809113D01*
X135279380Y-121809113D01*
G37*
G36*
X137154380Y-121809113D02*
G01*
X137203681Y-121824068D01*
X137249129Y-121848360D01*
X137288955Y-121881045D01*
X137321640Y-121920871D01*
X137345932Y-121966319D01*
X137360887Y-122015620D01*
X137366000Y-122067526D01*
X137366000Y-123042474D01*
X137360887Y-123094380D01*
X137345932Y-123143681D01*
X137321640Y-123189129D01*
X137288955Y-123228955D01*
X137249129Y-123261640D01*
X137203681Y-123285932D01*
X137154380Y-123300887D01*
X137102474Y-123306000D01*
X136552526Y-123306000D01*
X136500620Y-123300887D01*
X136451319Y-123285932D01*
X136405871Y-123261640D01*
X136366045Y-123228955D01*
X136333360Y-123189129D01*
X136309068Y-123143681D01*
X136294113Y-123094380D01*
X136289000Y-123042474D01*
X136289000Y-122067526D01*
X136294113Y-122015620D01*
X136309068Y-121966319D01*
X136333360Y-121920871D01*
X136366045Y-121881045D01*
X136405871Y-121848360D01*
X136451319Y-121824068D01*
X136500620Y-121809113D01*
X136552526Y-121804000D01*
X137102474Y-121804000D01*
X137154380Y-121809113D01*
X137154380Y-121809113D01*
G37*
G36*
X151306627Y-119762037D02*
G01*
X151476466Y-119813557D01*
X151632991Y-119897222D01*
X151632992Y-119897223D01*
X151632994Y-119897224D01*
X151770185Y-120009815D01*
X151857102Y-120115722D01*
X151882778Y-120147009D01*
X151966443Y-120303534D01*
X152017963Y-120473373D01*
X152035359Y-120650000D01*
X152017963Y-120826627D01*
X151966443Y-120996466D01*
X151891072Y-121137474D01*
X151882776Y-121152994D01*
X151770185Y-121290185D01*
X151632994Y-121402776D01*
X151632992Y-121402777D01*
X151632991Y-121402778D01*
X151476466Y-121486443D01*
X151306627Y-121537963D01*
X151174258Y-121551000D01*
X151085742Y-121551000D01*
X150953373Y-121537963D01*
X150783534Y-121486443D01*
X150627009Y-121402778D01*
X150627008Y-121402777D01*
X150627006Y-121402776D01*
X150489815Y-121290185D01*
X150377224Y-121152994D01*
X150368928Y-121137474D01*
X150293557Y-120996466D01*
X150242037Y-120826627D01*
X150224641Y-120650000D01*
X150242037Y-120473373D01*
X150293557Y-120303534D01*
X150377222Y-120147009D01*
X150402899Y-120115722D01*
X150489815Y-120009815D01*
X150627006Y-119897224D01*
X150627008Y-119897223D01*
X150627009Y-119897222D01*
X150783534Y-119813557D01*
X150953373Y-119762037D01*
X151085742Y-119749000D01*
X151174258Y-119749000D01*
X151306627Y-119762037D01*
X151306627Y-119762037D01*
G37*
G36*
X128446627Y-119762037D02*
G01*
X128616466Y-119813557D01*
X128772991Y-119897222D01*
X128772992Y-119897223D01*
X128772994Y-119897224D01*
X128910185Y-120009815D01*
X128997102Y-120115722D01*
X129022778Y-120147009D01*
X129106443Y-120303534D01*
X129157963Y-120473373D01*
X129175359Y-120650000D01*
X129157963Y-120826627D01*
X129106443Y-120996466D01*
X129031072Y-121137474D01*
X129022776Y-121152994D01*
X128910185Y-121290185D01*
X128772994Y-121402776D01*
X128772992Y-121402777D01*
X128772991Y-121402778D01*
X128616466Y-121486443D01*
X128446627Y-121537963D01*
X128314258Y-121551000D01*
X128225742Y-121551000D01*
X128093373Y-121537963D01*
X127923534Y-121486443D01*
X127767009Y-121402778D01*
X127767008Y-121402777D01*
X127767006Y-121402776D01*
X127629815Y-121290185D01*
X127517224Y-121152994D01*
X127508928Y-121137474D01*
X127433557Y-120996466D01*
X127382037Y-120826627D01*
X127364641Y-120650000D01*
X127382037Y-120473373D01*
X127433557Y-120303534D01*
X127517222Y-120147009D01*
X127542899Y-120115722D01*
X127629815Y-120009815D01*
X127767006Y-119897224D01*
X127767008Y-119897223D01*
X127767009Y-119897222D01*
X127923534Y-119813557D01*
X128093373Y-119762037D01*
X128225742Y-119749000D01*
X128314258Y-119749000D01*
X128446627Y-119762037D01*
X128446627Y-119762037D01*
G37*
G36*
X144677380Y-119904113D02*
G01*
X144726681Y-119919068D01*
X144772129Y-119943360D01*
X144811955Y-119976045D01*
X144844640Y-120015871D01*
X144868932Y-120061319D01*
X144883887Y-120110620D01*
X144889000Y-120162526D01*
X144889000Y-121137474D01*
X144883887Y-121189380D01*
X144868932Y-121238681D01*
X144844640Y-121284129D01*
X144811955Y-121323955D01*
X144772129Y-121356640D01*
X144726681Y-121380932D01*
X144677380Y-121395887D01*
X144625474Y-121401000D01*
X144075526Y-121401000D01*
X144023620Y-121395887D01*
X143974319Y-121380932D01*
X143928871Y-121356640D01*
X143889045Y-121323955D01*
X143856360Y-121284129D01*
X143832068Y-121238681D01*
X143817113Y-121189380D01*
X143812000Y-121137474D01*
X143812000Y-120162526D01*
X143817113Y-120110620D01*
X143832068Y-120061319D01*
X143856360Y-120015871D01*
X143889045Y-119976045D01*
X143928871Y-119943360D01*
X143974319Y-119919068D01*
X144023620Y-119904113D01*
X144075526Y-119899000D01*
X144625474Y-119899000D01*
X144677380Y-119904113D01*
X144677380Y-119904113D01*
G37*
G36*
X146552380Y-119904113D02*
G01*
X146601681Y-119919068D01*
X146647129Y-119943360D01*
X146686955Y-119976045D01*
X146719640Y-120015871D01*
X146743932Y-120061319D01*
X146758887Y-120110620D01*
X146764000Y-120162526D01*
X146764000Y-121137474D01*
X146758887Y-121189380D01*
X146743932Y-121238681D01*
X146719640Y-121284129D01*
X146686955Y-121323955D01*
X146647129Y-121356640D01*
X146601681Y-121380932D01*
X146552380Y-121395887D01*
X146500474Y-121401000D01*
X145950526Y-121401000D01*
X145898620Y-121395887D01*
X145849319Y-121380932D01*
X145803871Y-121356640D01*
X145764045Y-121323955D01*
X145731360Y-121284129D01*
X145707068Y-121238681D01*
X145692113Y-121189380D01*
X145687000Y-121137474D01*
X145687000Y-120162526D01*
X145692113Y-120110620D01*
X145707068Y-120061319D01*
X145731360Y-120015871D01*
X145764045Y-119976045D01*
X145803871Y-119943360D01*
X145849319Y-119919068D01*
X145898620Y-119904113D01*
X145950526Y-119899000D01*
X146500474Y-119899000D01*
X146552380Y-119904113D01*
X146552380Y-119904113D01*
G37*
G36*
X137154380Y-119904113D02*
G01*
X137203681Y-119919068D01*
X137249129Y-119943360D01*
X137288955Y-119976045D01*
X137321640Y-120015871D01*
X137345932Y-120061319D01*
X137360887Y-120110620D01*
X137366000Y-120162526D01*
X137366000Y-121137474D01*
X137360887Y-121189380D01*
X137345932Y-121238681D01*
X137321640Y-121284129D01*
X137288955Y-121323955D01*
X137249129Y-121356640D01*
X137203681Y-121380932D01*
X137154380Y-121395887D01*
X137102474Y-121401000D01*
X136552526Y-121401000D01*
X136500620Y-121395887D01*
X136451319Y-121380932D01*
X136405871Y-121356640D01*
X136366045Y-121323955D01*
X136333360Y-121284129D01*
X136309068Y-121238681D01*
X136294113Y-121189380D01*
X136289000Y-121137474D01*
X136289000Y-120162526D01*
X136294113Y-120110620D01*
X136309068Y-120061319D01*
X136333360Y-120015871D01*
X136366045Y-119976045D01*
X136405871Y-119943360D01*
X136451319Y-119919068D01*
X136500620Y-119904113D01*
X136552526Y-119899000D01*
X137102474Y-119899000D01*
X137154380Y-119904113D01*
X137154380Y-119904113D01*
G37*
G36*
X135279380Y-119904113D02*
G01*
X135328681Y-119919068D01*
X135374129Y-119943360D01*
X135413955Y-119976045D01*
X135446640Y-120015871D01*
X135470932Y-120061319D01*
X135485887Y-120110620D01*
X135491000Y-120162526D01*
X135491000Y-121137474D01*
X135485887Y-121189380D01*
X135470932Y-121238681D01*
X135446640Y-121284129D01*
X135413955Y-121323955D01*
X135374129Y-121356640D01*
X135328681Y-121380932D01*
X135279380Y-121395887D01*
X135227474Y-121401000D01*
X134677526Y-121401000D01*
X134625620Y-121395887D01*
X134576319Y-121380932D01*
X134530871Y-121356640D01*
X134491045Y-121323955D01*
X134458360Y-121284129D01*
X134434068Y-121238681D01*
X134419113Y-121189380D01*
X134414000Y-121137474D01*
X134414000Y-120162526D01*
X134419113Y-120110620D01*
X134434068Y-120061319D01*
X134458360Y-120015871D01*
X134491045Y-119976045D01*
X134530871Y-119943360D01*
X134576319Y-119919068D01*
X134625620Y-119904113D01*
X134677526Y-119899000D01*
X135227474Y-119899000D01*
X135279380Y-119904113D01*
X135279380Y-119904113D01*
G37*
G36*
X135279380Y-117999113D02*
G01*
X135328681Y-118014068D01*
X135374129Y-118038360D01*
X135413955Y-118071045D01*
X135446640Y-118110871D01*
X135470932Y-118156319D01*
X135485887Y-118205620D01*
X135491000Y-118257526D01*
X135491000Y-119232474D01*
X135485887Y-119284380D01*
X135470932Y-119333681D01*
X135446640Y-119379129D01*
X135413955Y-119418955D01*
X135374129Y-119451640D01*
X135328681Y-119475932D01*
X135279380Y-119490887D01*
X135227474Y-119496000D01*
X134677526Y-119496000D01*
X134625620Y-119490887D01*
X134576319Y-119475932D01*
X134530871Y-119451640D01*
X134491045Y-119418955D01*
X134458360Y-119379129D01*
X134434068Y-119333681D01*
X134419113Y-119284380D01*
X134414000Y-119232474D01*
X134414000Y-118257526D01*
X134419113Y-118205620D01*
X134434068Y-118156319D01*
X134458360Y-118110871D01*
X134491045Y-118071045D01*
X134530871Y-118038360D01*
X134576319Y-118014068D01*
X134625620Y-117999113D01*
X134677526Y-117994000D01*
X135227474Y-117994000D01*
X135279380Y-117999113D01*
X135279380Y-117999113D01*
G37*
G36*
X137154380Y-117999113D02*
G01*
X137203681Y-118014068D01*
X137249129Y-118038360D01*
X137288955Y-118071045D01*
X137321640Y-118110871D01*
X137345932Y-118156319D01*
X137360887Y-118205620D01*
X137366000Y-118257526D01*
X137366000Y-119232474D01*
X137360887Y-119284380D01*
X137345932Y-119333681D01*
X137321640Y-119379129D01*
X137288955Y-119418955D01*
X137249129Y-119451640D01*
X137203681Y-119475932D01*
X137154380Y-119490887D01*
X137102474Y-119496000D01*
X136552526Y-119496000D01*
X136500620Y-119490887D01*
X136451319Y-119475932D01*
X136405871Y-119451640D01*
X136366045Y-119418955D01*
X136333360Y-119379129D01*
X136309068Y-119333681D01*
X136294113Y-119284380D01*
X136289000Y-119232474D01*
X136289000Y-118257526D01*
X136294113Y-118205620D01*
X136309068Y-118156319D01*
X136333360Y-118110871D01*
X136366045Y-118071045D01*
X136405871Y-118038360D01*
X136451319Y-118014068D01*
X136500620Y-117999113D01*
X136552526Y-117994000D01*
X137102474Y-117994000D01*
X137154380Y-117999113D01*
X137154380Y-117999113D01*
G37*
G36*
X151306627Y-117222037D02*
G01*
X151476466Y-117273557D01*
X151632991Y-117357222D01*
X151632992Y-117357223D01*
X151632994Y-117357224D01*
X151770185Y-117469815D01*
X151780751Y-117482689D01*
X151882778Y-117607009D01*
X151966443Y-117763534D01*
X152017963Y-117933373D01*
X152035359Y-118110000D01*
X152017963Y-118286627D01*
X151966443Y-118456466D01*
X151882778Y-118612991D01*
X151882776Y-118612994D01*
X151770185Y-118750185D01*
X151632994Y-118862776D01*
X151632992Y-118862777D01*
X151632991Y-118862778D01*
X151476466Y-118946443D01*
X151306627Y-118997963D01*
X151174258Y-119011000D01*
X151085742Y-119011000D01*
X150953373Y-118997963D01*
X150783534Y-118946443D01*
X150627009Y-118862778D01*
X150627008Y-118862777D01*
X150627006Y-118862776D01*
X150489815Y-118750185D01*
X150377224Y-118612994D01*
X150377222Y-118612991D01*
X150293557Y-118456466D01*
X150242037Y-118286627D01*
X150224641Y-118110000D01*
X150242037Y-117933373D01*
X150293557Y-117763534D01*
X150377222Y-117607009D01*
X150479250Y-117482689D01*
X150489815Y-117469815D01*
X150627006Y-117357224D01*
X150627008Y-117357223D01*
X150627009Y-117357222D01*
X150783534Y-117273557D01*
X150953373Y-117222037D01*
X151085742Y-117209000D01*
X151174258Y-117209000D01*
X151306627Y-117222037D01*
X151306627Y-117222037D01*
G37*
G36*
X128446627Y-117222037D02*
G01*
X128616466Y-117273557D01*
X128772991Y-117357222D01*
X128772992Y-117357223D01*
X128772994Y-117357224D01*
X128910185Y-117469815D01*
X128920751Y-117482689D01*
X129022778Y-117607009D01*
X129106443Y-117763534D01*
X129157963Y-117933373D01*
X129175359Y-118110000D01*
X129157963Y-118286627D01*
X129106443Y-118456466D01*
X129022778Y-118612991D01*
X129022776Y-118612994D01*
X128910185Y-118750185D01*
X128772994Y-118862776D01*
X128772992Y-118862777D01*
X128772991Y-118862778D01*
X128616466Y-118946443D01*
X128446627Y-118997963D01*
X128314258Y-119011000D01*
X128225742Y-119011000D01*
X128093373Y-118997963D01*
X127923534Y-118946443D01*
X127767009Y-118862778D01*
X127767008Y-118862777D01*
X127767006Y-118862776D01*
X127629815Y-118750185D01*
X127517224Y-118612994D01*
X127517222Y-118612991D01*
X127433557Y-118456466D01*
X127382037Y-118286627D01*
X127364641Y-118110000D01*
X127382037Y-117933373D01*
X127433557Y-117763534D01*
X127517222Y-117607009D01*
X127619250Y-117482689D01*
X127629815Y-117469815D01*
X127767006Y-117357224D01*
X127767008Y-117357223D01*
X127767009Y-117357222D01*
X127923534Y-117273557D01*
X128093373Y-117222037D01*
X128225742Y-117209000D01*
X128314258Y-117209000D01*
X128446627Y-117222037D01*
X128446627Y-117222037D01*
G37*
G36*
X147436000Y-118711000D02*
G01*
X145934000Y-118711000D01*
X145934000Y-117509000D01*
X147436000Y-117509000D01*
X147436000Y-118711000D01*
X147436000Y-118711000D01*
G37*
G36*
X144359840Y-115337311D02*
G01*
X144391559Y-115346932D01*
X144420787Y-115362555D01*
X144446414Y-115383586D01*
X144467445Y-115409213D01*
X144483068Y-115438441D01*
X144492689Y-115470160D01*
X144496000Y-115503776D01*
X144496000Y-117316224D01*
X144492689Y-117349840D01*
X144483068Y-117381559D01*
X144467445Y-117410787D01*
X144446414Y-117436414D01*
X144420787Y-117457445D01*
X144391559Y-117473068D01*
X144359840Y-117482689D01*
X144326224Y-117486000D01*
X143963776Y-117486000D01*
X143930160Y-117482689D01*
X143898441Y-117473068D01*
X143869213Y-117457445D01*
X143843586Y-117436414D01*
X143822555Y-117410787D01*
X143806932Y-117381559D01*
X143797311Y-117349840D01*
X143794000Y-117316224D01*
X143794000Y-115503776D01*
X143797311Y-115470160D01*
X143806932Y-115438441D01*
X143822555Y-115409213D01*
X143843586Y-115383586D01*
X143869213Y-115362555D01*
X143898441Y-115346932D01*
X143930160Y-115337311D01*
X143963776Y-115334000D01*
X144326224Y-115334000D01*
X144359840Y-115337311D01*
X144359840Y-115337311D01*
G37*
G36*
X143089840Y-115337311D02*
G01*
X143121559Y-115346932D01*
X143150787Y-115362555D01*
X143176414Y-115383586D01*
X143197445Y-115409213D01*
X143213068Y-115438441D01*
X143222689Y-115470160D01*
X143226000Y-115503776D01*
X143226000Y-117316224D01*
X143222689Y-117349840D01*
X143213068Y-117381559D01*
X143197445Y-117410787D01*
X143176414Y-117436414D01*
X143150787Y-117457445D01*
X143121559Y-117473068D01*
X143089840Y-117482689D01*
X143056224Y-117486000D01*
X142693776Y-117486000D01*
X142660160Y-117482689D01*
X142628441Y-117473068D01*
X142599213Y-117457445D01*
X142573586Y-117436414D01*
X142552555Y-117410787D01*
X142536932Y-117381559D01*
X142527311Y-117349840D01*
X142524000Y-117316224D01*
X142524000Y-115503776D01*
X142527311Y-115470160D01*
X142536932Y-115438441D01*
X142552555Y-115409213D01*
X142573586Y-115383586D01*
X142599213Y-115362555D01*
X142628441Y-115346932D01*
X142660160Y-115337311D01*
X142693776Y-115334000D01*
X143056224Y-115334000D01*
X143089840Y-115337311D01*
X143089840Y-115337311D01*
G37*
G36*
X136739840Y-115337311D02*
G01*
X136771559Y-115346932D01*
X136800787Y-115362555D01*
X136826414Y-115383586D01*
X136847445Y-115409213D01*
X136863068Y-115438441D01*
X136872689Y-115470160D01*
X136876000Y-115503776D01*
X136876000Y-117316224D01*
X136872689Y-117349840D01*
X136863068Y-117381559D01*
X136847445Y-117410787D01*
X136826414Y-117436414D01*
X136800787Y-117457445D01*
X136771559Y-117473068D01*
X136739840Y-117482689D01*
X136706224Y-117486000D01*
X136343776Y-117486000D01*
X136310160Y-117482689D01*
X136278441Y-117473068D01*
X136249213Y-117457445D01*
X136223586Y-117436414D01*
X136202555Y-117410787D01*
X136186932Y-117381559D01*
X136177311Y-117349840D01*
X136174000Y-117316224D01*
X136174000Y-115503776D01*
X136177311Y-115470160D01*
X136186932Y-115438441D01*
X136202555Y-115409213D01*
X136223586Y-115383586D01*
X136249213Y-115362555D01*
X136278441Y-115346932D01*
X136310160Y-115337311D01*
X136343776Y-115334000D01*
X136706224Y-115334000D01*
X136739840Y-115337311D01*
X136739840Y-115337311D01*
G37*
G36*
X139279840Y-115337311D02*
G01*
X139311559Y-115346932D01*
X139340787Y-115362555D01*
X139366414Y-115383586D01*
X139387445Y-115409213D01*
X139403068Y-115438441D01*
X139412689Y-115470160D01*
X139416000Y-115503776D01*
X139416000Y-117316224D01*
X139412689Y-117349840D01*
X139403068Y-117381559D01*
X139387445Y-117410787D01*
X139366414Y-117436414D01*
X139340787Y-117457445D01*
X139311559Y-117473068D01*
X139279840Y-117482689D01*
X139246224Y-117486000D01*
X138883776Y-117486000D01*
X138850160Y-117482689D01*
X138818441Y-117473068D01*
X138789213Y-117457445D01*
X138763586Y-117436414D01*
X138742555Y-117410787D01*
X138726932Y-117381559D01*
X138717311Y-117349840D01*
X138714000Y-117316224D01*
X138714000Y-115503776D01*
X138717311Y-115470160D01*
X138726932Y-115438441D01*
X138742555Y-115409213D01*
X138763586Y-115383586D01*
X138789213Y-115362555D01*
X138818441Y-115346932D01*
X138850160Y-115337311D01*
X138883776Y-115334000D01*
X139246224Y-115334000D01*
X139279840Y-115337311D01*
X139279840Y-115337311D01*
G37*
G36*
X138009840Y-115337311D02*
G01*
X138041559Y-115346932D01*
X138070787Y-115362555D01*
X138096414Y-115383586D01*
X138117445Y-115409213D01*
X138133068Y-115438441D01*
X138142689Y-115470160D01*
X138146000Y-115503776D01*
X138146000Y-117316224D01*
X138142689Y-117349840D01*
X138133068Y-117381559D01*
X138117445Y-117410787D01*
X138096414Y-117436414D01*
X138070787Y-117457445D01*
X138041559Y-117473068D01*
X138009840Y-117482689D01*
X137976224Y-117486000D01*
X137613776Y-117486000D01*
X137580160Y-117482689D01*
X137548441Y-117473068D01*
X137519213Y-117457445D01*
X137493586Y-117436414D01*
X137472555Y-117410787D01*
X137456932Y-117381559D01*
X137447311Y-117349840D01*
X137444000Y-117316224D01*
X137444000Y-115503776D01*
X137447311Y-115470160D01*
X137456932Y-115438441D01*
X137472555Y-115409213D01*
X137493586Y-115383586D01*
X137519213Y-115362555D01*
X137548441Y-115346932D01*
X137580160Y-115337311D01*
X137613776Y-115334000D01*
X137976224Y-115334000D01*
X138009840Y-115337311D01*
X138009840Y-115337311D01*
G37*
G36*
X141819840Y-115337311D02*
G01*
X141851559Y-115346932D01*
X141880787Y-115362555D01*
X141906414Y-115383586D01*
X141927445Y-115409213D01*
X141943068Y-115438441D01*
X141952689Y-115470160D01*
X141956000Y-115503776D01*
X141956000Y-117316224D01*
X141952689Y-117349840D01*
X141943068Y-117381559D01*
X141927445Y-117410787D01*
X141906414Y-117436414D01*
X141880787Y-117457445D01*
X141851559Y-117473068D01*
X141819840Y-117482689D01*
X141786224Y-117486000D01*
X141423776Y-117486000D01*
X141390160Y-117482689D01*
X141358441Y-117473068D01*
X141329213Y-117457445D01*
X141303586Y-117436414D01*
X141282555Y-117410787D01*
X141266932Y-117381559D01*
X141257311Y-117349840D01*
X141254000Y-117316224D01*
X141254000Y-115503776D01*
X141257311Y-115470160D01*
X141266932Y-115438441D01*
X141282555Y-115409213D01*
X141303586Y-115383586D01*
X141329213Y-115362555D01*
X141358441Y-115346932D01*
X141390160Y-115337311D01*
X141423776Y-115334000D01*
X141786224Y-115334000D01*
X141819840Y-115337311D01*
X141819840Y-115337311D01*
G37*
G36*
X135469840Y-115337311D02*
G01*
X135501559Y-115346932D01*
X135530787Y-115362555D01*
X135556414Y-115383586D01*
X135577445Y-115409213D01*
X135593068Y-115438441D01*
X135602689Y-115470160D01*
X135606000Y-115503776D01*
X135606000Y-117316224D01*
X135602689Y-117349840D01*
X135593068Y-117381559D01*
X135577445Y-117410787D01*
X135556414Y-117436414D01*
X135530787Y-117457445D01*
X135501559Y-117473068D01*
X135469840Y-117482689D01*
X135436224Y-117486000D01*
X135073776Y-117486000D01*
X135040160Y-117482689D01*
X135008441Y-117473068D01*
X134979213Y-117457445D01*
X134953586Y-117436414D01*
X134932555Y-117410787D01*
X134916932Y-117381559D01*
X134907311Y-117349840D01*
X134904000Y-117316224D01*
X134904000Y-115503776D01*
X134907311Y-115470160D01*
X134916932Y-115438441D01*
X134932555Y-115409213D01*
X134953586Y-115383586D01*
X134979213Y-115362555D01*
X135008441Y-115346932D01*
X135040160Y-115337311D01*
X135073776Y-115334000D01*
X135436224Y-115334000D01*
X135469840Y-115337311D01*
X135469840Y-115337311D01*
G37*
G36*
X140549840Y-115337311D02*
G01*
X140581559Y-115346932D01*
X140610787Y-115362555D01*
X140636414Y-115383586D01*
X140657445Y-115409213D01*
X140673068Y-115438441D01*
X140682689Y-115470160D01*
X140686000Y-115503776D01*
X140686000Y-117316224D01*
X140682689Y-117349840D01*
X140673068Y-117381559D01*
X140657445Y-117410787D01*
X140636414Y-117436414D01*
X140610787Y-117457445D01*
X140581559Y-117473068D01*
X140549840Y-117482689D01*
X140516224Y-117486000D01*
X140153776Y-117486000D01*
X140120160Y-117482689D01*
X140088441Y-117473068D01*
X140059213Y-117457445D01*
X140033586Y-117436414D01*
X140012555Y-117410787D01*
X139996932Y-117381559D01*
X139987311Y-117349840D01*
X139984000Y-117316224D01*
X139984000Y-115503776D01*
X139987311Y-115470160D01*
X139996932Y-115438441D01*
X140012555Y-115409213D01*
X140033586Y-115383586D01*
X140059213Y-115362555D01*
X140088441Y-115346932D01*
X140120160Y-115337311D01*
X140153776Y-115334000D01*
X140516224Y-115334000D01*
X140549840Y-115337311D01*
X140549840Y-115337311D01*
G37*
G36*
X147436000Y-116961000D02*
G01*
X145934000Y-116961000D01*
X145934000Y-115759000D01*
X147436000Y-115759000D01*
X147436000Y-116961000D01*
X147436000Y-116961000D01*
G37*
G36*
X128446627Y-114682037D02*
G01*
X128616466Y-114733557D01*
X128772991Y-114817222D01*
X128772992Y-114817223D01*
X128772994Y-114817224D01*
X128910185Y-114929815D01*
X129022778Y-115067009D01*
X129106443Y-115223534D01*
X129157963Y-115393373D01*
X129175359Y-115570000D01*
X129157963Y-115746627D01*
X129106443Y-115916466D01*
X129022778Y-116072991D01*
X129022776Y-116072994D01*
X128910185Y-116210185D01*
X128772994Y-116322776D01*
X128772992Y-116322777D01*
X128772991Y-116322778D01*
X128616466Y-116406443D01*
X128446627Y-116457963D01*
X128314258Y-116471000D01*
X128225742Y-116471000D01*
X128093373Y-116457963D01*
X127923534Y-116406443D01*
X127767009Y-116322778D01*
X127767008Y-116322777D01*
X127767006Y-116322776D01*
X127629815Y-116210185D01*
X127517224Y-116072994D01*
X127517222Y-116072991D01*
X127433557Y-115916466D01*
X127382037Y-115746627D01*
X127364641Y-115570000D01*
X127382037Y-115393373D01*
X127433557Y-115223534D01*
X127517222Y-115067009D01*
X127629815Y-114929815D01*
X127767006Y-114817224D01*
X127767008Y-114817223D01*
X127767009Y-114817222D01*
X127923534Y-114733557D01*
X128093373Y-114682037D01*
X128225742Y-114669000D01*
X128314258Y-114669000D01*
X128446627Y-114682037D01*
X128446627Y-114682037D01*
G37*
G36*
X151306627Y-114682037D02*
G01*
X151476466Y-114733557D01*
X151632991Y-114817222D01*
X151632992Y-114817223D01*
X151632994Y-114817224D01*
X151770185Y-114929815D01*
X151882778Y-115067009D01*
X151966443Y-115223534D01*
X152017963Y-115393373D01*
X152035359Y-115570000D01*
X152017963Y-115746627D01*
X151966443Y-115916466D01*
X151882778Y-116072991D01*
X151882776Y-116072994D01*
X151770185Y-116210185D01*
X151632994Y-116322776D01*
X151632992Y-116322777D01*
X151632991Y-116322778D01*
X151476466Y-116406443D01*
X151306627Y-116457963D01*
X151174258Y-116471000D01*
X151085742Y-116471000D01*
X150953373Y-116457963D01*
X150783534Y-116406443D01*
X150627009Y-116322778D01*
X150627008Y-116322777D01*
X150627006Y-116322776D01*
X150489815Y-116210185D01*
X150377224Y-116072994D01*
X150377222Y-116072991D01*
X150293557Y-115916466D01*
X150242037Y-115746627D01*
X150224641Y-115570000D01*
X150242037Y-115393373D01*
X150293557Y-115223534D01*
X150377222Y-115067009D01*
X150489815Y-114929815D01*
X150627006Y-114817224D01*
X150627008Y-114817223D01*
X150627009Y-114817222D01*
X150783534Y-114733557D01*
X150953373Y-114682037D01*
X151085742Y-114669000D01*
X151174258Y-114669000D01*
X151306627Y-114682037D01*
X151306627Y-114682037D01*
G37*
G36*
X128446627Y-112142037D02*
G01*
X128616466Y-112193557D01*
X128772991Y-112277222D01*
X128772992Y-112277223D01*
X128772994Y-112277224D01*
X128910185Y-112389815D01*
X129022778Y-112527009D01*
X129106443Y-112683534D01*
X129157963Y-112853373D01*
X129175359Y-113030000D01*
X129157963Y-113206627D01*
X129106443Y-113376466D01*
X129022778Y-113532991D01*
X129022776Y-113532994D01*
X128910185Y-113670185D01*
X128772994Y-113782776D01*
X128772992Y-113782777D01*
X128772991Y-113782778D01*
X128616466Y-113866443D01*
X128446627Y-113917963D01*
X128314258Y-113931000D01*
X128225742Y-113931000D01*
X128093373Y-113917963D01*
X127923534Y-113866443D01*
X127767009Y-113782778D01*
X127767008Y-113782777D01*
X127767006Y-113782776D01*
X127629815Y-113670185D01*
X127517224Y-113532994D01*
X127517222Y-113532991D01*
X127433557Y-113376466D01*
X127382037Y-113206627D01*
X127364641Y-113030000D01*
X127382037Y-112853373D01*
X127433557Y-112683534D01*
X127517222Y-112527009D01*
X127629815Y-112389815D01*
X127767006Y-112277224D01*
X127767008Y-112277223D01*
X127767009Y-112277222D01*
X127923534Y-112193557D01*
X128093373Y-112142037D01*
X128225742Y-112129000D01*
X128314258Y-112129000D01*
X128446627Y-112142037D01*
X128446627Y-112142037D01*
G37*
G36*
X151306627Y-112142037D02*
G01*
X151476466Y-112193557D01*
X151632991Y-112277222D01*
X151632992Y-112277223D01*
X151632994Y-112277224D01*
X151770185Y-112389815D01*
X151882778Y-112527009D01*
X151966443Y-112683534D01*
X152017963Y-112853373D01*
X152035359Y-113030000D01*
X152017963Y-113206627D01*
X151966443Y-113376466D01*
X151882778Y-113532991D01*
X151882776Y-113532994D01*
X151770185Y-113670185D01*
X151632994Y-113782776D01*
X151632992Y-113782777D01*
X151632991Y-113782778D01*
X151476466Y-113866443D01*
X151306627Y-113917963D01*
X151174258Y-113931000D01*
X151085742Y-113931000D01*
X150953373Y-113917963D01*
X150783534Y-113866443D01*
X150627009Y-113782778D01*
X150627008Y-113782777D01*
X150627006Y-113782776D01*
X150489815Y-113670185D01*
X150377224Y-113532994D01*
X150377222Y-113532991D01*
X150293557Y-113376466D01*
X150242037Y-113206627D01*
X150224641Y-113030000D01*
X150242037Y-112853373D01*
X150293557Y-112683534D01*
X150377222Y-112527009D01*
X150489815Y-112389815D01*
X150627006Y-112277224D01*
X150627008Y-112277223D01*
X150627009Y-112277222D01*
X150783534Y-112193557D01*
X150953373Y-112142037D01*
X151085742Y-112129000D01*
X151174258Y-112129000D01*
X151306627Y-112142037D01*
X151306627Y-112142037D01*
G37*
G36*
X151306627Y-109602037D02*
G01*
X151476466Y-109653557D01*
X151632991Y-109737222D01*
X151632992Y-109737223D01*
X151632994Y-109737224D01*
X151770185Y-109849815D01*
X151882778Y-109987009D01*
X151966443Y-110143534D01*
X152017963Y-110313373D01*
X152035359Y-110490000D01*
X152017963Y-110666627D01*
X151966443Y-110836466D01*
X151882778Y-110992991D01*
X151882776Y-110992994D01*
X151770185Y-111130185D01*
X151632994Y-111242776D01*
X151632992Y-111242777D01*
X151632991Y-111242778D01*
X151476466Y-111326443D01*
X151306627Y-111377963D01*
X151174258Y-111391000D01*
X151085742Y-111391000D01*
X150953373Y-111377963D01*
X150783534Y-111326443D01*
X150627009Y-111242778D01*
X150627008Y-111242777D01*
X150627006Y-111242776D01*
X150489815Y-111130185D01*
X150377224Y-110992994D01*
X150377222Y-110992991D01*
X150293557Y-110836466D01*
X150242037Y-110666627D01*
X150224641Y-110490000D01*
X150242037Y-110313373D01*
X150293557Y-110143534D01*
X150377222Y-109987009D01*
X150489815Y-109849815D01*
X150627006Y-109737224D01*
X150627008Y-109737223D01*
X150627009Y-109737222D01*
X150783534Y-109653557D01*
X150953373Y-109602037D01*
X151085742Y-109589000D01*
X151174258Y-109589000D01*
X151306627Y-109602037D01*
X151306627Y-109602037D01*
G37*
G36*
X128446627Y-109602037D02*
G01*
X128616466Y-109653557D01*
X128772991Y-109737222D01*
X128772992Y-109737223D01*
X128772994Y-109737224D01*
X128910185Y-109849815D01*
X129022778Y-109987009D01*
X129106443Y-110143534D01*
X129157963Y-110313373D01*
X129175359Y-110490000D01*
X129157963Y-110666627D01*
X129106443Y-110836466D01*
X129022778Y-110992991D01*
X129022776Y-110992994D01*
X128910185Y-111130185D01*
X128772994Y-111242776D01*
X128772992Y-111242777D01*
X128772991Y-111242778D01*
X128616466Y-111326443D01*
X128446627Y-111377963D01*
X128314258Y-111391000D01*
X128225742Y-111391000D01*
X128093373Y-111377963D01*
X127923534Y-111326443D01*
X127767009Y-111242778D01*
X127767008Y-111242777D01*
X127767006Y-111242776D01*
X127629815Y-111130185D01*
X127517224Y-110992994D01*
X127517222Y-110992991D01*
X127433557Y-110836466D01*
X127382037Y-110666627D01*
X127364641Y-110490000D01*
X127382037Y-110313373D01*
X127433557Y-110143534D01*
X127517222Y-109987009D01*
X127629815Y-109849815D01*
X127767006Y-109737224D01*
X127767008Y-109737223D01*
X127767009Y-109737222D01*
X127923534Y-109653557D01*
X128093373Y-109602037D01*
X128225742Y-109589000D01*
X128314258Y-109589000D01*
X128446627Y-109602037D01*
X128446627Y-109602037D01*
G37*
G36*
X151306627Y-107062037D02*
G01*
X151476466Y-107113557D01*
X151632991Y-107197222D01*
X151632992Y-107197223D01*
X151632994Y-107197224D01*
X151770185Y-107309815D01*
X151882778Y-107447009D01*
X151966443Y-107603534D01*
X152017963Y-107773373D01*
X152035359Y-107950000D01*
X152017963Y-108126627D01*
X151966443Y-108296466D01*
X151882778Y-108452991D01*
X151882776Y-108452994D01*
X151770185Y-108590185D01*
X151632994Y-108702776D01*
X151632992Y-108702777D01*
X151632991Y-108702778D01*
X151476466Y-108786443D01*
X151306627Y-108837963D01*
X151174258Y-108851000D01*
X151085742Y-108851000D01*
X150953373Y-108837963D01*
X150783534Y-108786443D01*
X150627009Y-108702778D01*
X150627008Y-108702777D01*
X150627006Y-108702776D01*
X150489815Y-108590185D01*
X150377224Y-108452994D01*
X150377222Y-108452991D01*
X150293557Y-108296466D01*
X150242037Y-108126627D01*
X150224641Y-107950000D01*
X150242037Y-107773373D01*
X150293557Y-107603534D01*
X150377222Y-107447009D01*
X150489815Y-107309815D01*
X150627006Y-107197224D01*
X150627008Y-107197223D01*
X150627009Y-107197222D01*
X150783534Y-107113557D01*
X150953373Y-107062037D01*
X151085742Y-107049000D01*
X151174258Y-107049000D01*
X151306627Y-107062037D01*
X151306627Y-107062037D01*
G37*
G36*
X128446627Y-107062037D02*
G01*
X128616466Y-107113557D01*
X128772991Y-107197222D01*
X128772992Y-107197223D01*
X128772994Y-107197224D01*
X128910185Y-107309815D01*
X129022778Y-107447009D01*
X129106443Y-107603534D01*
X129157963Y-107773373D01*
X129175359Y-107950000D01*
X129157963Y-108126627D01*
X129106443Y-108296466D01*
X129022778Y-108452991D01*
X129022776Y-108452994D01*
X128910185Y-108590185D01*
X128772994Y-108702776D01*
X128772992Y-108702777D01*
X128772991Y-108702778D01*
X128616466Y-108786443D01*
X128446627Y-108837963D01*
X128314258Y-108851000D01*
X128225742Y-108851000D01*
X128093373Y-108837963D01*
X127923534Y-108786443D01*
X127767009Y-108702778D01*
X127767008Y-108702777D01*
X127767006Y-108702776D01*
X127629815Y-108590185D01*
X127517224Y-108452994D01*
X127517222Y-108452991D01*
X127433557Y-108296466D01*
X127382037Y-108126627D01*
X127364641Y-107950000D01*
X127382037Y-107773373D01*
X127433557Y-107603534D01*
X127517222Y-107447009D01*
X127629815Y-107309815D01*
X127767006Y-107197224D01*
X127767008Y-107197223D01*
X127767009Y-107197222D01*
X127923534Y-107113557D01*
X128093373Y-107062037D01*
X128225742Y-107049000D01*
X128314258Y-107049000D01*
X128446627Y-107062037D01*
X128446627Y-107062037D01*
G37*
G36*
X139279840Y-106037311D02*
G01*
X139311559Y-106046932D01*
X139340787Y-106062555D01*
X139366414Y-106083586D01*
X139387445Y-106109213D01*
X139403068Y-106138441D01*
X139412689Y-106170160D01*
X139416000Y-106203776D01*
X139416000Y-108016224D01*
X139412689Y-108049840D01*
X139403068Y-108081559D01*
X139387445Y-108110787D01*
X139366414Y-108136414D01*
X139340787Y-108157445D01*
X139311559Y-108173068D01*
X139279840Y-108182689D01*
X139246224Y-108186000D01*
X138883776Y-108186000D01*
X138850160Y-108182689D01*
X138818441Y-108173068D01*
X138789213Y-108157445D01*
X138763586Y-108136414D01*
X138742555Y-108110787D01*
X138726932Y-108081559D01*
X138717311Y-108049840D01*
X138714000Y-108016224D01*
X138714000Y-106203776D01*
X138717311Y-106170160D01*
X138726932Y-106138441D01*
X138742555Y-106109213D01*
X138763586Y-106083586D01*
X138789213Y-106062555D01*
X138818441Y-106046932D01*
X138850160Y-106037311D01*
X138883776Y-106034000D01*
X139246224Y-106034000D01*
X139279840Y-106037311D01*
X139279840Y-106037311D01*
G37*
G36*
X135469840Y-106037311D02*
G01*
X135501559Y-106046932D01*
X135530787Y-106062555D01*
X135556414Y-106083586D01*
X135577445Y-106109213D01*
X135593068Y-106138441D01*
X135602689Y-106170160D01*
X135606000Y-106203776D01*
X135606000Y-108016224D01*
X135602689Y-108049840D01*
X135593068Y-108081559D01*
X135577445Y-108110787D01*
X135556414Y-108136414D01*
X135530787Y-108157445D01*
X135501559Y-108173068D01*
X135469840Y-108182689D01*
X135436224Y-108186000D01*
X135073776Y-108186000D01*
X135040160Y-108182689D01*
X135008441Y-108173068D01*
X134979213Y-108157445D01*
X134953586Y-108136414D01*
X134932555Y-108110787D01*
X134916932Y-108081559D01*
X134907311Y-108049840D01*
X134904000Y-108016224D01*
X134904000Y-106203776D01*
X134907311Y-106170160D01*
X134916932Y-106138441D01*
X134932555Y-106109213D01*
X134953586Y-106083586D01*
X134979213Y-106062555D01*
X135008441Y-106046932D01*
X135040160Y-106037311D01*
X135073776Y-106034000D01*
X135436224Y-106034000D01*
X135469840Y-106037311D01*
X135469840Y-106037311D01*
G37*
G36*
X144359840Y-106037311D02*
G01*
X144391559Y-106046932D01*
X144420787Y-106062555D01*
X144446414Y-106083586D01*
X144467445Y-106109213D01*
X144483068Y-106138441D01*
X144492689Y-106170160D01*
X144496000Y-106203776D01*
X144496000Y-108016224D01*
X144492689Y-108049840D01*
X144483068Y-108081559D01*
X144467445Y-108110787D01*
X144446414Y-108136414D01*
X144420787Y-108157445D01*
X144391559Y-108173068D01*
X144359840Y-108182689D01*
X144326224Y-108186000D01*
X143963776Y-108186000D01*
X143930160Y-108182689D01*
X143898441Y-108173068D01*
X143869213Y-108157445D01*
X143843586Y-108136414D01*
X143822555Y-108110787D01*
X143806932Y-108081559D01*
X143797311Y-108049840D01*
X143794000Y-108016224D01*
X143794000Y-106203776D01*
X143797311Y-106170160D01*
X143806932Y-106138441D01*
X143822555Y-106109213D01*
X143843586Y-106083586D01*
X143869213Y-106062555D01*
X143898441Y-106046932D01*
X143930160Y-106037311D01*
X143963776Y-106034000D01*
X144326224Y-106034000D01*
X144359840Y-106037311D01*
X144359840Y-106037311D01*
G37*
G36*
X136739840Y-106037311D02*
G01*
X136771559Y-106046932D01*
X136800787Y-106062555D01*
X136826414Y-106083586D01*
X136847445Y-106109213D01*
X136863068Y-106138441D01*
X136872689Y-106170160D01*
X136876000Y-106203776D01*
X136876000Y-108016224D01*
X136872689Y-108049840D01*
X136863068Y-108081559D01*
X136847445Y-108110787D01*
X136826414Y-108136414D01*
X136800787Y-108157445D01*
X136771559Y-108173068D01*
X136739840Y-108182689D01*
X136706224Y-108186000D01*
X136343776Y-108186000D01*
X136310160Y-108182689D01*
X136278441Y-108173068D01*
X136249213Y-108157445D01*
X136223586Y-108136414D01*
X136202555Y-108110787D01*
X136186932Y-108081559D01*
X136177311Y-108049840D01*
X136174000Y-108016224D01*
X136174000Y-106203776D01*
X136177311Y-106170160D01*
X136186932Y-106138441D01*
X136202555Y-106109213D01*
X136223586Y-106083586D01*
X136249213Y-106062555D01*
X136278441Y-106046932D01*
X136310160Y-106037311D01*
X136343776Y-106034000D01*
X136706224Y-106034000D01*
X136739840Y-106037311D01*
X136739840Y-106037311D01*
G37*
G36*
X138009840Y-106037311D02*
G01*
X138041559Y-106046932D01*
X138070787Y-106062555D01*
X138096414Y-106083586D01*
X138117445Y-106109213D01*
X138133068Y-106138441D01*
X138142689Y-106170160D01*
X138146000Y-106203776D01*
X138146000Y-108016224D01*
X138142689Y-108049840D01*
X138133068Y-108081559D01*
X138117445Y-108110787D01*
X138096414Y-108136414D01*
X138070787Y-108157445D01*
X138041559Y-108173068D01*
X138009840Y-108182689D01*
X137976224Y-108186000D01*
X137613776Y-108186000D01*
X137580160Y-108182689D01*
X137548441Y-108173068D01*
X137519213Y-108157445D01*
X137493586Y-108136414D01*
X137472555Y-108110787D01*
X137456932Y-108081559D01*
X137447311Y-108049840D01*
X137444000Y-108016224D01*
X137444000Y-106203776D01*
X137447311Y-106170160D01*
X137456932Y-106138441D01*
X137472555Y-106109213D01*
X137493586Y-106083586D01*
X137519213Y-106062555D01*
X137548441Y-106046932D01*
X137580160Y-106037311D01*
X137613776Y-106034000D01*
X137976224Y-106034000D01*
X138009840Y-106037311D01*
X138009840Y-106037311D01*
G37*
G36*
X140549840Y-106037311D02*
G01*
X140581559Y-106046932D01*
X140610787Y-106062555D01*
X140636414Y-106083586D01*
X140657445Y-106109213D01*
X140673068Y-106138441D01*
X140682689Y-106170160D01*
X140686000Y-106203776D01*
X140686000Y-108016224D01*
X140682689Y-108049840D01*
X140673068Y-108081559D01*
X140657445Y-108110787D01*
X140636414Y-108136414D01*
X140610787Y-108157445D01*
X140581559Y-108173068D01*
X140549840Y-108182689D01*
X140516224Y-108186000D01*
X140153776Y-108186000D01*
X140120160Y-108182689D01*
X140088441Y-108173068D01*
X140059213Y-108157445D01*
X140033586Y-108136414D01*
X140012555Y-108110787D01*
X139996932Y-108081559D01*
X139987311Y-108049840D01*
X139984000Y-108016224D01*
X139984000Y-106203776D01*
X139987311Y-106170160D01*
X139996932Y-106138441D01*
X140012555Y-106109213D01*
X140033586Y-106083586D01*
X140059213Y-106062555D01*
X140088441Y-106046932D01*
X140120160Y-106037311D01*
X140153776Y-106034000D01*
X140516224Y-106034000D01*
X140549840Y-106037311D01*
X140549840Y-106037311D01*
G37*
G36*
X141819840Y-106037311D02*
G01*
X141851559Y-106046932D01*
X141880787Y-106062555D01*
X141906414Y-106083586D01*
X141927445Y-106109213D01*
X141943068Y-106138441D01*
X141952689Y-106170160D01*
X141956000Y-106203776D01*
X141956000Y-108016224D01*
X141952689Y-108049840D01*
X141943068Y-108081559D01*
X141927445Y-108110787D01*
X141906414Y-108136414D01*
X141880787Y-108157445D01*
X141851559Y-108173068D01*
X141819840Y-108182689D01*
X141786224Y-108186000D01*
X141423776Y-108186000D01*
X141390160Y-108182689D01*
X141358441Y-108173068D01*
X141329213Y-108157445D01*
X141303586Y-108136414D01*
X141282555Y-108110787D01*
X141266932Y-108081559D01*
X141257311Y-108049840D01*
X141254000Y-108016224D01*
X141254000Y-106203776D01*
X141257311Y-106170160D01*
X141266932Y-106138441D01*
X141282555Y-106109213D01*
X141303586Y-106083586D01*
X141329213Y-106062555D01*
X141358441Y-106046932D01*
X141390160Y-106037311D01*
X141423776Y-106034000D01*
X141786224Y-106034000D01*
X141819840Y-106037311D01*
X141819840Y-106037311D01*
G37*
G36*
X143089840Y-106037311D02*
G01*
X143121559Y-106046932D01*
X143150787Y-106062555D01*
X143176414Y-106083586D01*
X143197445Y-106109213D01*
X143213068Y-106138441D01*
X143222689Y-106170160D01*
X143226000Y-106203776D01*
X143226000Y-108016224D01*
X143222689Y-108049840D01*
X143213068Y-108081559D01*
X143197445Y-108110787D01*
X143176414Y-108136414D01*
X143150787Y-108157445D01*
X143121559Y-108173068D01*
X143089840Y-108182689D01*
X143056224Y-108186000D01*
X142693776Y-108186000D01*
X142660160Y-108182689D01*
X142628441Y-108173068D01*
X142599213Y-108157445D01*
X142573586Y-108136414D01*
X142552555Y-108110787D01*
X142536932Y-108081559D01*
X142527311Y-108049840D01*
X142524000Y-108016224D01*
X142524000Y-106203776D01*
X142527311Y-106170160D01*
X142536932Y-106138441D01*
X142552555Y-106109213D01*
X142573586Y-106083586D01*
X142599213Y-106062555D01*
X142628441Y-106046932D01*
X142660160Y-106037311D01*
X142693776Y-106034000D01*
X143056224Y-106034000D01*
X143089840Y-106037311D01*
X143089840Y-106037311D01*
G37*
G36*
X151306627Y-104522037D02*
G01*
X151476466Y-104573557D01*
X151632991Y-104657222D01*
X151632992Y-104657223D01*
X151632994Y-104657224D01*
X151770185Y-104769815D01*
X151882778Y-104907009D01*
X151966443Y-105063534D01*
X152017963Y-105233373D01*
X152035359Y-105410000D01*
X152017963Y-105586627D01*
X151966443Y-105756466D01*
X151882778Y-105912991D01*
X151882776Y-105912994D01*
X151770185Y-106050185D01*
X151632994Y-106162776D01*
X151632992Y-106162777D01*
X151632991Y-106162778D01*
X151476466Y-106246443D01*
X151306627Y-106297963D01*
X151174258Y-106311000D01*
X151085742Y-106311000D01*
X150953373Y-106297963D01*
X150783534Y-106246443D01*
X150627009Y-106162778D01*
X150627008Y-106162777D01*
X150627006Y-106162776D01*
X150489815Y-106050185D01*
X150377224Y-105912994D01*
X150377222Y-105912991D01*
X150293557Y-105756466D01*
X150242037Y-105586627D01*
X150224641Y-105410000D01*
X150242037Y-105233373D01*
X150293557Y-105063534D01*
X150377222Y-104907009D01*
X150489815Y-104769815D01*
X150627006Y-104657224D01*
X150627008Y-104657223D01*
X150627009Y-104657222D01*
X150783534Y-104573557D01*
X150953373Y-104522037D01*
X151085742Y-104509000D01*
X151174258Y-104509000D01*
X151306627Y-104522037D01*
X151306627Y-104522037D01*
G37*
G36*
X129171000Y-106311000D02*
G01*
X127369000Y-106311000D01*
X127369000Y-104509000D01*
X129171000Y-104509000D01*
X129171000Y-106311000D01*
X129171000Y-106311000D01*
G37*
G36*
X135279380Y-104029113D02*
G01*
X135328681Y-104044068D01*
X135374129Y-104068360D01*
X135413955Y-104101045D01*
X135446640Y-104140871D01*
X135470932Y-104186319D01*
X135485887Y-104235620D01*
X135491000Y-104287526D01*
X135491000Y-105262474D01*
X135485887Y-105314380D01*
X135470932Y-105363681D01*
X135446640Y-105409129D01*
X135413955Y-105448955D01*
X135374129Y-105481640D01*
X135328681Y-105505932D01*
X135279380Y-105520887D01*
X135227474Y-105526000D01*
X134677526Y-105526000D01*
X134625620Y-105520887D01*
X134576319Y-105505932D01*
X134530871Y-105481640D01*
X134491045Y-105448955D01*
X134458360Y-105409129D01*
X134434068Y-105363681D01*
X134419113Y-105314380D01*
X134414000Y-105262474D01*
X134414000Y-104287526D01*
X134419113Y-104235620D01*
X134434068Y-104186319D01*
X134458360Y-104140871D01*
X134491045Y-104101045D01*
X134530871Y-104068360D01*
X134576319Y-104044068D01*
X134625620Y-104029113D01*
X134677526Y-104024000D01*
X135227474Y-104024000D01*
X135279380Y-104029113D01*
X135279380Y-104029113D01*
G37*
G36*
X137154380Y-104029113D02*
G01*
X137203681Y-104044068D01*
X137249129Y-104068360D01*
X137288955Y-104101045D01*
X137321640Y-104140871D01*
X137345932Y-104186319D01*
X137360887Y-104235620D01*
X137366000Y-104287526D01*
X137366000Y-105262474D01*
X137360887Y-105314380D01*
X137345932Y-105363681D01*
X137321640Y-105409129D01*
X137288955Y-105448955D01*
X137249129Y-105481640D01*
X137203681Y-105505932D01*
X137154380Y-105520887D01*
X137102474Y-105526000D01*
X136552526Y-105526000D01*
X136500620Y-105520887D01*
X136451319Y-105505932D01*
X136405871Y-105481640D01*
X136366045Y-105448955D01*
X136333360Y-105409129D01*
X136309068Y-105363681D01*
X136294113Y-105314380D01*
X136289000Y-105262474D01*
X136289000Y-104287526D01*
X136294113Y-104235620D01*
X136309068Y-104186319D01*
X136333360Y-104140871D01*
X136366045Y-104101045D01*
X136405871Y-104068360D01*
X136451319Y-104044068D01*
X136500620Y-104029113D01*
X136552526Y-104024000D01*
X137102474Y-104024000D01*
X137154380Y-104029113D01*
X137154380Y-104029113D01*
G37*
G36*
X144725880Y-103140113D02*
G01*
X144775181Y-103155068D01*
X144820629Y-103179360D01*
X144860455Y-103212045D01*
X144893140Y-103251871D01*
X144917432Y-103297319D01*
X144932387Y-103346620D01*
X144937500Y-103398526D01*
X144937500Y-104373474D01*
X144932387Y-104425380D01*
X144917432Y-104474681D01*
X144893140Y-104520129D01*
X144860455Y-104559955D01*
X144820629Y-104592640D01*
X144775181Y-104616932D01*
X144725880Y-104631887D01*
X144673974Y-104637000D01*
X144124026Y-104637000D01*
X144072120Y-104631887D01*
X144022819Y-104616932D01*
X143977371Y-104592640D01*
X143937545Y-104559955D01*
X143904860Y-104520129D01*
X143880568Y-104474681D01*
X143865613Y-104425380D01*
X143860500Y-104373474D01*
X143860500Y-103398526D01*
X143865613Y-103346620D01*
X143880568Y-103297319D01*
X143904860Y-103251871D01*
X143937545Y-103212045D01*
X143977371Y-103179360D01*
X144022819Y-103155068D01*
X144072120Y-103140113D01*
X144124026Y-103135000D01*
X144673974Y-103135000D01*
X144725880Y-103140113D01*
X144725880Y-103140113D01*
G37*
G36*
X142850880Y-103140113D02*
G01*
X142900181Y-103155068D01*
X142945629Y-103179360D01*
X142985455Y-103212045D01*
X143018140Y-103251871D01*
X143042432Y-103297319D01*
X143057387Y-103346620D01*
X143062500Y-103398526D01*
X143062500Y-104373474D01*
X143057387Y-104425380D01*
X143042432Y-104474681D01*
X143018140Y-104520129D01*
X142985455Y-104559955D01*
X142945629Y-104592640D01*
X142900181Y-104616932D01*
X142850880Y-104631887D01*
X142798974Y-104637000D01*
X142249026Y-104637000D01*
X142197120Y-104631887D01*
X142147819Y-104616932D01*
X142102371Y-104592640D01*
X142062545Y-104559955D01*
X142029860Y-104520129D01*
X142005568Y-104474681D01*
X141990613Y-104425380D01*
X141985500Y-104373474D01*
X141985500Y-103398526D01*
X141990613Y-103346620D01*
X142005568Y-103297319D01*
X142029860Y-103251871D01*
X142062545Y-103212045D01*
X142102371Y-103179360D01*
X142147819Y-103155068D01*
X142197120Y-103140113D01*
X142249026Y-103135000D01*
X142798974Y-103135000D01*
X142850880Y-103140113D01*
X142850880Y-103140113D01*
G37*
G36*
X135279380Y-102124113D02*
G01*
X135328681Y-102139068D01*
X135374129Y-102163360D01*
X135413955Y-102196045D01*
X135446640Y-102235871D01*
X135470932Y-102281319D01*
X135485887Y-102330620D01*
X135491000Y-102382526D01*
X135491000Y-103357474D01*
X135485887Y-103409380D01*
X135470932Y-103458681D01*
X135446640Y-103504129D01*
X135413955Y-103543955D01*
X135374129Y-103576640D01*
X135328681Y-103600932D01*
X135279380Y-103615887D01*
X135227474Y-103621000D01*
X134677526Y-103621000D01*
X134625620Y-103615887D01*
X134576319Y-103600932D01*
X134530871Y-103576640D01*
X134491045Y-103543955D01*
X134458360Y-103504129D01*
X134434068Y-103458681D01*
X134419113Y-103409380D01*
X134414000Y-103357474D01*
X134414000Y-102382526D01*
X134419113Y-102330620D01*
X134434068Y-102281319D01*
X134458360Y-102235871D01*
X134491045Y-102196045D01*
X134530871Y-102163360D01*
X134576319Y-102139068D01*
X134625620Y-102124113D01*
X134677526Y-102119000D01*
X135227474Y-102119000D01*
X135279380Y-102124113D01*
X135279380Y-102124113D01*
G37*
G36*
X137154380Y-102124113D02*
G01*
X137203681Y-102139068D01*
X137249129Y-102163360D01*
X137288955Y-102196045D01*
X137321640Y-102235871D01*
X137345932Y-102281319D01*
X137360887Y-102330620D01*
X137366000Y-102382526D01*
X137366000Y-103357474D01*
X137360887Y-103409380D01*
X137345932Y-103458681D01*
X137321640Y-103504129D01*
X137288955Y-103543955D01*
X137249129Y-103576640D01*
X137203681Y-103600932D01*
X137154380Y-103615887D01*
X137102474Y-103621000D01*
X136552526Y-103621000D01*
X136500620Y-103615887D01*
X136451319Y-103600932D01*
X136405871Y-103576640D01*
X136366045Y-103543955D01*
X136333360Y-103504129D01*
X136309068Y-103458681D01*
X136294113Y-103409380D01*
X136289000Y-103357474D01*
X136289000Y-102382526D01*
X136294113Y-102330620D01*
X136309068Y-102281319D01*
X136333360Y-102235871D01*
X136366045Y-102196045D01*
X136405871Y-102163360D01*
X136451319Y-102139068D01*
X136500620Y-102124113D01*
X136552526Y-102119000D01*
X137102474Y-102119000D01*
X137154380Y-102124113D01*
X137154380Y-102124113D01*
G37*
G36*
X144774380Y-100854113D02*
G01*
X144823681Y-100869068D01*
X144869129Y-100893360D01*
X144908955Y-100926045D01*
X144941640Y-100965871D01*
X144965932Y-101011319D01*
X144980887Y-101060620D01*
X144986000Y-101112526D01*
X144986000Y-102087474D01*
X144980887Y-102139380D01*
X144965932Y-102188681D01*
X144941640Y-102234129D01*
X144908955Y-102273955D01*
X144869129Y-102306640D01*
X144823681Y-102330932D01*
X144774380Y-102345887D01*
X144722474Y-102351000D01*
X144172526Y-102351000D01*
X144120620Y-102345887D01*
X144071319Y-102330932D01*
X144025871Y-102306640D01*
X143986045Y-102273955D01*
X143953360Y-102234129D01*
X143929068Y-102188681D01*
X143914113Y-102139380D01*
X143909000Y-102087474D01*
X143909000Y-101112526D01*
X143914113Y-101060620D01*
X143929068Y-101011319D01*
X143953360Y-100965871D01*
X143986045Y-100926045D01*
X144025871Y-100893360D01*
X144071319Y-100869068D01*
X144120620Y-100854113D01*
X144172526Y-100849000D01*
X144722474Y-100849000D01*
X144774380Y-100854113D01*
X144774380Y-100854113D01*
G37*
G36*
X142899380Y-100854113D02*
G01*
X142948681Y-100869068D01*
X142994129Y-100893360D01*
X143033955Y-100926045D01*
X143066640Y-100965871D01*
X143090932Y-101011319D01*
X143105887Y-101060620D01*
X143111000Y-101112526D01*
X143111000Y-102087474D01*
X143105887Y-102139380D01*
X143090932Y-102188681D01*
X143066640Y-102234129D01*
X143033955Y-102273955D01*
X142994129Y-102306640D01*
X142948681Y-102330932D01*
X142899380Y-102345887D01*
X142847474Y-102351000D01*
X142297526Y-102351000D01*
X142245620Y-102345887D01*
X142196319Y-102330932D01*
X142150871Y-102306640D01*
X142111045Y-102273955D01*
X142078360Y-102234129D01*
X142054068Y-102188681D01*
X142039113Y-102139380D01*
X142034000Y-102087474D01*
X142034000Y-101112526D01*
X142039113Y-101060620D01*
X142054068Y-101011319D01*
X142078360Y-100965871D01*
X142111045Y-100926045D01*
X142150871Y-100893360D01*
X142196319Y-100869068D01*
X142245620Y-100854113D01*
X142297526Y-100849000D01*
X142847474Y-100849000D01*
X142899380Y-100854113D01*
X142899380Y-100854113D01*
G37*
G36*
X137154380Y-100219113D02*
G01*
X137203681Y-100234068D01*
X137249129Y-100258360D01*
X137288955Y-100291045D01*
X137321640Y-100330871D01*
X137345932Y-100376319D01*
X137360887Y-100425620D01*
X137366000Y-100477526D01*
X137366000Y-101452474D01*
X137360887Y-101504380D01*
X137345932Y-101553681D01*
X137321640Y-101599129D01*
X137288955Y-101638955D01*
X137249129Y-101671640D01*
X137203681Y-101695932D01*
X137154380Y-101710887D01*
X137102474Y-101716000D01*
X136552526Y-101716000D01*
X136500620Y-101710887D01*
X136451319Y-101695932D01*
X136405871Y-101671640D01*
X136366045Y-101638955D01*
X136333360Y-101599129D01*
X136309068Y-101553681D01*
X136294113Y-101504380D01*
X136289000Y-101452474D01*
X136289000Y-100477526D01*
X136294113Y-100425620D01*
X136309068Y-100376319D01*
X136333360Y-100330871D01*
X136366045Y-100291045D01*
X136405871Y-100258360D01*
X136451319Y-100234068D01*
X136500620Y-100219113D01*
X136552526Y-100214000D01*
X137102474Y-100214000D01*
X137154380Y-100219113D01*
X137154380Y-100219113D01*
G37*
G36*
X135279380Y-100219113D02*
G01*
X135328681Y-100234068D01*
X135374129Y-100258360D01*
X135413955Y-100291045D01*
X135446640Y-100330871D01*
X135470932Y-100376319D01*
X135485887Y-100425620D01*
X135491000Y-100477526D01*
X135491000Y-101452474D01*
X135485887Y-101504380D01*
X135470932Y-101553681D01*
X135446640Y-101599129D01*
X135413955Y-101638955D01*
X135374129Y-101671640D01*
X135328681Y-101695932D01*
X135279380Y-101710887D01*
X135227474Y-101716000D01*
X134677526Y-101716000D01*
X134625620Y-101710887D01*
X134576319Y-101695932D01*
X134530871Y-101671640D01*
X134491045Y-101638955D01*
X134458360Y-101599129D01*
X134434068Y-101553681D01*
X134419113Y-101504380D01*
X134414000Y-101452474D01*
X134414000Y-100477526D01*
X134419113Y-100425620D01*
X134434068Y-100376319D01*
X134458360Y-100330871D01*
X134491045Y-100291045D01*
X134530871Y-100258360D01*
X134576319Y-100234068D01*
X134625620Y-100219113D01*
X134677526Y-100214000D01*
X135227474Y-100214000D01*
X135279380Y-100219113D01*
X135279380Y-100219113D01*
G37*
G36*
X130875000Y-99811000D02*
G01*
X129673000Y-99811000D01*
X129673000Y-98309000D01*
X130875000Y-98309000D01*
X130875000Y-99811000D01*
X130875000Y-99811000D01*
G37*
G36*
X129125000Y-99811000D02*
G01*
X127923000Y-99811000D01*
X127923000Y-98309000D01*
X129125000Y-98309000D01*
X129125000Y-99811000D01*
X129125000Y-99811000D01*
G37*
G36*
X144226200Y-98531200D02*
G01*
X143623800Y-98531200D01*
X143623800Y-96628800D01*
X144226200Y-96628800D01*
X144226200Y-98531200D01*
X144226200Y-98531200D01*
G37*
G36*
X137076200Y-98531200D02*
G01*
X136473800Y-98531200D01*
X136473800Y-96628800D01*
X137076200Y-96628800D01*
X137076200Y-98531200D01*
X137076200Y-98531200D01*
G37*
G36*
X136426200Y-98531200D02*
G01*
X135823800Y-98531200D01*
X135823800Y-96628800D01*
X136426200Y-96628800D01*
X136426200Y-98531200D01*
X136426200Y-98531200D01*
G37*
G36*
X135776200Y-98531200D02*
G01*
X135173800Y-98531200D01*
X135173800Y-96628800D01*
X135776200Y-96628800D01*
X135776200Y-98531200D01*
X135776200Y-98531200D01*
G37*
G36*
X141626200Y-98531200D02*
G01*
X141023800Y-98531200D01*
X141023800Y-96628800D01*
X141626200Y-96628800D01*
X141626200Y-98531200D01*
X141626200Y-98531200D01*
G37*
G36*
X142926200Y-98531200D02*
G01*
X142323800Y-98531200D01*
X142323800Y-96628800D01*
X142926200Y-96628800D01*
X142926200Y-98531200D01*
X142926200Y-98531200D01*
G37*
G36*
X142276200Y-98531200D02*
G01*
X141673800Y-98531200D01*
X141673800Y-96628800D01*
X142276200Y-96628800D01*
X142276200Y-98531200D01*
X142276200Y-98531200D01*
G37*
G36*
X140976200Y-98531200D02*
G01*
X140373800Y-98531200D01*
X140373800Y-96628800D01*
X140976200Y-96628800D01*
X140976200Y-98531200D01*
X140976200Y-98531200D01*
G37*
G36*
X140326200Y-98531200D02*
G01*
X139723800Y-98531200D01*
X139723800Y-96628800D01*
X140326200Y-96628800D01*
X140326200Y-98531200D01*
X140326200Y-98531200D01*
G37*
G36*
X139676200Y-98531200D02*
G01*
X139073800Y-98531200D01*
X139073800Y-96628800D01*
X139676200Y-96628800D01*
X139676200Y-98531200D01*
X139676200Y-98531200D01*
G37*
G36*
X139026200Y-98531200D02*
G01*
X138423800Y-98531200D01*
X138423800Y-96628800D01*
X139026200Y-96628800D01*
X139026200Y-98531200D01*
X139026200Y-98531200D01*
G37*
G36*
X138376200Y-98531200D02*
G01*
X137773800Y-98531200D01*
X137773800Y-96628800D01*
X138376200Y-96628800D01*
X138376200Y-98531200D01*
X138376200Y-98531200D01*
G37*
G36*
X137726200Y-98531200D02*
G01*
X137123800Y-98531200D01*
X137123800Y-96628800D01*
X137726200Y-96628800D01*
X137726200Y-98531200D01*
X137726200Y-98531200D01*
G37*
G36*
X143576200Y-98531200D02*
G01*
X142973800Y-98531200D01*
X142973800Y-96628800D01*
X143576200Y-96628800D01*
X143576200Y-98531200D01*
X143576200Y-98531200D01*
G37*
G36*
X151378380Y-96028113D02*
G01*
X151427681Y-96043068D01*
X151473129Y-96067360D01*
X151512955Y-96100045D01*
X151545640Y-96139871D01*
X151569932Y-96185319D01*
X151584887Y-96234620D01*
X151590000Y-96286526D01*
X151590000Y-97261474D01*
X151584887Y-97313380D01*
X151569932Y-97362681D01*
X151545640Y-97408129D01*
X151512955Y-97447955D01*
X151473129Y-97480640D01*
X151427681Y-97504932D01*
X151378380Y-97519887D01*
X151326474Y-97525000D01*
X150776526Y-97525000D01*
X150724620Y-97519887D01*
X150675319Y-97504932D01*
X150629871Y-97480640D01*
X150590045Y-97447955D01*
X150557360Y-97408129D01*
X150533068Y-97362681D01*
X150518113Y-97313380D01*
X150513000Y-97261474D01*
X150513000Y-96286526D01*
X150518113Y-96234620D01*
X150533068Y-96185319D01*
X150557360Y-96139871D01*
X150590045Y-96100045D01*
X150629871Y-96067360D01*
X150675319Y-96043068D01*
X150724620Y-96028113D01*
X150776526Y-96023000D01*
X151326474Y-96023000D01*
X151378380Y-96028113D01*
X151378380Y-96028113D01*
G37*
G36*
X149503380Y-96028113D02*
G01*
X149552681Y-96043068D01*
X149598129Y-96067360D01*
X149637955Y-96100045D01*
X149670640Y-96139871D01*
X149694932Y-96185319D01*
X149709887Y-96234620D01*
X149715000Y-96286526D01*
X149715000Y-97261474D01*
X149709887Y-97313380D01*
X149694932Y-97362681D01*
X149670640Y-97408129D01*
X149637955Y-97447955D01*
X149598129Y-97480640D01*
X149552681Y-97504932D01*
X149503380Y-97519887D01*
X149451474Y-97525000D01*
X148901526Y-97525000D01*
X148849620Y-97519887D01*
X148800319Y-97504932D01*
X148754871Y-97480640D01*
X148715045Y-97447955D01*
X148682360Y-97408129D01*
X148658068Y-97362681D01*
X148643113Y-97313380D01*
X148638000Y-97261474D01*
X148638000Y-96286526D01*
X148643113Y-96234620D01*
X148658068Y-96185319D01*
X148682360Y-96139871D01*
X148715045Y-96100045D01*
X148754871Y-96067360D01*
X148800319Y-96043068D01*
X148849620Y-96028113D01*
X148901526Y-96023000D01*
X149451474Y-96023000D01*
X149503380Y-96028113D01*
X149503380Y-96028113D01*
G37*
G36*
X128675380Y-95012113D02*
G01*
X128724681Y-95027068D01*
X128770129Y-95051360D01*
X128809955Y-95084045D01*
X128842640Y-95123871D01*
X128866932Y-95169319D01*
X128881887Y-95218620D01*
X128887000Y-95270526D01*
X128887000Y-96245474D01*
X128881887Y-96297380D01*
X128866932Y-96346681D01*
X128842640Y-96392129D01*
X128809955Y-96431955D01*
X128770129Y-96464640D01*
X128724681Y-96488932D01*
X128675380Y-96503887D01*
X128623474Y-96509000D01*
X128073526Y-96509000D01*
X128021620Y-96503887D01*
X127972319Y-96488932D01*
X127926871Y-96464640D01*
X127887045Y-96431955D01*
X127854360Y-96392129D01*
X127830068Y-96346681D01*
X127815113Y-96297380D01*
X127810000Y-96245474D01*
X127810000Y-95270526D01*
X127815113Y-95218620D01*
X127830068Y-95169319D01*
X127854360Y-95123871D01*
X127887045Y-95084045D01*
X127926871Y-95051360D01*
X127972319Y-95027068D01*
X128021620Y-95012113D01*
X128073526Y-95007000D01*
X128623474Y-95007000D01*
X128675380Y-95012113D01*
X128675380Y-95012113D01*
G37*
G36*
X130550380Y-95012113D02*
G01*
X130599681Y-95027068D01*
X130645129Y-95051360D01*
X130684955Y-95084045D01*
X130717640Y-95123871D01*
X130741932Y-95169319D01*
X130756887Y-95218620D01*
X130762000Y-95270526D01*
X130762000Y-96245474D01*
X130756887Y-96297380D01*
X130741932Y-96346681D01*
X130717640Y-96392129D01*
X130684955Y-96431955D01*
X130645129Y-96464640D01*
X130599681Y-96488932D01*
X130550380Y-96503887D01*
X130498474Y-96509000D01*
X129948526Y-96509000D01*
X129896620Y-96503887D01*
X129847319Y-96488932D01*
X129801871Y-96464640D01*
X129762045Y-96431955D01*
X129729360Y-96392129D01*
X129705068Y-96346681D01*
X129690113Y-96297380D01*
X129685000Y-96245474D01*
X129685000Y-95270526D01*
X129690113Y-95218620D01*
X129705068Y-95169319D01*
X129729360Y-95123871D01*
X129762045Y-95084045D01*
X129801871Y-95051360D01*
X129847319Y-95027068D01*
X129896620Y-95012113D01*
X129948526Y-95007000D01*
X130498474Y-95007000D01*
X130550380Y-95012113D01*
X130550380Y-95012113D01*
G37*
G36*
X129125000Y-92699000D02*
G01*
X127923000Y-92699000D01*
X127923000Y-91197000D01*
X129125000Y-91197000D01*
X129125000Y-92699000D01*
X129125000Y-92699000D01*
G37*
G36*
X130875000Y-92699000D02*
G01*
X129673000Y-92699000D01*
X129673000Y-91197000D01*
X130875000Y-91197000D01*
X130875000Y-92699000D01*
X130875000Y-92699000D01*
G37*
G36*
X151378380Y-90440113D02*
G01*
X151427681Y-90455068D01*
X151473129Y-90479360D01*
X151512955Y-90512045D01*
X151545640Y-90551871D01*
X151569932Y-90597319D01*
X151584887Y-90646620D01*
X151590000Y-90698526D01*
X151590000Y-91673474D01*
X151584887Y-91725380D01*
X151569932Y-91774681D01*
X151545640Y-91820129D01*
X151512955Y-91859955D01*
X151473129Y-91892640D01*
X151427681Y-91916932D01*
X151378380Y-91931887D01*
X151326474Y-91937000D01*
X150776526Y-91937000D01*
X150724620Y-91931887D01*
X150675319Y-91916932D01*
X150629871Y-91892640D01*
X150590045Y-91859955D01*
X150557360Y-91820129D01*
X150533068Y-91774681D01*
X150518113Y-91725380D01*
X150513000Y-91673474D01*
X150513000Y-90698526D01*
X150518113Y-90646620D01*
X150533068Y-90597319D01*
X150557360Y-90551871D01*
X150590045Y-90512045D01*
X150629871Y-90479360D01*
X150675319Y-90455068D01*
X150724620Y-90440113D01*
X150776526Y-90435000D01*
X151326474Y-90435000D01*
X151378380Y-90440113D01*
X151378380Y-90440113D01*
G37*
G36*
X149503380Y-90440113D02*
G01*
X149552681Y-90455068D01*
X149598129Y-90479360D01*
X149637955Y-90512045D01*
X149670640Y-90551871D01*
X149694932Y-90597319D01*
X149709887Y-90646620D01*
X149715000Y-90698526D01*
X149715000Y-91673474D01*
X149709887Y-91725380D01*
X149694932Y-91774681D01*
X149670640Y-91820129D01*
X149637955Y-91859955D01*
X149598129Y-91892640D01*
X149552681Y-91916932D01*
X149503380Y-91931887D01*
X149451474Y-91937000D01*
X148901526Y-91937000D01*
X148849620Y-91931887D01*
X148800319Y-91916932D01*
X148754871Y-91892640D01*
X148715045Y-91859955D01*
X148682360Y-91820129D01*
X148658068Y-91774681D01*
X148643113Y-91725380D01*
X148638000Y-91673474D01*
X148638000Y-90698526D01*
X148643113Y-90646620D01*
X148658068Y-90597319D01*
X148682360Y-90551871D01*
X148715045Y-90512045D01*
X148754871Y-90479360D01*
X148800319Y-90455068D01*
X148849620Y-90440113D01*
X148901526Y-90435000D01*
X149451474Y-90435000D01*
X149503380Y-90440113D01*
X149503380Y-90440113D01*
G37*
G36*
X143576200Y-91331200D02*
G01*
X142973800Y-91331200D01*
X142973800Y-89428800D01*
X143576200Y-89428800D01*
X143576200Y-91331200D01*
X143576200Y-91331200D01*
G37*
G36*
X140326200Y-91331200D02*
G01*
X139723800Y-91331200D01*
X139723800Y-89428800D01*
X140326200Y-89428800D01*
X140326200Y-91331200D01*
X140326200Y-91331200D01*
G37*
G36*
X140976200Y-91331200D02*
G01*
X140373800Y-91331200D01*
X140373800Y-89428800D01*
X140976200Y-89428800D01*
X140976200Y-91331200D01*
X140976200Y-91331200D01*
G37*
G36*
X142276200Y-91331200D02*
G01*
X141673800Y-91331200D01*
X141673800Y-89428800D01*
X142276200Y-89428800D01*
X142276200Y-91331200D01*
X142276200Y-91331200D01*
G37*
G36*
X142926200Y-91331200D02*
G01*
X142323800Y-91331200D01*
X142323800Y-89428800D01*
X142926200Y-89428800D01*
X142926200Y-91331200D01*
X142926200Y-91331200D01*
G37*
G36*
X144226200Y-91331200D02*
G01*
X143623800Y-91331200D01*
X143623800Y-89428800D01*
X144226200Y-89428800D01*
X144226200Y-91331200D01*
X144226200Y-91331200D01*
G37*
G36*
X135776200Y-91331200D02*
G01*
X135173800Y-91331200D01*
X135173800Y-89428800D01*
X135776200Y-89428800D01*
X135776200Y-91331200D01*
X135776200Y-91331200D01*
G37*
G36*
X136426200Y-91331200D02*
G01*
X135823800Y-91331200D01*
X135823800Y-89428800D01*
X136426200Y-89428800D01*
X136426200Y-91331200D01*
X136426200Y-91331200D01*
G37*
G36*
X137076200Y-91331200D02*
G01*
X136473800Y-91331200D01*
X136473800Y-89428800D01*
X137076200Y-89428800D01*
X137076200Y-91331200D01*
X137076200Y-91331200D01*
G37*
G36*
X137726200Y-91331200D02*
G01*
X137123800Y-91331200D01*
X137123800Y-89428800D01*
X137726200Y-89428800D01*
X137726200Y-91331200D01*
X137726200Y-91331200D01*
G37*
G36*
X138376200Y-91331200D02*
G01*
X137773800Y-91331200D01*
X137773800Y-89428800D01*
X138376200Y-89428800D01*
X138376200Y-91331200D01*
X138376200Y-91331200D01*
G37*
G36*
X139026200Y-91331200D02*
G01*
X138423800Y-91331200D01*
X138423800Y-89428800D01*
X139026200Y-89428800D01*
X139026200Y-91331200D01*
X139026200Y-91331200D01*
G37*
G36*
X141626200Y-91331200D02*
G01*
X141023800Y-91331200D01*
X141023800Y-89428800D01*
X141626200Y-89428800D01*
X141626200Y-91331200D01*
X141626200Y-91331200D01*
G37*
G36*
X139676200Y-91331200D02*
G01*
X139073800Y-91331200D01*
X139073800Y-89428800D01*
X139676200Y-89428800D01*
X139676200Y-91331200D01*
X139676200Y-91331200D01*
G37*
G36*
X130550380Y-87646113D02*
G01*
X130599681Y-87661068D01*
X130645129Y-87685360D01*
X130684955Y-87718045D01*
X130717640Y-87757871D01*
X130741932Y-87803319D01*
X130756887Y-87852620D01*
X130762000Y-87904526D01*
X130762000Y-88879474D01*
X130756887Y-88931380D01*
X130741932Y-88980681D01*
X130717640Y-89026129D01*
X130684955Y-89065955D01*
X130645129Y-89098640D01*
X130599681Y-89122932D01*
X130550380Y-89137887D01*
X130498474Y-89143000D01*
X129948526Y-89143000D01*
X129896620Y-89137887D01*
X129847319Y-89122932D01*
X129801871Y-89098640D01*
X129762045Y-89065955D01*
X129729360Y-89026129D01*
X129705068Y-88980681D01*
X129690113Y-88931380D01*
X129685000Y-88879474D01*
X129685000Y-87904526D01*
X129690113Y-87852620D01*
X129705068Y-87803319D01*
X129729360Y-87757871D01*
X129762045Y-87718045D01*
X129801871Y-87685360D01*
X129847319Y-87661068D01*
X129896620Y-87646113D01*
X129948526Y-87641000D01*
X130498474Y-87641000D01*
X130550380Y-87646113D01*
X130550380Y-87646113D01*
G37*
G36*
X128675380Y-87646113D02*
G01*
X128724681Y-87661068D01*
X128770129Y-87685360D01*
X128809955Y-87718045D01*
X128842640Y-87757871D01*
X128866932Y-87803319D01*
X128881887Y-87852620D01*
X128887000Y-87904526D01*
X128887000Y-88879474D01*
X128881887Y-88931380D01*
X128866932Y-88980681D01*
X128842640Y-89026129D01*
X128809955Y-89065955D01*
X128770129Y-89098640D01*
X128724681Y-89122932D01*
X128675380Y-89137887D01*
X128623474Y-89143000D01*
X128073526Y-89143000D01*
X128021620Y-89137887D01*
X127972319Y-89122932D01*
X127926871Y-89098640D01*
X127887045Y-89065955D01*
X127854360Y-89026129D01*
X127830068Y-88980681D01*
X127815113Y-88931380D01*
X127810000Y-88879474D01*
X127810000Y-87904526D01*
X127815113Y-87852620D01*
X127830068Y-87803319D01*
X127854360Y-87757871D01*
X127887045Y-87718045D01*
X127926871Y-87685360D01*
X127972319Y-87661068D01*
X128021620Y-87646113D01*
X128073526Y-87641000D01*
X128623474Y-87641000D01*
X128675380Y-87646113D01*
X128675380Y-87646113D01*
G37*
G36*
X141163643Y-84319782D02*
G01*
X141309415Y-84380162D01*
X141309416Y-84380163D01*
X141440608Y-84467822D01*
X141552178Y-84579392D01*
X141618072Y-84678009D01*
X141639838Y-84710585D01*
X141700218Y-84856357D01*
X141731000Y-85011108D01*
X141731000Y-85168892D01*
X141700218Y-85323643D01*
X141639838Y-85469415D01*
X141639837Y-85469416D01*
X141552178Y-85600608D01*
X141440608Y-85712178D01*
X141341991Y-85778072D01*
X141309415Y-85799838D01*
X141163643Y-85860218D01*
X141008892Y-85891000D01*
X140851108Y-85891000D01*
X140696357Y-85860218D01*
X140550585Y-85799838D01*
X140518009Y-85778071D01*
X140419392Y-85712178D01*
X140307822Y-85600608D01*
X140220163Y-85469416D01*
X140220162Y-85469415D01*
X140159782Y-85323643D01*
X140129000Y-85168892D01*
X140129000Y-85011108D01*
X140159782Y-84856357D01*
X140220162Y-84710585D01*
X140241928Y-84678009D01*
X140307822Y-84579392D01*
X140419392Y-84467822D01*
X140550584Y-84380163D01*
X140550585Y-84380162D01*
X140696357Y-84319782D01*
X140851108Y-84289000D01*
X141008892Y-84289000D01*
X141163643Y-84319782D01*
X141163643Y-84319782D01*
G37*
G36*
X139231000Y-85891000D02*
G01*
X137629000Y-85891000D01*
X137629000Y-84289000D01*
X139231000Y-84289000D01*
X139231000Y-85891000D01*
X139231000Y-85891000D01*
G37*
G36*
X141163643Y-82319782D02*
G01*
X141309415Y-82380162D01*
X141309416Y-82380163D01*
X141440608Y-82467822D01*
X141552178Y-82579392D01*
X141618072Y-82678009D01*
X141639838Y-82710585D01*
X141700218Y-82856357D01*
X141731000Y-83011108D01*
X141731000Y-83168892D01*
X141700218Y-83323643D01*
X141639838Y-83469415D01*
X141639837Y-83469416D01*
X141552178Y-83600608D01*
X141440608Y-83712178D01*
X141341991Y-83778071D01*
X141309415Y-83799838D01*
X141163643Y-83860218D01*
X141008892Y-83891000D01*
X140851108Y-83891000D01*
X140696357Y-83860218D01*
X140550585Y-83799838D01*
X140518009Y-83778072D01*
X140419392Y-83712178D01*
X140307822Y-83600608D01*
X140220163Y-83469416D01*
X140220162Y-83469415D01*
X140159782Y-83323643D01*
X140129000Y-83168892D01*
X140129000Y-83011108D01*
X140159782Y-82856357D01*
X140220162Y-82710585D01*
X140241928Y-82678009D01*
X140307822Y-82579392D01*
X140419392Y-82467822D01*
X140550584Y-82380163D01*
X140550585Y-82380162D01*
X140696357Y-82319782D01*
X140851108Y-82289000D01*
X141008892Y-82289000D01*
X141163643Y-82319782D01*
X141163643Y-82319782D01*
G37*
G36*
X138663643Y-82319782D02*
G01*
X138809415Y-82380162D01*
X138809416Y-82380163D01*
X138940608Y-82467822D01*
X139052178Y-82579392D01*
X139118072Y-82678009D01*
X139139838Y-82710585D01*
X139200218Y-82856357D01*
X139231000Y-83011108D01*
X139231000Y-83168892D01*
X139200218Y-83323643D01*
X139139838Y-83469415D01*
X139139837Y-83469416D01*
X139052178Y-83600608D01*
X138940608Y-83712178D01*
X138841991Y-83778071D01*
X138809415Y-83799838D01*
X138663643Y-83860218D01*
X138508892Y-83891000D01*
X138351108Y-83891000D01*
X138196357Y-83860218D01*
X138050585Y-83799838D01*
X138018009Y-83778072D01*
X137919392Y-83712178D01*
X137807822Y-83600608D01*
X137720163Y-83469416D01*
X137720162Y-83469415D01*
X137659782Y-83323643D01*
X137629000Y-83168892D01*
X137629000Y-83011108D01*
X137659782Y-82856357D01*
X137720162Y-82710585D01*
X137741928Y-82678009D01*
X137807822Y-82579392D01*
X137919392Y-82467822D01*
X138050584Y-82380163D01*
X138050585Y-82380162D01*
X138196357Y-82319782D01*
X138351108Y-82289000D01*
X138508892Y-82289000D01*
X138663643Y-82319782D01*
X138663643Y-82319782D01*
G37*
G36*
X146152410Y-78888604D02*
G01*
X146434674Y-79005521D01*
X146688705Y-79175259D01*
X146904741Y-79391295D01*
X147074479Y-79645326D01*
X147191396Y-79927590D01*
X147251000Y-80227240D01*
X147251000Y-80532760D01*
X147191396Y-80832410D01*
X147074479Y-81114674D01*
X146904741Y-81368705D01*
X146688705Y-81584741D01*
X146434674Y-81754479D01*
X146152410Y-81871396D01*
X145852761Y-81931000D01*
X145547239Y-81931000D01*
X145247590Y-81871396D01*
X144965326Y-81754479D01*
X144711295Y-81584741D01*
X144495259Y-81368705D01*
X144325521Y-81114674D01*
X144208604Y-80832410D01*
X144149000Y-80532760D01*
X144149000Y-80227240D01*
X144208604Y-79927590D01*
X144325521Y-79645326D01*
X144495259Y-79391295D01*
X144711295Y-79175259D01*
X144965326Y-79005521D01*
X145247590Y-78888604D01*
X145547239Y-78829000D01*
X145852761Y-78829000D01*
X146152410Y-78888604D01*
X146152410Y-78888604D01*
G37*
G36*
X134112410Y-78888604D02*
G01*
X134394674Y-79005521D01*
X134648705Y-79175259D01*
X134864741Y-79391295D01*
X135034479Y-79645326D01*
X135151396Y-79927590D01*
X135211000Y-80227240D01*
X135211000Y-80532760D01*
X135151396Y-80832410D01*
X135034479Y-81114674D01*
X134864741Y-81368705D01*
X134648705Y-81584741D01*
X134394674Y-81754479D01*
X134112410Y-81871396D01*
X133812761Y-81931000D01*
X133507239Y-81931000D01*
X133207590Y-81871396D01*
X132925326Y-81754479D01*
X132671295Y-81584741D01*
X132455259Y-81368705D01*
X132285521Y-81114674D01*
X132168604Y-80832410D01*
X132109000Y-80532760D01*
X132109000Y-80227240D01*
X132168604Y-79927590D01*
X132285521Y-79645326D01*
X132455259Y-79391295D01*
X132671295Y-79175259D01*
X132925326Y-79005521D01*
X133207590Y-78888604D01*
X133507239Y-78829000D01*
X133812761Y-78829000D01*
X134112410Y-78888604D01*
X134112410Y-78888604D01*
G37*
M02*
