G04 #@! TF.GenerationSoftware,KiCad,Pcbnew,(5.1.2)-2*
G04 #@! TF.CreationDate,2019-10-15T13:17:40+02:00*
G04 #@! TF.ProjectId,USB_UART_Iolated,5553425f-5541-4525-945f-496f6c617465,rev?*
G04 #@! TF.SameCoordinates,Original*
G04 #@! TF.FileFunction,Paste,Top*
G04 #@! TF.FilePolarity,Positive*
%FSLAX46Y46*%
G04 Gerber Fmt 4.6, Leading zero omitted, Abs format (unit mm)*
G04 Created by KiCad (PCBNEW (5.1.2)-2) date 2019-10-15 13:17:40*
%MOMM*%
%LPD*%
G04 APERTURE LIST*
%ADD10C,0.100000*%
%ADD11C,0.600000*%
%ADD12C,0.975000*%
%ADD13R,1.100000X1.400000*%
%ADD14R,0.450000X1.750000*%
%ADD15R,1.400000X1.100000*%
G04 APERTURE END LIST*
D10*
G36*
X144309703Y-115385722D02*
G01*
X144324264Y-115387882D01*
X144338543Y-115391459D01*
X144352403Y-115396418D01*
X144365710Y-115402712D01*
X144378336Y-115410280D01*
X144390159Y-115419048D01*
X144401066Y-115428934D01*
X144410952Y-115439841D01*
X144419720Y-115451664D01*
X144427288Y-115464290D01*
X144433582Y-115477597D01*
X144438541Y-115491457D01*
X144442118Y-115505736D01*
X144444278Y-115520297D01*
X144445000Y-115535000D01*
X144445000Y-117285000D01*
X144444278Y-117299703D01*
X144442118Y-117314264D01*
X144438541Y-117328543D01*
X144433582Y-117342403D01*
X144427288Y-117355710D01*
X144419720Y-117368336D01*
X144410952Y-117380159D01*
X144401066Y-117391066D01*
X144390159Y-117400952D01*
X144378336Y-117409720D01*
X144365710Y-117417288D01*
X144352403Y-117423582D01*
X144338543Y-117428541D01*
X144324264Y-117432118D01*
X144309703Y-117434278D01*
X144295000Y-117435000D01*
X143995000Y-117435000D01*
X143980297Y-117434278D01*
X143965736Y-117432118D01*
X143951457Y-117428541D01*
X143937597Y-117423582D01*
X143924290Y-117417288D01*
X143911664Y-117409720D01*
X143899841Y-117400952D01*
X143888934Y-117391066D01*
X143879048Y-117380159D01*
X143870280Y-117368336D01*
X143862712Y-117355710D01*
X143856418Y-117342403D01*
X143851459Y-117328543D01*
X143847882Y-117314264D01*
X143845722Y-117299703D01*
X143845000Y-117285000D01*
X143845000Y-115535000D01*
X143845722Y-115520297D01*
X143847882Y-115505736D01*
X143851459Y-115491457D01*
X143856418Y-115477597D01*
X143862712Y-115464290D01*
X143870280Y-115451664D01*
X143879048Y-115439841D01*
X143888934Y-115428934D01*
X143899841Y-115419048D01*
X143911664Y-115410280D01*
X143924290Y-115402712D01*
X143937597Y-115396418D01*
X143951457Y-115391459D01*
X143965736Y-115387882D01*
X143980297Y-115385722D01*
X143995000Y-115385000D01*
X144295000Y-115385000D01*
X144309703Y-115385722D01*
X144309703Y-115385722D01*
G37*
D11*
X144145000Y-116410000D03*
D10*
G36*
X143039703Y-115385722D02*
G01*
X143054264Y-115387882D01*
X143068543Y-115391459D01*
X143082403Y-115396418D01*
X143095710Y-115402712D01*
X143108336Y-115410280D01*
X143120159Y-115419048D01*
X143131066Y-115428934D01*
X143140952Y-115439841D01*
X143149720Y-115451664D01*
X143157288Y-115464290D01*
X143163582Y-115477597D01*
X143168541Y-115491457D01*
X143172118Y-115505736D01*
X143174278Y-115520297D01*
X143175000Y-115535000D01*
X143175000Y-117285000D01*
X143174278Y-117299703D01*
X143172118Y-117314264D01*
X143168541Y-117328543D01*
X143163582Y-117342403D01*
X143157288Y-117355710D01*
X143149720Y-117368336D01*
X143140952Y-117380159D01*
X143131066Y-117391066D01*
X143120159Y-117400952D01*
X143108336Y-117409720D01*
X143095710Y-117417288D01*
X143082403Y-117423582D01*
X143068543Y-117428541D01*
X143054264Y-117432118D01*
X143039703Y-117434278D01*
X143025000Y-117435000D01*
X142725000Y-117435000D01*
X142710297Y-117434278D01*
X142695736Y-117432118D01*
X142681457Y-117428541D01*
X142667597Y-117423582D01*
X142654290Y-117417288D01*
X142641664Y-117409720D01*
X142629841Y-117400952D01*
X142618934Y-117391066D01*
X142609048Y-117380159D01*
X142600280Y-117368336D01*
X142592712Y-117355710D01*
X142586418Y-117342403D01*
X142581459Y-117328543D01*
X142577882Y-117314264D01*
X142575722Y-117299703D01*
X142575000Y-117285000D01*
X142575000Y-115535000D01*
X142575722Y-115520297D01*
X142577882Y-115505736D01*
X142581459Y-115491457D01*
X142586418Y-115477597D01*
X142592712Y-115464290D01*
X142600280Y-115451664D01*
X142609048Y-115439841D01*
X142618934Y-115428934D01*
X142629841Y-115419048D01*
X142641664Y-115410280D01*
X142654290Y-115402712D01*
X142667597Y-115396418D01*
X142681457Y-115391459D01*
X142695736Y-115387882D01*
X142710297Y-115385722D01*
X142725000Y-115385000D01*
X143025000Y-115385000D01*
X143039703Y-115385722D01*
X143039703Y-115385722D01*
G37*
D11*
X142875000Y-116410000D03*
D10*
G36*
X136689703Y-115385722D02*
G01*
X136704264Y-115387882D01*
X136718543Y-115391459D01*
X136732403Y-115396418D01*
X136745710Y-115402712D01*
X136758336Y-115410280D01*
X136770159Y-115419048D01*
X136781066Y-115428934D01*
X136790952Y-115439841D01*
X136799720Y-115451664D01*
X136807288Y-115464290D01*
X136813582Y-115477597D01*
X136818541Y-115491457D01*
X136822118Y-115505736D01*
X136824278Y-115520297D01*
X136825000Y-115535000D01*
X136825000Y-117285000D01*
X136824278Y-117299703D01*
X136822118Y-117314264D01*
X136818541Y-117328543D01*
X136813582Y-117342403D01*
X136807288Y-117355710D01*
X136799720Y-117368336D01*
X136790952Y-117380159D01*
X136781066Y-117391066D01*
X136770159Y-117400952D01*
X136758336Y-117409720D01*
X136745710Y-117417288D01*
X136732403Y-117423582D01*
X136718543Y-117428541D01*
X136704264Y-117432118D01*
X136689703Y-117434278D01*
X136675000Y-117435000D01*
X136375000Y-117435000D01*
X136360297Y-117434278D01*
X136345736Y-117432118D01*
X136331457Y-117428541D01*
X136317597Y-117423582D01*
X136304290Y-117417288D01*
X136291664Y-117409720D01*
X136279841Y-117400952D01*
X136268934Y-117391066D01*
X136259048Y-117380159D01*
X136250280Y-117368336D01*
X136242712Y-117355710D01*
X136236418Y-117342403D01*
X136231459Y-117328543D01*
X136227882Y-117314264D01*
X136225722Y-117299703D01*
X136225000Y-117285000D01*
X136225000Y-115535000D01*
X136225722Y-115520297D01*
X136227882Y-115505736D01*
X136231459Y-115491457D01*
X136236418Y-115477597D01*
X136242712Y-115464290D01*
X136250280Y-115451664D01*
X136259048Y-115439841D01*
X136268934Y-115428934D01*
X136279841Y-115419048D01*
X136291664Y-115410280D01*
X136304290Y-115402712D01*
X136317597Y-115396418D01*
X136331457Y-115391459D01*
X136345736Y-115387882D01*
X136360297Y-115385722D01*
X136375000Y-115385000D01*
X136675000Y-115385000D01*
X136689703Y-115385722D01*
X136689703Y-115385722D01*
G37*
D11*
X136525000Y-116410000D03*
D10*
G36*
X139229703Y-106085722D02*
G01*
X139244264Y-106087882D01*
X139258543Y-106091459D01*
X139272403Y-106096418D01*
X139285710Y-106102712D01*
X139298336Y-106110280D01*
X139310159Y-106119048D01*
X139321066Y-106128934D01*
X139330952Y-106139841D01*
X139339720Y-106151664D01*
X139347288Y-106164290D01*
X139353582Y-106177597D01*
X139358541Y-106191457D01*
X139362118Y-106205736D01*
X139364278Y-106220297D01*
X139365000Y-106235000D01*
X139365000Y-107985000D01*
X139364278Y-107999703D01*
X139362118Y-108014264D01*
X139358541Y-108028543D01*
X139353582Y-108042403D01*
X139347288Y-108055710D01*
X139339720Y-108068336D01*
X139330952Y-108080159D01*
X139321066Y-108091066D01*
X139310159Y-108100952D01*
X139298336Y-108109720D01*
X139285710Y-108117288D01*
X139272403Y-108123582D01*
X139258543Y-108128541D01*
X139244264Y-108132118D01*
X139229703Y-108134278D01*
X139215000Y-108135000D01*
X138915000Y-108135000D01*
X138900297Y-108134278D01*
X138885736Y-108132118D01*
X138871457Y-108128541D01*
X138857597Y-108123582D01*
X138844290Y-108117288D01*
X138831664Y-108109720D01*
X138819841Y-108100952D01*
X138808934Y-108091066D01*
X138799048Y-108080159D01*
X138790280Y-108068336D01*
X138782712Y-108055710D01*
X138776418Y-108042403D01*
X138771459Y-108028543D01*
X138767882Y-108014264D01*
X138765722Y-107999703D01*
X138765000Y-107985000D01*
X138765000Y-106235000D01*
X138765722Y-106220297D01*
X138767882Y-106205736D01*
X138771459Y-106191457D01*
X138776418Y-106177597D01*
X138782712Y-106164290D01*
X138790280Y-106151664D01*
X138799048Y-106139841D01*
X138808934Y-106128934D01*
X138819841Y-106119048D01*
X138831664Y-106110280D01*
X138844290Y-106102712D01*
X138857597Y-106096418D01*
X138871457Y-106091459D01*
X138885736Y-106087882D01*
X138900297Y-106085722D01*
X138915000Y-106085000D01*
X139215000Y-106085000D01*
X139229703Y-106085722D01*
X139229703Y-106085722D01*
G37*
D11*
X139065000Y-107110000D03*
D10*
G36*
X135419703Y-106085722D02*
G01*
X135434264Y-106087882D01*
X135448543Y-106091459D01*
X135462403Y-106096418D01*
X135475710Y-106102712D01*
X135488336Y-106110280D01*
X135500159Y-106119048D01*
X135511066Y-106128934D01*
X135520952Y-106139841D01*
X135529720Y-106151664D01*
X135537288Y-106164290D01*
X135543582Y-106177597D01*
X135548541Y-106191457D01*
X135552118Y-106205736D01*
X135554278Y-106220297D01*
X135555000Y-106235000D01*
X135555000Y-107985000D01*
X135554278Y-107999703D01*
X135552118Y-108014264D01*
X135548541Y-108028543D01*
X135543582Y-108042403D01*
X135537288Y-108055710D01*
X135529720Y-108068336D01*
X135520952Y-108080159D01*
X135511066Y-108091066D01*
X135500159Y-108100952D01*
X135488336Y-108109720D01*
X135475710Y-108117288D01*
X135462403Y-108123582D01*
X135448543Y-108128541D01*
X135434264Y-108132118D01*
X135419703Y-108134278D01*
X135405000Y-108135000D01*
X135105000Y-108135000D01*
X135090297Y-108134278D01*
X135075736Y-108132118D01*
X135061457Y-108128541D01*
X135047597Y-108123582D01*
X135034290Y-108117288D01*
X135021664Y-108109720D01*
X135009841Y-108100952D01*
X134998934Y-108091066D01*
X134989048Y-108080159D01*
X134980280Y-108068336D01*
X134972712Y-108055710D01*
X134966418Y-108042403D01*
X134961459Y-108028543D01*
X134957882Y-108014264D01*
X134955722Y-107999703D01*
X134955000Y-107985000D01*
X134955000Y-106235000D01*
X134955722Y-106220297D01*
X134957882Y-106205736D01*
X134961459Y-106191457D01*
X134966418Y-106177597D01*
X134972712Y-106164290D01*
X134980280Y-106151664D01*
X134989048Y-106139841D01*
X134998934Y-106128934D01*
X135009841Y-106119048D01*
X135021664Y-106110280D01*
X135034290Y-106102712D01*
X135047597Y-106096418D01*
X135061457Y-106091459D01*
X135075736Y-106087882D01*
X135090297Y-106085722D01*
X135105000Y-106085000D01*
X135405000Y-106085000D01*
X135419703Y-106085722D01*
X135419703Y-106085722D01*
G37*
D11*
X135255000Y-107110000D03*
D10*
G36*
X139229703Y-115385722D02*
G01*
X139244264Y-115387882D01*
X139258543Y-115391459D01*
X139272403Y-115396418D01*
X139285710Y-115402712D01*
X139298336Y-115410280D01*
X139310159Y-115419048D01*
X139321066Y-115428934D01*
X139330952Y-115439841D01*
X139339720Y-115451664D01*
X139347288Y-115464290D01*
X139353582Y-115477597D01*
X139358541Y-115491457D01*
X139362118Y-115505736D01*
X139364278Y-115520297D01*
X139365000Y-115535000D01*
X139365000Y-117285000D01*
X139364278Y-117299703D01*
X139362118Y-117314264D01*
X139358541Y-117328543D01*
X139353582Y-117342403D01*
X139347288Y-117355710D01*
X139339720Y-117368336D01*
X139330952Y-117380159D01*
X139321066Y-117391066D01*
X139310159Y-117400952D01*
X139298336Y-117409720D01*
X139285710Y-117417288D01*
X139272403Y-117423582D01*
X139258543Y-117428541D01*
X139244264Y-117432118D01*
X139229703Y-117434278D01*
X139215000Y-117435000D01*
X138915000Y-117435000D01*
X138900297Y-117434278D01*
X138885736Y-117432118D01*
X138871457Y-117428541D01*
X138857597Y-117423582D01*
X138844290Y-117417288D01*
X138831664Y-117409720D01*
X138819841Y-117400952D01*
X138808934Y-117391066D01*
X138799048Y-117380159D01*
X138790280Y-117368336D01*
X138782712Y-117355710D01*
X138776418Y-117342403D01*
X138771459Y-117328543D01*
X138767882Y-117314264D01*
X138765722Y-117299703D01*
X138765000Y-117285000D01*
X138765000Y-115535000D01*
X138765722Y-115520297D01*
X138767882Y-115505736D01*
X138771459Y-115491457D01*
X138776418Y-115477597D01*
X138782712Y-115464290D01*
X138790280Y-115451664D01*
X138799048Y-115439841D01*
X138808934Y-115428934D01*
X138819841Y-115419048D01*
X138831664Y-115410280D01*
X138844290Y-115402712D01*
X138857597Y-115396418D01*
X138871457Y-115391459D01*
X138885736Y-115387882D01*
X138900297Y-115385722D01*
X138915000Y-115385000D01*
X139215000Y-115385000D01*
X139229703Y-115385722D01*
X139229703Y-115385722D01*
G37*
D11*
X139065000Y-116410000D03*
D10*
G36*
X144309703Y-106085722D02*
G01*
X144324264Y-106087882D01*
X144338543Y-106091459D01*
X144352403Y-106096418D01*
X144365710Y-106102712D01*
X144378336Y-106110280D01*
X144390159Y-106119048D01*
X144401066Y-106128934D01*
X144410952Y-106139841D01*
X144419720Y-106151664D01*
X144427288Y-106164290D01*
X144433582Y-106177597D01*
X144438541Y-106191457D01*
X144442118Y-106205736D01*
X144444278Y-106220297D01*
X144445000Y-106235000D01*
X144445000Y-107985000D01*
X144444278Y-107999703D01*
X144442118Y-108014264D01*
X144438541Y-108028543D01*
X144433582Y-108042403D01*
X144427288Y-108055710D01*
X144419720Y-108068336D01*
X144410952Y-108080159D01*
X144401066Y-108091066D01*
X144390159Y-108100952D01*
X144378336Y-108109720D01*
X144365710Y-108117288D01*
X144352403Y-108123582D01*
X144338543Y-108128541D01*
X144324264Y-108132118D01*
X144309703Y-108134278D01*
X144295000Y-108135000D01*
X143995000Y-108135000D01*
X143980297Y-108134278D01*
X143965736Y-108132118D01*
X143951457Y-108128541D01*
X143937597Y-108123582D01*
X143924290Y-108117288D01*
X143911664Y-108109720D01*
X143899841Y-108100952D01*
X143888934Y-108091066D01*
X143879048Y-108080159D01*
X143870280Y-108068336D01*
X143862712Y-108055710D01*
X143856418Y-108042403D01*
X143851459Y-108028543D01*
X143847882Y-108014264D01*
X143845722Y-107999703D01*
X143845000Y-107985000D01*
X143845000Y-106235000D01*
X143845722Y-106220297D01*
X143847882Y-106205736D01*
X143851459Y-106191457D01*
X143856418Y-106177597D01*
X143862712Y-106164290D01*
X143870280Y-106151664D01*
X143879048Y-106139841D01*
X143888934Y-106128934D01*
X143899841Y-106119048D01*
X143911664Y-106110280D01*
X143924290Y-106102712D01*
X143937597Y-106096418D01*
X143951457Y-106091459D01*
X143965736Y-106087882D01*
X143980297Y-106085722D01*
X143995000Y-106085000D01*
X144295000Y-106085000D01*
X144309703Y-106085722D01*
X144309703Y-106085722D01*
G37*
D11*
X144145000Y-107110000D03*
D10*
G36*
X137959703Y-106085722D02*
G01*
X137974264Y-106087882D01*
X137988543Y-106091459D01*
X138002403Y-106096418D01*
X138015710Y-106102712D01*
X138028336Y-106110280D01*
X138040159Y-106119048D01*
X138051066Y-106128934D01*
X138060952Y-106139841D01*
X138069720Y-106151664D01*
X138077288Y-106164290D01*
X138083582Y-106177597D01*
X138088541Y-106191457D01*
X138092118Y-106205736D01*
X138094278Y-106220297D01*
X138095000Y-106235000D01*
X138095000Y-107985000D01*
X138094278Y-107999703D01*
X138092118Y-108014264D01*
X138088541Y-108028543D01*
X138083582Y-108042403D01*
X138077288Y-108055710D01*
X138069720Y-108068336D01*
X138060952Y-108080159D01*
X138051066Y-108091066D01*
X138040159Y-108100952D01*
X138028336Y-108109720D01*
X138015710Y-108117288D01*
X138002403Y-108123582D01*
X137988543Y-108128541D01*
X137974264Y-108132118D01*
X137959703Y-108134278D01*
X137945000Y-108135000D01*
X137645000Y-108135000D01*
X137630297Y-108134278D01*
X137615736Y-108132118D01*
X137601457Y-108128541D01*
X137587597Y-108123582D01*
X137574290Y-108117288D01*
X137561664Y-108109720D01*
X137549841Y-108100952D01*
X137538934Y-108091066D01*
X137529048Y-108080159D01*
X137520280Y-108068336D01*
X137512712Y-108055710D01*
X137506418Y-108042403D01*
X137501459Y-108028543D01*
X137497882Y-108014264D01*
X137495722Y-107999703D01*
X137495000Y-107985000D01*
X137495000Y-106235000D01*
X137495722Y-106220297D01*
X137497882Y-106205736D01*
X137501459Y-106191457D01*
X137506418Y-106177597D01*
X137512712Y-106164290D01*
X137520280Y-106151664D01*
X137529048Y-106139841D01*
X137538934Y-106128934D01*
X137549841Y-106119048D01*
X137561664Y-106110280D01*
X137574290Y-106102712D01*
X137587597Y-106096418D01*
X137601457Y-106091459D01*
X137615736Y-106087882D01*
X137630297Y-106085722D01*
X137645000Y-106085000D01*
X137945000Y-106085000D01*
X137959703Y-106085722D01*
X137959703Y-106085722D01*
G37*
D11*
X137795000Y-107110000D03*
D10*
G36*
X137959703Y-115385722D02*
G01*
X137974264Y-115387882D01*
X137988543Y-115391459D01*
X138002403Y-115396418D01*
X138015710Y-115402712D01*
X138028336Y-115410280D01*
X138040159Y-115419048D01*
X138051066Y-115428934D01*
X138060952Y-115439841D01*
X138069720Y-115451664D01*
X138077288Y-115464290D01*
X138083582Y-115477597D01*
X138088541Y-115491457D01*
X138092118Y-115505736D01*
X138094278Y-115520297D01*
X138095000Y-115535000D01*
X138095000Y-117285000D01*
X138094278Y-117299703D01*
X138092118Y-117314264D01*
X138088541Y-117328543D01*
X138083582Y-117342403D01*
X138077288Y-117355710D01*
X138069720Y-117368336D01*
X138060952Y-117380159D01*
X138051066Y-117391066D01*
X138040159Y-117400952D01*
X138028336Y-117409720D01*
X138015710Y-117417288D01*
X138002403Y-117423582D01*
X137988543Y-117428541D01*
X137974264Y-117432118D01*
X137959703Y-117434278D01*
X137945000Y-117435000D01*
X137645000Y-117435000D01*
X137630297Y-117434278D01*
X137615736Y-117432118D01*
X137601457Y-117428541D01*
X137587597Y-117423582D01*
X137574290Y-117417288D01*
X137561664Y-117409720D01*
X137549841Y-117400952D01*
X137538934Y-117391066D01*
X137529048Y-117380159D01*
X137520280Y-117368336D01*
X137512712Y-117355710D01*
X137506418Y-117342403D01*
X137501459Y-117328543D01*
X137497882Y-117314264D01*
X137495722Y-117299703D01*
X137495000Y-117285000D01*
X137495000Y-115535000D01*
X137495722Y-115520297D01*
X137497882Y-115505736D01*
X137501459Y-115491457D01*
X137506418Y-115477597D01*
X137512712Y-115464290D01*
X137520280Y-115451664D01*
X137529048Y-115439841D01*
X137538934Y-115428934D01*
X137549841Y-115419048D01*
X137561664Y-115410280D01*
X137574290Y-115402712D01*
X137587597Y-115396418D01*
X137601457Y-115391459D01*
X137615736Y-115387882D01*
X137630297Y-115385722D01*
X137645000Y-115385000D01*
X137945000Y-115385000D01*
X137959703Y-115385722D01*
X137959703Y-115385722D01*
G37*
D11*
X137795000Y-116410000D03*
D10*
G36*
X140499703Y-106085722D02*
G01*
X140514264Y-106087882D01*
X140528543Y-106091459D01*
X140542403Y-106096418D01*
X140555710Y-106102712D01*
X140568336Y-106110280D01*
X140580159Y-106119048D01*
X140591066Y-106128934D01*
X140600952Y-106139841D01*
X140609720Y-106151664D01*
X140617288Y-106164290D01*
X140623582Y-106177597D01*
X140628541Y-106191457D01*
X140632118Y-106205736D01*
X140634278Y-106220297D01*
X140635000Y-106235000D01*
X140635000Y-107985000D01*
X140634278Y-107999703D01*
X140632118Y-108014264D01*
X140628541Y-108028543D01*
X140623582Y-108042403D01*
X140617288Y-108055710D01*
X140609720Y-108068336D01*
X140600952Y-108080159D01*
X140591066Y-108091066D01*
X140580159Y-108100952D01*
X140568336Y-108109720D01*
X140555710Y-108117288D01*
X140542403Y-108123582D01*
X140528543Y-108128541D01*
X140514264Y-108132118D01*
X140499703Y-108134278D01*
X140485000Y-108135000D01*
X140185000Y-108135000D01*
X140170297Y-108134278D01*
X140155736Y-108132118D01*
X140141457Y-108128541D01*
X140127597Y-108123582D01*
X140114290Y-108117288D01*
X140101664Y-108109720D01*
X140089841Y-108100952D01*
X140078934Y-108091066D01*
X140069048Y-108080159D01*
X140060280Y-108068336D01*
X140052712Y-108055710D01*
X140046418Y-108042403D01*
X140041459Y-108028543D01*
X140037882Y-108014264D01*
X140035722Y-107999703D01*
X140035000Y-107985000D01*
X140035000Y-106235000D01*
X140035722Y-106220297D01*
X140037882Y-106205736D01*
X140041459Y-106191457D01*
X140046418Y-106177597D01*
X140052712Y-106164290D01*
X140060280Y-106151664D01*
X140069048Y-106139841D01*
X140078934Y-106128934D01*
X140089841Y-106119048D01*
X140101664Y-106110280D01*
X140114290Y-106102712D01*
X140127597Y-106096418D01*
X140141457Y-106091459D01*
X140155736Y-106087882D01*
X140170297Y-106085722D01*
X140185000Y-106085000D01*
X140485000Y-106085000D01*
X140499703Y-106085722D01*
X140499703Y-106085722D01*
G37*
D11*
X140335000Y-107110000D03*
D10*
G36*
X141769703Y-115385722D02*
G01*
X141784264Y-115387882D01*
X141798543Y-115391459D01*
X141812403Y-115396418D01*
X141825710Y-115402712D01*
X141838336Y-115410280D01*
X141850159Y-115419048D01*
X141861066Y-115428934D01*
X141870952Y-115439841D01*
X141879720Y-115451664D01*
X141887288Y-115464290D01*
X141893582Y-115477597D01*
X141898541Y-115491457D01*
X141902118Y-115505736D01*
X141904278Y-115520297D01*
X141905000Y-115535000D01*
X141905000Y-117285000D01*
X141904278Y-117299703D01*
X141902118Y-117314264D01*
X141898541Y-117328543D01*
X141893582Y-117342403D01*
X141887288Y-117355710D01*
X141879720Y-117368336D01*
X141870952Y-117380159D01*
X141861066Y-117391066D01*
X141850159Y-117400952D01*
X141838336Y-117409720D01*
X141825710Y-117417288D01*
X141812403Y-117423582D01*
X141798543Y-117428541D01*
X141784264Y-117432118D01*
X141769703Y-117434278D01*
X141755000Y-117435000D01*
X141455000Y-117435000D01*
X141440297Y-117434278D01*
X141425736Y-117432118D01*
X141411457Y-117428541D01*
X141397597Y-117423582D01*
X141384290Y-117417288D01*
X141371664Y-117409720D01*
X141359841Y-117400952D01*
X141348934Y-117391066D01*
X141339048Y-117380159D01*
X141330280Y-117368336D01*
X141322712Y-117355710D01*
X141316418Y-117342403D01*
X141311459Y-117328543D01*
X141307882Y-117314264D01*
X141305722Y-117299703D01*
X141305000Y-117285000D01*
X141305000Y-115535000D01*
X141305722Y-115520297D01*
X141307882Y-115505736D01*
X141311459Y-115491457D01*
X141316418Y-115477597D01*
X141322712Y-115464290D01*
X141330280Y-115451664D01*
X141339048Y-115439841D01*
X141348934Y-115428934D01*
X141359841Y-115419048D01*
X141371664Y-115410280D01*
X141384290Y-115402712D01*
X141397597Y-115396418D01*
X141411457Y-115391459D01*
X141425736Y-115387882D01*
X141440297Y-115385722D01*
X141455000Y-115385000D01*
X141755000Y-115385000D01*
X141769703Y-115385722D01*
X141769703Y-115385722D01*
G37*
D11*
X141605000Y-116410000D03*
D10*
G36*
X140499703Y-115385722D02*
G01*
X140514264Y-115387882D01*
X140528543Y-115391459D01*
X140542403Y-115396418D01*
X140555710Y-115402712D01*
X140568336Y-115410280D01*
X140580159Y-115419048D01*
X140591066Y-115428934D01*
X140600952Y-115439841D01*
X140609720Y-115451664D01*
X140617288Y-115464290D01*
X140623582Y-115477597D01*
X140628541Y-115491457D01*
X140632118Y-115505736D01*
X140634278Y-115520297D01*
X140635000Y-115535000D01*
X140635000Y-117285000D01*
X140634278Y-117299703D01*
X140632118Y-117314264D01*
X140628541Y-117328543D01*
X140623582Y-117342403D01*
X140617288Y-117355710D01*
X140609720Y-117368336D01*
X140600952Y-117380159D01*
X140591066Y-117391066D01*
X140580159Y-117400952D01*
X140568336Y-117409720D01*
X140555710Y-117417288D01*
X140542403Y-117423582D01*
X140528543Y-117428541D01*
X140514264Y-117432118D01*
X140499703Y-117434278D01*
X140485000Y-117435000D01*
X140185000Y-117435000D01*
X140170297Y-117434278D01*
X140155736Y-117432118D01*
X140141457Y-117428541D01*
X140127597Y-117423582D01*
X140114290Y-117417288D01*
X140101664Y-117409720D01*
X140089841Y-117400952D01*
X140078934Y-117391066D01*
X140069048Y-117380159D01*
X140060280Y-117368336D01*
X140052712Y-117355710D01*
X140046418Y-117342403D01*
X140041459Y-117328543D01*
X140037882Y-117314264D01*
X140035722Y-117299703D01*
X140035000Y-117285000D01*
X140035000Y-115535000D01*
X140035722Y-115520297D01*
X140037882Y-115505736D01*
X140041459Y-115491457D01*
X140046418Y-115477597D01*
X140052712Y-115464290D01*
X140060280Y-115451664D01*
X140069048Y-115439841D01*
X140078934Y-115428934D01*
X140089841Y-115419048D01*
X140101664Y-115410280D01*
X140114290Y-115402712D01*
X140127597Y-115396418D01*
X140141457Y-115391459D01*
X140155736Y-115387882D01*
X140170297Y-115385722D01*
X140185000Y-115385000D01*
X140485000Y-115385000D01*
X140499703Y-115385722D01*
X140499703Y-115385722D01*
G37*
D11*
X140335000Y-116410000D03*
D10*
G36*
X143039703Y-106085722D02*
G01*
X143054264Y-106087882D01*
X143068543Y-106091459D01*
X143082403Y-106096418D01*
X143095710Y-106102712D01*
X143108336Y-106110280D01*
X143120159Y-106119048D01*
X143131066Y-106128934D01*
X143140952Y-106139841D01*
X143149720Y-106151664D01*
X143157288Y-106164290D01*
X143163582Y-106177597D01*
X143168541Y-106191457D01*
X143172118Y-106205736D01*
X143174278Y-106220297D01*
X143175000Y-106235000D01*
X143175000Y-107985000D01*
X143174278Y-107999703D01*
X143172118Y-108014264D01*
X143168541Y-108028543D01*
X143163582Y-108042403D01*
X143157288Y-108055710D01*
X143149720Y-108068336D01*
X143140952Y-108080159D01*
X143131066Y-108091066D01*
X143120159Y-108100952D01*
X143108336Y-108109720D01*
X143095710Y-108117288D01*
X143082403Y-108123582D01*
X143068543Y-108128541D01*
X143054264Y-108132118D01*
X143039703Y-108134278D01*
X143025000Y-108135000D01*
X142725000Y-108135000D01*
X142710297Y-108134278D01*
X142695736Y-108132118D01*
X142681457Y-108128541D01*
X142667597Y-108123582D01*
X142654290Y-108117288D01*
X142641664Y-108109720D01*
X142629841Y-108100952D01*
X142618934Y-108091066D01*
X142609048Y-108080159D01*
X142600280Y-108068336D01*
X142592712Y-108055710D01*
X142586418Y-108042403D01*
X142581459Y-108028543D01*
X142577882Y-108014264D01*
X142575722Y-107999703D01*
X142575000Y-107985000D01*
X142575000Y-106235000D01*
X142575722Y-106220297D01*
X142577882Y-106205736D01*
X142581459Y-106191457D01*
X142586418Y-106177597D01*
X142592712Y-106164290D01*
X142600280Y-106151664D01*
X142609048Y-106139841D01*
X142618934Y-106128934D01*
X142629841Y-106119048D01*
X142641664Y-106110280D01*
X142654290Y-106102712D01*
X142667597Y-106096418D01*
X142681457Y-106091459D01*
X142695736Y-106087882D01*
X142710297Y-106085722D01*
X142725000Y-106085000D01*
X143025000Y-106085000D01*
X143039703Y-106085722D01*
X143039703Y-106085722D01*
G37*
D11*
X142875000Y-107110000D03*
D10*
G36*
X135419703Y-115385722D02*
G01*
X135434264Y-115387882D01*
X135448543Y-115391459D01*
X135462403Y-115396418D01*
X135475710Y-115402712D01*
X135488336Y-115410280D01*
X135500159Y-115419048D01*
X135511066Y-115428934D01*
X135520952Y-115439841D01*
X135529720Y-115451664D01*
X135537288Y-115464290D01*
X135543582Y-115477597D01*
X135548541Y-115491457D01*
X135552118Y-115505736D01*
X135554278Y-115520297D01*
X135555000Y-115535000D01*
X135555000Y-117285000D01*
X135554278Y-117299703D01*
X135552118Y-117314264D01*
X135548541Y-117328543D01*
X135543582Y-117342403D01*
X135537288Y-117355710D01*
X135529720Y-117368336D01*
X135520952Y-117380159D01*
X135511066Y-117391066D01*
X135500159Y-117400952D01*
X135488336Y-117409720D01*
X135475710Y-117417288D01*
X135462403Y-117423582D01*
X135448543Y-117428541D01*
X135434264Y-117432118D01*
X135419703Y-117434278D01*
X135405000Y-117435000D01*
X135105000Y-117435000D01*
X135090297Y-117434278D01*
X135075736Y-117432118D01*
X135061457Y-117428541D01*
X135047597Y-117423582D01*
X135034290Y-117417288D01*
X135021664Y-117409720D01*
X135009841Y-117400952D01*
X134998934Y-117391066D01*
X134989048Y-117380159D01*
X134980280Y-117368336D01*
X134972712Y-117355710D01*
X134966418Y-117342403D01*
X134961459Y-117328543D01*
X134957882Y-117314264D01*
X134955722Y-117299703D01*
X134955000Y-117285000D01*
X134955000Y-115535000D01*
X134955722Y-115520297D01*
X134957882Y-115505736D01*
X134961459Y-115491457D01*
X134966418Y-115477597D01*
X134972712Y-115464290D01*
X134980280Y-115451664D01*
X134989048Y-115439841D01*
X134998934Y-115428934D01*
X135009841Y-115419048D01*
X135021664Y-115410280D01*
X135034290Y-115402712D01*
X135047597Y-115396418D01*
X135061457Y-115391459D01*
X135075736Y-115387882D01*
X135090297Y-115385722D01*
X135105000Y-115385000D01*
X135405000Y-115385000D01*
X135419703Y-115385722D01*
X135419703Y-115385722D01*
G37*
D11*
X135255000Y-116410000D03*
D10*
G36*
X136689703Y-106085722D02*
G01*
X136704264Y-106087882D01*
X136718543Y-106091459D01*
X136732403Y-106096418D01*
X136745710Y-106102712D01*
X136758336Y-106110280D01*
X136770159Y-106119048D01*
X136781066Y-106128934D01*
X136790952Y-106139841D01*
X136799720Y-106151664D01*
X136807288Y-106164290D01*
X136813582Y-106177597D01*
X136818541Y-106191457D01*
X136822118Y-106205736D01*
X136824278Y-106220297D01*
X136825000Y-106235000D01*
X136825000Y-107985000D01*
X136824278Y-107999703D01*
X136822118Y-108014264D01*
X136818541Y-108028543D01*
X136813582Y-108042403D01*
X136807288Y-108055710D01*
X136799720Y-108068336D01*
X136790952Y-108080159D01*
X136781066Y-108091066D01*
X136770159Y-108100952D01*
X136758336Y-108109720D01*
X136745710Y-108117288D01*
X136732403Y-108123582D01*
X136718543Y-108128541D01*
X136704264Y-108132118D01*
X136689703Y-108134278D01*
X136675000Y-108135000D01*
X136375000Y-108135000D01*
X136360297Y-108134278D01*
X136345736Y-108132118D01*
X136331457Y-108128541D01*
X136317597Y-108123582D01*
X136304290Y-108117288D01*
X136291664Y-108109720D01*
X136279841Y-108100952D01*
X136268934Y-108091066D01*
X136259048Y-108080159D01*
X136250280Y-108068336D01*
X136242712Y-108055710D01*
X136236418Y-108042403D01*
X136231459Y-108028543D01*
X136227882Y-108014264D01*
X136225722Y-107999703D01*
X136225000Y-107985000D01*
X136225000Y-106235000D01*
X136225722Y-106220297D01*
X136227882Y-106205736D01*
X136231459Y-106191457D01*
X136236418Y-106177597D01*
X136242712Y-106164290D01*
X136250280Y-106151664D01*
X136259048Y-106139841D01*
X136268934Y-106128934D01*
X136279841Y-106119048D01*
X136291664Y-106110280D01*
X136304290Y-106102712D01*
X136317597Y-106096418D01*
X136331457Y-106091459D01*
X136345736Y-106087882D01*
X136360297Y-106085722D01*
X136375000Y-106085000D01*
X136675000Y-106085000D01*
X136689703Y-106085722D01*
X136689703Y-106085722D01*
G37*
D11*
X136525000Y-107110000D03*
D10*
G36*
X141769703Y-106085722D02*
G01*
X141784264Y-106087882D01*
X141798543Y-106091459D01*
X141812403Y-106096418D01*
X141825710Y-106102712D01*
X141838336Y-106110280D01*
X141850159Y-106119048D01*
X141861066Y-106128934D01*
X141870952Y-106139841D01*
X141879720Y-106151664D01*
X141887288Y-106164290D01*
X141893582Y-106177597D01*
X141898541Y-106191457D01*
X141902118Y-106205736D01*
X141904278Y-106220297D01*
X141905000Y-106235000D01*
X141905000Y-107985000D01*
X141904278Y-107999703D01*
X141902118Y-108014264D01*
X141898541Y-108028543D01*
X141893582Y-108042403D01*
X141887288Y-108055710D01*
X141879720Y-108068336D01*
X141870952Y-108080159D01*
X141861066Y-108091066D01*
X141850159Y-108100952D01*
X141838336Y-108109720D01*
X141825710Y-108117288D01*
X141812403Y-108123582D01*
X141798543Y-108128541D01*
X141784264Y-108132118D01*
X141769703Y-108134278D01*
X141755000Y-108135000D01*
X141455000Y-108135000D01*
X141440297Y-108134278D01*
X141425736Y-108132118D01*
X141411457Y-108128541D01*
X141397597Y-108123582D01*
X141384290Y-108117288D01*
X141371664Y-108109720D01*
X141359841Y-108100952D01*
X141348934Y-108091066D01*
X141339048Y-108080159D01*
X141330280Y-108068336D01*
X141322712Y-108055710D01*
X141316418Y-108042403D01*
X141311459Y-108028543D01*
X141307882Y-108014264D01*
X141305722Y-107999703D01*
X141305000Y-107985000D01*
X141305000Y-106235000D01*
X141305722Y-106220297D01*
X141307882Y-106205736D01*
X141311459Y-106191457D01*
X141316418Y-106177597D01*
X141322712Y-106164290D01*
X141330280Y-106151664D01*
X141339048Y-106139841D01*
X141348934Y-106128934D01*
X141359841Y-106119048D01*
X141371664Y-106110280D01*
X141384290Y-106102712D01*
X141397597Y-106096418D01*
X141411457Y-106091459D01*
X141425736Y-106087882D01*
X141440297Y-106085722D01*
X141455000Y-106085000D01*
X141755000Y-106085000D01*
X141769703Y-106085722D01*
X141769703Y-106085722D01*
G37*
D11*
X141605000Y-107110000D03*
D10*
G36*
X137095142Y-121856174D02*
G01*
X137118803Y-121859684D01*
X137142007Y-121865496D01*
X137164529Y-121873554D01*
X137186153Y-121883782D01*
X137206670Y-121896079D01*
X137225883Y-121910329D01*
X137243607Y-121926393D01*
X137259671Y-121944117D01*
X137273921Y-121963330D01*
X137286218Y-121983847D01*
X137296446Y-122005471D01*
X137304504Y-122027993D01*
X137310316Y-122051197D01*
X137313826Y-122074858D01*
X137315000Y-122098750D01*
X137315000Y-123011250D01*
X137313826Y-123035142D01*
X137310316Y-123058803D01*
X137304504Y-123082007D01*
X137296446Y-123104529D01*
X137286218Y-123126153D01*
X137273921Y-123146670D01*
X137259671Y-123165883D01*
X137243607Y-123183607D01*
X137225883Y-123199671D01*
X137206670Y-123213921D01*
X137186153Y-123226218D01*
X137164529Y-123236446D01*
X137142007Y-123244504D01*
X137118803Y-123250316D01*
X137095142Y-123253826D01*
X137071250Y-123255000D01*
X136583750Y-123255000D01*
X136559858Y-123253826D01*
X136536197Y-123250316D01*
X136512993Y-123244504D01*
X136490471Y-123236446D01*
X136468847Y-123226218D01*
X136448330Y-123213921D01*
X136429117Y-123199671D01*
X136411393Y-123183607D01*
X136395329Y-123165883D01*
X136381079Y-123146670D01*
X136368782Y-123126153D01*
X136358554Y-123104529D01*
X136350496Y-123082007D01*
X136344684Y-123058803D01*
X136341174Y-123035142D01*
X136340000Y-123011250D01*
X136340000Y-122098750D01*
X136341174Y-122074858D01*
X136344684Y-122051197D01*
X136350496Y-122027993D01*
X136358554Y-122005471D01*
X136368782Y-121983847D01*
X136381079Y-121963330D01*
X136395329Y-121944117D01*
X136411393Y-121926393D01*
X136429117Y-121910329D01*
X136448330Y-121896079D01*
X136468847Y-121883782D01*
X136490471Y-121873554D01*
X136512993Y-121865496D01*
X136536197Y-121859684D01*
X136559858Y-121856174D01*
X136583750Y-121855000D01*
X137071250Y-121855000D01*
X137095142Y-121856174D01*
X137095142Y-121856174D01*
G37*
D12*
X136827500Y-122555000D03*
D10*
G36*
X135220142Y-121856174D02*
G01*
X135243803Y-121859684D01*
X135267007Y-121865496D01*
X135289529Y-121873554D01*
X135311153Y-121883782D01*
X135331670Y-121896079D01*
X135350883Y-121910329D01*
X135368607Y-121926393D01*
X135384671Y-121944117D01*
X135398921Y-121963330D01*
X135411218Y-121983847D01*
X135421446Y-122005471D01*
X135429504Y-122027993D01*
X135435316Y-122051197D01*
X135438826Y-122074858D01*
X135440000Y-122098750D01*
X135440000Y-123011250D01*
X135438826Y-123035142D01*
X135435316Y-123058803D01*
X135429504Y-123082007D01*
X135421446Y-123104529D01*
X135411218Y-123126153D01*
X135398921Y-123146670D01*
X135384671Y-123165883D01*
X135368607Y-123183607D01*
X135350883Y-123199671D01*
X135331670Y-123213921D01*
X135311153Y-123226218D01*
X135289529Y-123236446D01*
X135267007Y-123244504D01*
X135243803Y-123250316D01*
X135220142Y-123253826D01*
X135196250Y-123255000D01*
X134708750Y-123255000D01*
X134684858Y-123253826D01*
X134661197Y-123250316D01*
X134637993Y-123244504D01*
X134615471Y-123236446D01*
X134593847Y-123226218D01*
X134573330Y-123213921D01*
X134554117Y-123199671D01*
X134536393Y-123183607D01*
X134520329Y-123165883D01*
X134506079Y-123146670D01*
X134493782Y-123126153D01*
X134483554Y-123104529D01*
X134475496Y-123082007D01*
X134469684Y-123058803D01*
X134466174Y-123035142D01*
X134465000Y-123011250D01*
X134465000Y-122098750D01*
X134466174Y-122074858D01*
X134469684Y-122051197D01*
X134475496Y-122027993D01*
X134483554Y-122005471D01*
X134493782Y-121983847D01*
X134506079Y-121963330D01*
X134520329Y-121944117D01*
X134536393Y-121926393D01*
X134554117Y-121910329D01*
X134573330Y-121896079D01*
X134593847Y-121883782D01*
X134615471Y-121873554D01*
X134637993Y-121865496D01*
X134661197Y-121859684D01*
X134684858Y-121856174D01*
X134708750Y-121855000D01*
X135196250Y-121855000D01*
X135220142Y-121856174D01*
X135220142Y-121856174D01*
G37*
D12*
X134952500Y-122555000D03*
D10*
G36*
X135220142Y-119951174D02*
G01*
X135243803Y-119954684D01*
X135267007Y-119960496D01*
X135289529Y-119968554D01*
X135311153Y-119978782D01*
X135331670Y-119991079D01*
X135350883Y-120005329D01*
X135368607Y-120021393D01*
X135384671Y-120039117D01*
X135398921Y-120058330D01*
X135411218Y-120078847D01*
X135421446Y-120100471D01*
X135429504Y-120122993D01*
X135435316Y-120146197D01*
X135438826Y-120169858D01*
X135440000Y-120193750D01*
X135440000Y-121106250D01*
X135438826Y-121130142D01*
X135435316Y-121153803D01*
X135429504Y-121177007D01*
X135421446Y-121199529D01*
X135411218Y-121221153D01*
X135398921Y-121241670D01*
X135384671Y-121260883D01*
X135368607Y-121278607D01*
X135350883Y-121294671D01*
X135331670Y-121308921D01*
X135311153Y-121321218D01*
X135289529Y-121331446D01*
X135267007Y-121339504D01*
X135243803Y-121345316D01*
X135220142Y-121348826D01*
X135196250Y-121350000D01*
X134708750Y-121350000D01*
X134684858Y-121348826D01*
X134661197Y-121345316D01*
X134637993Y-121339504D01*
X134615471Y-121331446D01*
X134593847Y-121321218D01*
X134573330Y-121308921D01*
X134554117Y-121294671D01*
X134536393Y-121278607D01*
X134520329Y-121260883D01*
X134506079Y-121241670D01*
X134493782Y-121221153D01*
X134483554Y-121199529D01*
X134475496Y-121177007D01*
X134469684Y-121153803D01*
X134466174Y-121130142D01*
X134465000Y-121106250D01*
X134465000Y-120193750D01*
X134466174Y-120169858D01*
X134469684Y-120146197D01*
X134475496Y-120122993D01*
X134483554Y-120100471D01*
X134493782Y-120078847D01*
X134506079Y-120058330D01*
X134520329Y-120039117D01*
X134536393Y-120021393D01*
X134554117Y-120005329D01*
X134573330Y-119991079D01*
X134593847Y-119978782D01*
X134615471Y-119968554D01*
X134637993Y-119960496D01*
X134661197Y-119954684D01*
X134684858Y-119951174D01*
X134708750Y-119950000D01*
X135196250Y-119950000D01*
X135220142Y-119951174D01*
X135220142Y-119951174D01*
G37*
D12*
X134952500Y-120650000D03*
D10*
G36*
X137095142Y-119951174D02*
G01*
X137118803Y-119954684D01*
X137142007Y-119960496D01*
X137164529Y-119968554D01*
X137186153Y-119978782D01*
X137206670Y-119991079D01*
X137225883Y-120005329D01*
X137243607Y-120021393D01*
X137259671Y-120039117D01*
X137273921Y-120058330D01*
X137286218Y-120078847D01*
X137296446Y-120100471D01*
X137304504Y-120122993D01*
X137310316Y-120146197D01*
X137313826Y-120169858D01*
X137315000Y-120193750D01*
X137315000Y-121106250D01*
X137313826Y-121130142D01*
X137310316Y-121153803D01*
X137304504Y-121177007D01*
X137296446Y-121199529D01*
X137286218Y-121221153D01*
X137273921Y-121241670D01*
X137259671Y-121260883D01*
X137243607Y-121278607D01*
X137225883Y-121294671D01*
X137206670Y-121308921D01*
X137186153Y-121321218D01*
X137164529Y-121331446D01*
X137142007Y-121339504D01*
X137118803Y-121345316D01*
X137095142Y-121348826D01*
X137071250Y-121350000D01*
X136583750Y-121350000D01*
X136559858Y-121348826D01*
X136536197Y-121345316D01*
X136512993Y-121339504D01*
X136490471Y-121331446D01*
X136468847Y-121321218D01*
X136448330Y-121308921D01*
X136429117Y-121294671D01*
X136411393Y-121278607D01*
X136395329Y-121260883D01*
X136381079Y-121241670D01*
X136368782Y-121221153D01*
X136358554Y-121199529D01*
X136350496Y-121177007D01*
X136344684Y-121153803D01*
X136341174Y-121130142D01*
X136340000Y-121106250D01*
X136340000Y-120193750D01*
X136341174Y-120169858D01*
X136344684Y-120146197D01*
X136350496Y-120122993D01*
X136358554Y-120100471D01*
X136368782Y-120078847D01*
X136381079Y-120058330D01*
X136395329Y-120039117D01*
X136411393Y-120021393D01*
X136429117Y-120005329D01*
X136448330Y-119991079D01*
X136468847Y-119978782D01*
X136490471Y-119968554D01*
X136512993Y-119960496D01*
X136536197Y-119954684D01*
X136559858Y-119951174D01*
X136583750Y-119950000D01*
X137071250Y-119950000D01*
X137095142Y-119951174D01*
X137095142Y-119951174D01*
G37*
D12*
X136827500Y-120650000D03*
D10*
G36*
X137095142Y-118046174D02*
G01*
X137118803Y-118049684D01*
X137142007Y-118055496D01*
X137164529Y-118063554D01*
X137186153Y-118073782D01*
X137206670Y-118086079D01*
X137225883Y-118100329D01*
X137243607Y-118116393D01*
X137259671Y-118134117D01*
X137273921Y-118153330D01*
X137286218Y-118173847D01*
X137296446Y-118195471D01*
X137304504Y-118217993D01*
X137310316Y-118241197D01*
X137313826Y-118264858D01*
X137315000Y-118288750D01*
X137315000Y-119201250D01*
X137313826Y-119225142D01*
X137310316Y-119248803D01*
X137304504Y-119272007D01*
X137296446Y-119294529D01*
X137286218Y-119316153D01*
X137273921Y-119336670D01*
X137259671Y-119355883D01*
X137243607Y-119373607D01*
X137225883Y-119389671D01*
X137206670Y-119403921D01*
X137186153Y-119416218D01*
X137164529Y-119426446D01*
X137142007Y-119434504D01*
X137118803Y-119440316D01*
X137095142Y-119443826D01*
X137071250Y-119445000D01*
X136583750Y-119445000D01*
X136559858Y-119443826D01*
X136536197Y-119440316D01*
X136512993Y-119434504D01*
X136490471Y-119426446D01*
X136468847Y-119416218D01*
X136448330Y-119403921D01*
X136429117Y-119389671D01*
X136411393Y-119373607D01*
X136395329Y-119355883D01*
X136381079Y-119336670D01*
X136368782Y-119316153D01*
X136358554Y-119294529D01*
X136350496Y-119272007D01*
X136344684Y-119248803D01*
X136341174Y-119225142D01*
X136340000Y-119201250D01*
X136340000Y-118288750D01*
X136341174Y-118264858D01*
X136344684Y-118241197D01*
X136350496Y-118217993D01*
X136358554Y-118195471D01*
X136368782Y-118173847D01*
X136381079Y-118153330D01*
X136395329Y-118134117D01*
X136411393Y-118116393D01*
X136429117Y-118100329D01*
X136448330Y-118086079D01*
X136468847Y-118073782D01*
X136490471Y-118063554D01*
X136512993Y-118055496D01*
X136536197Y-118049684D01*
X136559858Y-118046174D01*
X136583750Y-118045000D01*
X137071250Y-118045000D01*
X137095142Y-118046174D01*
X137095142Y-118046174D01*
G37*
D12*
X136827500Y-118745000D03*
D10*
G36*
X135220142Y-118046174D02*
G01*
X135243803Y-118049684D01*
X135267007Y-118055496D01*
X135289529Y-118063554D01*
X135311153Y-118073782D01*
X135331670Y-118086079D01*
X135350883Y-118100329D01*
X135368607Y-118116393D01*
X135384671Y-118134117D01*
X135398921Y-118153330D01*
X135411218Y-118173847D01*
X135421446Y-118195471D01*
X135429504Y-118217993D01*
X135435316Y-118241197D01*
X135438826Y-118264858D01*
X135440000Y-118288750D01*
X135440000Y-119201250D01*
X135438826Y-119225142D01*
X135435316Y-119248803D01*
X135429504Y-119272007D01*
X135421446Y-119294529D01*
X135411218Y-119316153D01*
X135398921Y-119336670D01*
X135384671Y-119355883D01*
X135368607Y-119373607D01*
X135350883Y-119389671D01*
X135331670Y-119403921D01*
X135311153Y-119416218D01*
X135289529Y-119426446D01*
X135267007Y-119434504D01*
X135243803Y-119440316D01*
X135220142Y-119443826D01*
X135196250Y-119445000D01*
X134708750Y-119445000D01*
X134684858Y-119443826D01*
X134661197Y-119440316D01*
X134637993Y-119434504D01*
X134615471Y-119426446D01*
X134593847Y-119416218D01*
X134573330Y-119403921D01*
X134554117Y-119389671D01*
X134536393Y-119373607D01*
X134520329Y-119355883D01*
X134506079Y-119336670D01*
X134493782Y-119316153D01*
X134483554Y-119294529D01*
X134475496Y-119272007D01*
X134469684Y-119248803D01*
X134466174Y-119225142D01*
X134465000Y-119201250D01*
X134465000Y-118288750D01*
X134466174Y-118264858D01*
X134469684Y-118241197D01*
X134475496Y-118217993D01*
X134483554Y-118195471D01*
X134493782Y-118173847D01*
X134506079Y-118153330D01*
X134520329Y-118134117D01*
X134536393Y-118116393D01*
X134554117Y-118100329D01*
X134573330Y-118086079D01*
X134593847Y-118073782D01*
X134615471Y-118063554D01*
X134637993Y-118055496D01*
X134661197Y-118049684D01*
X134684858Y-118046174D01*
X134708750Y-118045000D01*
X135196250Y-118045000D01*
X135220142Y-118046174D01*
X135220142Y-118046174D01*
G37*
D12*
X134952500Y-118745000D03*
D10*
G36*
X135220142Y-104076174D02*
G01*
X135243803Y-104079684D01*
X135267007Y-104085496D01*
X135289529Y-104093554D01*
X135311153Y-104103782D01*
X135331670Y-104116079D01*
X135350883Y-104130329D01*
X135368607Y-104146393D01*
X135384671Y-104164117D01*
X135398921Y-104183330D01*
X135411218Y-104203847D01*
X135421446Y-104225471D01*
X135429504Y-104247993D01*
X135435316Y-104271197D01*
X135438826Y-104294858D01*
X135440000Y-104318750D01*
X135440000Y-105231250D01*
X135438826Y-105255142D01*
X135435316Y-105278803D01*
X135429504Y-105302007D01*
X135421446Y-105324529D01*
X135411218Y-105346153D01*
X135398921Y-105366670D01*
X135384671Y-105385883D01*
X135368607Y-105403607D01*
X135350883Y-105419671D01*
X135331670Y-105433921D01*
X135311153Y-105446218D01*
X135289529Y-105456446D01*
X135267007Y-105464504D01*
X135243803Y-105470316D01*
X135220142Y-105473826D01*
X135196250Y-105475000D01*
X134708750Y-105475000D01*
X134684858Y-105473826D01*
X134661197Y-105470316D01*
X134637993Y-105464504D01*
X134615471Y-105456446D01*
X134593847Y-105446218D01*
X134573330Y-105433921D01*
X134554117Y-105419671D01*
X134536393Y-105403607D01*
X134520329Y-105385883D01*
X134506079Y-105366670D01*
X134493782Y-105346153D01*
X134483554Y-105324529D01*
X134475496Y-105302007D01*
X134469684Y-105278803D01*
X134466174Y-105255142D01*
X134465000Y-105231250D01*
X134465000Y-104318750D01*
X134466174Y-104294858D01*
X134469684Y-104271197D01*
X134475496Y-104247993D01*
X134483554Y-104225471D01*
X134493782Y-104203847D01*
X134506079Y-104183330D01*
X134520329Y-104164117D01*
X134536393Y-104146393D01*
X134554117Y-104130329D01*
X134573330Y-104116079D01*
X134593847Y-104103782D01*
X134615471Y-104093554D01*
X134637993Y-104085496D01*
X134661197Y-104079684D01*
X134684858Y-104076174D01*
X134708750Y-104075000D01*
X135196250Y-104075000D01*
X135220142Y-104076174D01*
X135220142Y-104076174D01*
G37*
D12*
X134952500Y-104775000D03*
D10*
G36*
X137095142Y-104076174D02*
G01*
X137118803Y-104079684D01*
X137142007Y-104085496D01*
X137164529Y-104093554D01*
X137186153Y-104103782D01*
X137206670Y-104116079D01*
X137225883Y-104130329D01*
X137243607Y-104146393D01*
X137259671Y-104164117D01*
X137273921Y-104183330D01*
X137286218Y-104203847D01*
X137296446Y-104225471D01*
X137304504Y-104247993D01*
X137310316Y-104271197D01*
X137313826Y-104294858D01*
X137315000Y-104318750D01*
X137315000Y-105231250D01*
X137313826Y-105255142D01*
X137310316Y-105278803D01*
X137304504Y-105302007D01*
X137296446Y-105324529D01*
X137286218Y-105346153D01*
X137273921Y-105366670D01*
X137259671Y-105385883D01*
X137243607Y-105403607D01*
X137225883Y-105419671D01*
X137206670Y-105433921D01*
X137186153Y-105446218D01*
X137164529Y-105456446D01*
X137142007Y-105464504D01*
X137118803Y-105470316D01*
X137095142Y-105473826D01*
X137071250Y-105475000D01*
X136583750Y-105475000D01*
X136559858Y-105473826D01*
X136536197Y-105470316D01*
X136512993Y-105464504D01*
X136490471Y-105456446D01*
X136468847Y-105446218D01*
X136448330Y-105433921D01*
X136429117Y-105419671D01*
X136411393Y-105403607D01*
X136395329Y-105385883D01*
X136381079Y-105366670D01*
X136368782Y-105346153D01*
X136358554Y-105324529D01*
X136350496Y-105302007D01*
X136344684Y-105278803D01*
X136341174Y-105255142D01*
X136340000Y-105231250D01*
X136340000Y-104318750D01*
X136341174Y-104294858D01*
X136344684Y-104271197D01*
X136350496Y-104247993D01*
X136358554Y-104225471D01*
X136368782Y-104203847D01*
X136381079Y-104183330D01*
X136395329Y-104164117D01*
X136411393Y-104146393D01*
X136429117Y-104130329D01*
X136448330Y-104116079D01*
X136468847Y-104103782D01*
X136490471Y-104093554D01*
X136512993Y-104085496D01*
X136536197Y-104079684D01*
X136559858Y-104076174D01*
X136583750Y-104075000D01*
X137071250Y-104075000D01*
X137095142Y-104076174D01*
X137095142Y-104076174D01*
G37*
D12*
X136827500Y-104775000D03*
D10*
G36*
X137095142Y-102171174D02*
G01*
X137118803Y-102174684D01*
X137142007Y-102180496D01*
X137164529Y-102188554D01*
X137186153Y-102198782D01*
X137206670Y-102211079D01*
X137225883Y-102225329D01*
X137243607Y-102241393D01*
X137259671Y-102259117D01*
X137273921Y-102278330D01*
X137286218Y-102298847D01*
X137296446Y-102320471D01*
X137304504Y-102342993D01*
X137310316Y-102366197D01*
X137313826Y-102389858D01*
X137315000Y-102413750D01*
X137315000Y-103326250D01*
X137313826Y-103350142D01*
X137310316Y-103373803D01*
X137304504Y-103397007D01*
X137296446Y-103419529D01*
X137286218Y-103441153D01*
X137273921Y-103461670D01*
X137259671Y-103480883D01*
X137243607Y-103498607D01*
X137225883Y-103514671D01*
X137206670Y-103528921D01*
X137186153Y-103541218D01*
X137164529Y-103551446D01*
X137142007Y-103559504D01*
X137118803Y-103565316D01*
X137095142Y-103568826D01*
X137071250Y-103570000D01*
X136583750Y-103570000D01*
X136559858Y-103568826D01*
X136536197Y-103565316D01*
X136512993Y-103559504D01*
X136490471Y-103551446D01*
X136468847Y-103541218D01*
X136448330Y-103528921D01*
X136429117Y-103514671D01*
X136411393Y-103498607D01*
X136395329Y-103480883D01*
X136381079Y-103461670D01*
X136368782Y-103441153D01*
X136358554Y-103419529D01*
X136350496Y-103397007D01*
X136344684Y-103373803D01*
X136341174Y-103350142D01*
X136340000Y-103326250D01*
X136340000Y-102413750D01*
X136341174Y-102389858D01*
X136344684Y-102366197D01*
X136350496Y-102342993D01*
X136358554Y-102320471D01*
X136368782Y-102298847D01*
X136381079Y-102278330D01*
X136395329Y-102259117D01*
X136411393Y-102241393D01*
X136429117Y-102225329D01*
X136448330Y-102211079D01*
X136468847Y-102198782D01*
X136490471Y-102188554D01*
X136512993Y-102180496D01*
X136536197Y-102174684D01*
X136559858Y-102171174D01*
X136583750Y-102170000D01*
X137071250Y-102170000D01*
X137095142Y-102171174D01*
X137095142Y-102171174D01*
G37*
D12*
X136827500Y-102870000D03*
D10*
G36*
X135220142Y-102171174D02*
G01*
X135243803Y-102174684D01*
X135267007Y-102180496D01*
X135289529Y-102188554D01*
X135311153Y-102198782D01*
X135331670Y-102211079D01*
X135350883Y-102225329D01*
X135368607Y-102241393D01*
X135384671Y-102259117D01*
X135398921Y-102278330D01*
X135411218Y-102298847D01*
X135421446Y-102320471D01*
X135429504Y-102342993D01*
X135435316Y-102366197D01*
X135438826Y-102389858D01*
X135440000Y-102413750D01*
X135440000Y-103326250D01*
X135438826Y-103350142D01*
X135435316Y-103373803D01*
X135429504Y-103397007D01*
X135421446Y-103419529D01*
X135411218Y-103441153D01*
X135398921Y-103461670D01*
X135384671Y-103480883D01*
X135368607Y-103498607D01*
X135350883Y-103514671D01*
X135331670Y-103528921D01*
X135311153Y-103541218D01*
X135289529Y-103551446D01*
X135267007Y-103559504D01*
X135243803Y-103565316D01*
X135220142Y-103568826D01*
X135196250Y-103570000D01*
X134708750Y-103570000D01*
X134684858Y-103568826D01*
X134661197Y-103565316D01*
X134637993Y-103559504D01*
X134615471Y-103551446D01*
X134593847Y-103541218D01*
X134573330Y-103528921D01*
X134554117Y-103514671D01*
X134536393Y-103498607D01*
X134520329Y-103480883D01*
X134506079Y-103461670D01*
X134493782Y-103441153D01*
X134483554Y-103419529D01*
X134475496Y-103397007D01*
X134469684Y-103373803D01*
X134466174Y-103350142D01*
X134465000Y-103326250D01*
X134465000Y-102413750D01*
X134466174Y-102389858D01*
X134469684Y-102366197D01*
X134475496Y-102342993D01*
X134483554Y-102320471D01*
X134493782Y-102298847D01*
X134506079Y-102278330D01*
X134520329Y-102259117D01*
X134536393Y-102241393D01*
X134554117Y-102225329D01*
X134573330Y-102211079D01*
X134593847Y-102198782D01*
X134615471Y-102188554D01*
X134637993Y-102180496D01*
X134661197Y-102174684D01*
X134684858Y-102171174D01*
X134708750Y-102170000D01*
X135196250Y-102170000D01*
X135220142Y-102171174D01*
X135220142Y-102171174D01*
G37*
D12*
X134952500Y-102870000D03*
D10*
G36*
X135220142Y-100266174D02*
G01*
X135243803Y-100269684D01*
X135267007Y-100275496D01*
X135289529Y-100283554D01*
X135311153Y-100293782D01*
X135331670Y-100306079D01*
X135350883Y-100320329D01*
X135368607Y-100336393D01*
X135384671Y-100354117D01*
X135398921Y-100373330D01*
X135411218Y-100393847D01*
X135421446Y-100415471D01*
X135429504Y-100437993D01*
X135435316Y-100461197D01*
X135438826Y-100484858D01*
X135440000Y-100508750D01*
X135440000Y-101421250D01*
X135438826Y-101445142D01*
X135435316Y-101468803D01*
X135429504Y-101492007D01*
X135421446Y-101514529D01*
X135411218Y-101536153D01*
X135398921Y-101556670D01*
X135384671Y-101575883D01*
X135368607Y-101593607D01*
X135350883Y-101609671D01*
X135331670Y-101623921D01*
X135311153Y-101636218D01*
X135289529Y-101646446D01*
X135267007Y-101654504D01*
X135243803Y-101660316D01*
X135220142Y-101663826D01*
X135196250Y-101665000D01*
X134708750Y-101665000D01*
X134684858Y-101663826D01*
X134661197Y-101660316D01*
X134637993Y-101654504D01*
X134615471Y-101646446D01*
X134593847Y-101636218D01*
X134573330Y-101623921D01*
X134554117Y-101609671D01*
X134536393Y-101593607D01*
X134520329Y-101575883D01*
X134506079Y-101556670D01*
X134493782Y-101536153D01*
X134483554Y-101514529D01*
X134475496Y-101492007D01*
X134469684Y-101468803D01*
X134466174Y-101445142D01*
X134465000Y-101421250D01*
X134465000Y-100508750D01*
X134466174Y-100484858D01*
X134469684Y-100461197D01*
X134475496Y-100437993D01*
X134483554Y-100415471D01*
X134493782Y-100393847D01*
X134506079Y-100373330D01*
X134520329Y-100354117D01*
X134536393Y-100336393D01*
X134554117Y-100320329D01*
X134573330Y-100306079D01*
X134593847Y-100293782D01*
X134615471Y-100283554D01*
X134637993Y-100275496D01*
X134661197Y-100269684D01*
X134684858Y-100266174D01*
X134708750Y-100265000D01*
X135196250Y-100265000D01*
X135220142Y-100266174D01*
X135220142Y-100266174D01*
G37*
D12*
X134952500Y-100965000D03*
D10*
G36*
X137095142Y-100266174D02*
G01*
X137118803Y-100269684D01*
X137142007Y-100275496D01*
X137164529Y-100283554D01*
X137186153Y-100293782D01*
X137206670Y-100306079D01*
X137225883Y-100320329D01*
X137243607Y-100336393D01*
X137259671Y-100354117D01*
X137273921Y-100373330D01*
X137286218Y-100393847D01*
X137296446Y-100415471D01*
X137304504Y-100437993D01*
X137310316Y-100461197D01*
X137313826Y-100484858D01*
X137315000Y-100508750D01*
X137315000Y-101421250D01*
X137313826Y-101445142D01*
X137310316Y-101468803D01*
X137304504Y-101492007D01*
X137296446Y-101514529D01*
X137286218Y-101536153D01*
X137273921Y-101556670D01*
X137259671Y-101575883D01*
X137243607Y-101593607D01*
X137225883Y-101609671D01*
X137206670Y-101623921D01*
X137186153Y-101636218D01*
X137164529Y-101646446D01*
X137142007Y-101654504D01*
X137118803Y-101660316D01*
X137095142Y-101663826D01*
X137071250Y-101665000D01*
X136583750Y-101665000D01*
X136559858Y-101663826D01*
X136536197Y-101660316D01*
X136512993Y-101654504D01*
X136490471Y-101646446D01*
X136468847Y-101636218D01*
X136448330Y-101623921D01*
X136429117Y-101609671D01*
X136411393Y-101593607D01*
X136395329Y-101575883D01*
X136381079Y-101556670D01*
X136368782Y-101536153D01*
X136358554Y-101514529D01*
X136350496Y-101492007D01*
X136344684Y-101468803D01*
X136341174Y-101445142D01*
X136340000Y-101421250D01*
X136340000Y-100508750D01*
X136341174Y-100484858D01*
X136344684Y-100461197D01*
X136350496Y-100437993D01*
X136358554Y-100415471D01*
X136368782Y-100393847D01*
X136381079Y-100373330D01*
X136395329Y-100354117D01*
X136411393Y-100336393D01*
X136429117Y-100320329D01*
X136448330Y-100306079D01*
X136468847Y-100293782D01*
X136490471Y-100283554D01*
X136512993Y-100275496D01*
X136536197Y-100269684D01*
X136559858Y-100266174D01*
X136583750Y-100265000D01*
X137071250Y-100265000D01*
X137095142Y-100266174D01*
X137095142Y-100266174D01*
G37*
D12*
X136827500Y-100965000D03*
D10*
G36*
X149444142Y-90487174D02*
G01*
X149467803Y-90490684D01*
X149491007Y-90496496D01*
X149513529Y-90504554D01*
X149535153Y-90514782D01*
X149555670Y-90527079D01*
X149574883Y-90541329D01*
X149592607Y-90557393D01*
X149608671Y-90575117D01*
X149622921Y-90594330D01*
X149635218Y-90614847D01*
X149645446Y-90636471D01*
X149653504Y-90658993D01*
X149659316Y-90682197D01*
X149662826Y-90705858D01*
X149664000Y-90729750D01*
X149664000Y-91642250D01*
X149662826Y-91666142D01*
X149659316Y-91689803D01*
X149653504Y-91713007D01*
X149645446Y-91735529D01*
X149635218Y-91757153D01*
X149622921Y-91777670D01*
X149608671Y-91796883D01*
X149592607Y-91814607D01*
X149574883Y-91830671D01*
X149555670Y-91844921D01*
X149535153Y-91857218D01*
X149513529Y-91867446D01*
X149491007Y-91875504D01*
X149467803Y-91881316D01*
X149444142Y-91884826D01*
X149420250Y-91886000D01*
X148932750Y-91886000D01*
X148908858Y-91884826D01*
X148885197Y-91881316D01*
X148861993Y-91875504D01*
X148839471Y-91867446D01*
X148817847Y-91857218D01*
X148797330Y-91844921D01*
X148778117Y-91830671D01*
X148760393Y-91814607D01*
X148744329Y-91796883D01*
X148730079Y-91777670D01*
X148717782Y-91757153D01*
X148707554Y-91735529D01*
X148699496Y-91713007D01*
X148693684Y-91689803D01*
X148690174Y-91666142D01*
X148689000Y-91642250D01*
X148689000Y-90729750D01*
X148690174Y-90705858D01*
X148693684Y-90682197D01*
X148699496Y-90658993D01*
X148707554Y-90636471D01*
X148717782Y-90614847D01*
X148730079Y-90594330D01*
X148744329Y-90575117D01*
X148760393Y-90557393D01*
X148778117Y-90541329D01*
X148797330Y-90527079D01*
X148817847Y-90514782D01*
X148839471Y-90504554D01*
X148861993Y-90496496D01*
X148885197Y-90490684D01*
X148908858Y-90487174D01*
X148932750Y-90486000D01*
X149420250Y-90486000D01*
X149444142Y-90487174D01*
X149444142Y-90487174D01*
G37*
D12*
X149176500Y-91186000D03*
D10*
G36*
X151319142Y-90487174D02*
G01*
X151342803Y-90490684D01*
X151366007Y-90496496D01*
X151388529Y-90504554D01*
X151410153Y-90514782D01*
X151430670Y-90527079D01*
X151449883Y-90541329D01*
X151467607Y-90557393D01*
X151483671Y-90575117D01*
X151497921Y-90594330D01*
X151510218Y-90614847D01*
X151520446Y-90636471D01*
X151528504Y-90658993D01*
X151534316Y-90682197D01*
X151537826Y-90705858D01*
X151539000Y-90729750D01*
X151539000Y-91642250D01*
X151537826Y-91666142D01*
X151534316Y-91689803D01*
X151528504Y-91713007D01*
X151520446Y-91735529D01*
X151510218Y-91757153D01*
X151497921Y-91777670D01*
X151483671Y-91796883D01*
X151467607Y-91814607D01*
X151449883Y-91830671D01*
X151430670Y-91844921D01*
X151410153Y-91857218D01*
X151388529Y-91867446D01*
X151366007Y-91875504D01*
X151342803Y-91881316D01*
X151319142Y-91884826D01*
X151295250Y-91886000D01*
X150807750Y-91886000D01*
X150783858Y-91884826D01*
X150760197Y-91881316D01*
X150736993Y-91875504D01*
X150714471Y-91867446D01*
X150692847Y-91857218D01*
X150672330Y-91844921D01*
X150653117Y-91830671D01*
X150635393Y-91814607D01*
X150619329Y-91796883D01*
X150605079Y-91777670D01*
X150592782Y-91757153D01*
X150582554Y-91735529D01*
X150574496Y-91713007D01*
X150568684Y-91689803D01*
X150565174Y-91666142D01*
X150564000Y-91642250D01*
X150564000Y-90729750D01*
X150565174Y-90705858D01*
X150568684Y-90682197D01*
X150574496Y-90658993D01*
X150582554Y-90636471D01*
X150592782Y-90614847D01*
X150605079Y-90594330D01*
X150619329Y-90575117D01*
X150635393Y-90557393D01*
X150653117Y-90541329D01*
X150672330Y-90527079D01*
X150692847Y-90514782D01*
X150714471Y-90504554D01*
X150736993Y-90496496D01*
X150760197Y-90490684D01*
X150783858Y-90487174D01*
X150807750Y-90486000D01*
X151295250Y-90486000D01*
X151319142Y-90487174D01*
X151319142Y-90487174D01*
G37*
D12*
X151051500Y-91186000D03*
D10*
G36*
X144715142Y-100901174D02*
G01*
X144738803Y-100904684D01*
X144762007Y-100910496D01*
X144784529Y-100918554D01*
X144806153Y-100928782D01*
X144826670Y-100941079D01*
X144845883Y-100955329D01*
X144863607Y-100971393D01*
X144879671Y-100989117D01*
X144893921Y-101008330D01*
X144906218Y-101028847D01*
X144916446Y-101050471D01*
X144924504Y-101072993D01*
X144930316Y-101096197D01*
X144933826Y-101119858D01*
X144935000Y-101143750D01*
X144935000Y-102056250D01*
X144933826Y-102080142D01*
X144930316Y-102103803D01*
X144924504Y-102127007D01*
X144916446Y-102149529D01*
X144906218Y-102171153D01*
X144893921Y-102191670D01*
X144879671Y-102210883D01*
X144863607Y-102228607D01*
X144845883Y-102244671D01*
X144826670Y-102258921D01*
X144806153Y-102271218D01*
X144784529Y-102281446D01*
X144762007Y-102289504D01*
X144738803Y-102295316D01*
X144715142Y-102298826D01*
X144691250Y-102300000D01*
X144203750Y-102300000D01*
X144179858Y-102298826D01*
X144156197Y-102295316D01*
X144132993Y-102289504D01*
X144110471Y-102281446D01*
X144088847Y-102271218D01*
X144068330Y-102258921D01*
X144049117Y-102244671D01*
X144031393Y-102228607D01*
X144015329Y-102210883D01*
X144001079Y-102191670D01*
X143988782Y-102171153D01*
X143978554Y-102149529D01*
X143970496Y-102127007D01*
X143964684Y-102103803D01*
X143961174Y-102080142D01*
X143960000Y-102056250D01*
X143960000Y-101143750D01*
X143961174Y-101119858D01*
X143964684Y-101096197D01*
X143970496Y-101072993D01*
X143978554Y-101050471D01*
X143988782Y-101028847D01*
X144001079Y-101008330D01*
X144015329Y-100989117D01*
X144031393Y-100971393D01*
X144049117Y-100955329D01*
X144068330Y-100941079D01*
X144088847Y-100928782D01*
X144110471Y-100918554D01*
X144132993Y-100910496D01*
X144156197Y-100904684D01*
X144179858Y-100901174D01*
X144203750Y-100900000D01*
X144691250Y-100900000D01*
X144715142Y-100901174D01*
X144715142Y-100901174D01*
G37*
D12*
X144447500Y-101600000D03*
D10*
G36*
X142840142Y-100901174D02*
G01*
X142863803Y-100904684D01*
X142887007Y-100910496D01*
X142909529Y-100918554D01*
X142931153Y-100928782D01*
X142951670Y-100941079D01*
X142970883Y-100955329D01*
X142988607Y-100971393D01*
X143004671Y-100989117D01*
X143018921Y-101008330D01*
X143031218Y-101028847D01*
X143041446Y-101050471D01*
X143049504Y-101072993D01*
X143055316Y-101096197D01*
X143058826Y-101119858D01*
X143060000Y-101143750D01*
X143060000Y-102056250D01*
X143058826Y-102080142D01*
X143055316Y-102103803D01*
X143049504Y-102127007D01*
X143041446Y-102149529D01*
X143031218Y-102171153D01*
X143018921Y-102191670D01*
X143004671Y-102210883D01*
X142988607Y-102228607D01*
X142970883Y-102244671D01*
X142951670Y-102258921D01*
X142931153Y-102271218D01*
X142909529Y-102281446D01*
X142887007Y-102289504D01*
X142863803Y-102295316D01*
X142840142Y-102298826D01*
X142816250Y-102300000D01*
X142328750Y-102300000D01*
X142304858Y-102298826D01*
X142281197Y-102295316D01*
X142257993Y-102289504D01*
X142235471Y-102281446D01*
X142213847Y-102271218D01*
X142193330Y-102258921D01*
X142174117Y-102244671D01*
X142156393Y-102228607D01*
X142140329Y-102210883D01*
X142126079Y-102191670D01*
X142113782Y-102171153D01*
X142103554Y-102149529D01*
X142095496Y-102127007D01*
X142089684Y-102103803D01*
X142086174Y-102080142D01*
X142085000Y-102056250D01*
X142085000Y-101143750D01*
X142086174Y-101119858D01*
X142089684Y-101096197D01*
X142095496Y-101072993D01*
X142103554Y-101050471D01*
X142113782Y-101028847D01*
X142126079Y-101008330D01*
X142140329Y-100989117D01*
X142156393Y-100971393D01*
X142174117Y-100955329D01*
X142193330Y-100941079D01*
X142213847Y-100928782D01*
X142235471Y-100918554D01*
X142257993Y-100910496D01*
X142281197Y-100904684D01*
X142304858Y-100901174D01*
X142328750Y-100900000D01*
X142816250Y-100900000D01*
X142840142Y-100901174D01*
X142840142Y-100901174D01*
G37*
D12*
X142572500Y-101600000D03*
D10*
G36*
X142791642Y-103187174D02*
G01*
X142815303Y-103190684D01*
X142838507Y-103196496D01*
X142861029Y-103204554D01*
X142882653Y-103214782D01*
X142903170Y-103227079D01*
X142922383Y-103241329D01*
X142940107Y-103257393D01*
X142956171Y-103275117D01*
X142970421Y-103294330D01*
X142982718Y-103314847D01*
X142992946Y-103336471D01*
X143001004Y-103358993D01*
X143006816Y-103382197D01*
X143010326Y-103405858D01*
X143011500Y-103429750D01*
X143011500Y-104342250D01*
X143010326Y-104366142D01*
X143006816Y-104389803D01*
X143001004Y-104413007D01*
X142992946Y-104435529D01*
X142982718Y-104457153D01*
X142970421Y-104477670D01*
X142956171Y-104496883D01*
X142940107Y-104514607D01*
X142922383Y-104530671D01*
X142903170Y-104544921D01*
X142882653Y-104557218D01*
X142861029Y-104567446D01*
X142838507Y-104575504D01*
X142815303Y-104581316D01*
X142791642Y-104584826D01*
X142767750Y-104586000D01*
X142280250Y-104586000D01*
X142256358Y-104584826D01*
X142232697Y-104581316D01*
X142209493Y-104575504D01*
X142186971Y-104567446D01*
X142165347Y-104557218D01*
X142144830Y-104544921D01*
X142125617Y-104530671D01*
X142107893Y-104514607D01*
X142091829Y-104496883D01*
X142077579Y-104477670D01*
X142065282Y-104457153D01*
X142055054Y-104435529D01*
X142046996Y-104413007D01*
X142041184Y-104389803D01*
X142037674Y-104366142D01*
X142036500Y-104342250D01*
X142036500Y-103429750D01*
X142037674Y-103405858D01*
X142041184Y-103382197D01*
X142046996Y-103358993D01*
X142055054Y-103336471D01*
X142065282Y-103314847D01*
X142077579Y-103294330D01*
X142091829Y-103275117D01*
X142107893Y-103257393D01*
X142125617Y-103241329D01*
X142144830Y-103227079D01*
X142165347Y-103214782D01*
X142186971Y-103204554D01*
X142209493Y-103196496D01*
X142232697Y-103190684D01*
X142256358Y-103187174D01*
X142280250Y-103186000D01*
X142767750Y-103186000D01*
X142791642Y-103187174D01*
X142791642Y-103187174D01*
G37*
D12*
X142524000Y-103886000D03*
D10*
G36*
X144666642Y-103187174D02*
G01*
X144690303Y-103190684D01*
X144713507Y-103196496D01*
X144736029Y-103204554D01*
X144757653Y-103214782D01*
X144778170Y-103227079D01*
X144797383Y-103241329D01*
X144815107Y-103257393D01*
X144831171Y-103275117D01*
X144845421Y-103294330D01*
X144857718Y-103314847D01*
X144867946Y-103336471D01*
X144876004Y-103358993D01*
X144881816Y-103382197D01*
X144885326Y-103405858D01*
X144886500Y-103429750D01*
X144886500Y-104342250D01*
X144885326Y-104366142D01*
X144881816Y-104389803D01*
X144876004Y-104413007D01*
X144867946Y-104435529D01*
X144857718Y-104457153D01*
X144845421Y-104477670D01*
X144831171Y-104496883D01*
X144815107Y-104514607D01*
X144797383Y-104530671D01*
X144778170Y-104544921D01*
X144757653Y-104557218D01*
X144736029Y-104567446D01*
X144713507Y-104575504D01*
X144690303Y-104581316D01*
X144666642Y-104584826D01*
X144642750Y-104586000D01*
X144155250Y-104586000D01*
X144131358Y-104584826D01*
X144107697Y-104581316D01*
X144084493Y-104575504D01*
X144061971Y-104567446D01*
X144040347Y-104557218D01*
X144019830Y-104544921D01*
X144000617Y-104530671D01*
X143982893Y-104514607D01*
X143966829Y-104496883D01*
X143952579Y-104477670D01*
X143940282Y-104457153D01*
X143930054Y-104435529D01*
X143921996Y-104413007D01*
X143916184Y-104389803D01*
X143912674Y-104366142D01*
X143911500Y-104342250D01*
X143911500Y-103429750D01*
X143912674Y-103405858D01*
X143916184Y-103382197D01*
X143921996Y-103358993D01*
X143930054Y-103336471D01*
X143940282Y-103314847D01*
X143952579Y-103294330D01*
X143966829Y-103275117D01*
X143982893Y-103257393D01*
X144000617Y-103241329D01*
X144019830Y-103227079D01*
X144040347Y-103214782D01*
X144061971Y-103204554D01*
X144084493Y-103196496D01*
X144107697Y-103190684D01*
X144131358Y-103187174D01*
X144155250Y-103186000D01*
X144642750Y-103186000D01*
X144666642Y-103187174D01*
X144666642Y-103187174D01*
G37*
D12*
X144399000Y-103886000D03*
D10*
G36*
X144618142Y-121983174D02*
G01*
X144641803Y-121986684D01*
X144665007Y-121992496D01*
X144687529Y-122000554D01*
X144709153Y-122010782D01*
X144729670Y-122023079D01*
X144748883Y-122037329D01*
X144766607Y-122053393D01*
X144782671Y-122071117D01*
X144796921Y-122090330D01*
X144809218Y-122110847D01*
X144819446Y-122132471D01*
X144827504Y-122154993D01*
X144833316Y-122178197D01*
X144836826Y-122201858D01*
X144838000Y-122225750D01*
X144838000Y-123138250D01*
X144836826Y-123162142D01*
X144833316Y-123185803D01*
X144827504Y-123209007D01*
X144819446Y-123231529D01*
X144809218Y-123253153D01*
X144796921Y-123273670D01*
X144782671Y-123292883D01*
X144766607Y-123310607D01*
X144748883Y-123326671D01*
X144729670Y-123340921D01*
X144709153Y-123353218D01*
X144687529Y-123363446D01*
X144665007Y-123371504D01*
X144641803Y-123377316D01*
X144618142Y-123380826D01*
X144594250Y-123382000D01*
X144106750Y-123382000D01*
X144082858Y-123380826D01*
X144059197Y-123377316D01*
X144035993Y-123371504D01*
X144013471Y-123363446D01*
X143991847Y-123353218D01*
X143971330Y-123340921D01*
X143952117Y-123326671D01*
X143934393Y-123310607D01*
X143918329Y-123292883D01*
X143904079Y-123273670D01*
X143891782Y-123253153D01*
X143881554Y-123231529D01*
X143873496Y-123209007D01*
X143867684Y-123185803D01*
X143864174Y-123162142D01*
X143863000Y-123138250D01*
X143863000Y-122225750D01*
X143864174Y-122201858D01*
X143867684Y-122178197D01*
X143873496Y-122154993D01*
X143881554Y-122132471D01*
X143891782Y-122110847D01*
X143904079Y-122090330D01*
X143918329Y-122071117D01*
X143934393Y-122053393D01*
X143952117Y-122037329D01*
X143971330Y-122023079D01*
X143991847Y-122010782D01*
X144013471Y-122000554D01*
X144035993Y-121992496D01*
X144059197Y-121986684D01*
X144082858Y-121983174D01*
X144106750Y-121982000D01*
X144594250Y-121982000D01*
X144618142Y-121983174D01*
X144618142Y-121983174D01*
G37*
D12*
X144350500Y-122682000D03*
D10*
G36*
X146493142Y-121983174D02*
G01*
X146516803Y-121986684D01*
X146540007Y-121992496D01*
X146562529Y-122000554D01*
X146584153Y-122010782D01*
X146604670Y-122023079D01*
X146623883Y-122037329D01*
X146641607Y-122053393D01*
X146657671Y-122071117D01*
X146671921Y-122090330D01*
X146684218Y-122110847D01*
X146694446Y-122132471D01*
X146702504Y-122154993D01*
X146708316Y-122178197D01*
X146711826Y-122201858D01*
X146713000Y-122225750D01*
X146713000Y-123138250D01*
X146711826Y-123162142D01*
X146708316Y-123185803D01*
X146702504Y-123209007D01*
X146694446Y-123231529D01*
X146684218Y-123253153D01*
X146671921Y-123273670D01*
X146657671Y-123292883D01*
X146641607Y-123310607D01*
X146623883Y-123326671D01*
X146604670Y-123340921D01*
X146584153Y-123353218D01*
X146562529Y-123363446D01*
X146540007Y-123371504D01*
X146516803Y-123377316D01*
X146493142Y-123380826D01*
X146469250Y-123382000D01*
X145981750Y-123382000D01*
X145957858Y-123380826D01*
X145934197Y-123377316D01*
X145910993Y-123371504D01*
X145888471Y-123363446D01*
X145866847Y-123353218D01*
X145846330Y-123340921D01*
X145827117Y-123326671D01*
X145809393Y-123310607D01*
X145793329Y-123292883D01*
X145779079Y-123273670D01*
X145766782Y-123253153D01*
X145756554Y-123231529D01*
X145748496Y-123209007D01*
X145742684Y-123185803D01*
X145739174Y-123162142D01*
X145738000Y-123138250D01*
X145738000Y-122225750D01*
X145739174Y-122201858D01*
X145742684Y-122178197D01*
X145748496Y-122154993D01*
X145756554Y-122132471D01*
X145766782Y-122110847D01*
X145779079Y-122090330D01*
X145793329Y-122071117D01*
X145809393Y-122053393D01*
X145827117Y-122037329D01*
X145846330Y-122023079D01*
X145866847Y-122010782D01*
X145888471Y-122000554D01*
X145910993Y-121992496D01*
X145934197Y-121986684D01*
X145957858Y-121983174D01*
X145981750Y-121982000D01*
X146469250Y-121982000D01*
X146493142Y-121983174D01*
X146493142Y-121983174D01*
G37*
D12*
X146225500Y-122682000D03*
D10*
G36*
X142751242Y-121983174D02*
G01*
X142774903Y-121986684D01*
X142798107Y-121992496D01*
X142820629Y-122000554D01*
X142842253Y-122010782D01*
X142862770Y-122023079D01*
X142881983Y-122037329D01*
X142899707Y-122053393D01*
X142915771Y-122071117D01*
X142930021Y-122090330D01*
X142942318Y-122110847D01*
X142952546Y-122132471D01*
X142960604Y-122154993D01*
X142966416Y-122178197D01*
X142969926Y-122201858D01*
X142971100Y-122225750D01*
X142971100Y-123138250D01*
X142969926Y-123162142D01*
X142966416Y-123185803D01*
X142960604Y-123209007D01*
X142952546Y-123231529D01*
X142942318Y-123253153D01*
X142930021Y-123273670D01*
X142915771Y-123292883D01*
X142899707Y-123310607D01*
X142881983Y-123326671D01*
X142862770Y-123340921D01*
X142842253Y-123353218D01*
X142820629Y-123363446D01*
X142798107Y-123371504D01*
X142774903Y-123377316D01*
X142751242Y-123380826D01*
X142727350Y-123382000D01*
X142239850Y-123382000D01*
X142215958Y-123380826D01*
X142192297Y-123377316D01*
X142169093Y-123371504D01*
X142146571Y-123363446D01*
X142124947Y-123353218D01*
X142104430Y-123340921D01*
X142085217Y-123326671D01*
X142067493Y-123310607D01*
X142051429Y-123292883D01*
X142037179Y-123273670D01*
X142024882Y-123253153D01*
X142014654Y-123231529D01*
X142006596Y-123209007D01*
X142000784Y-123185803D01*
X141997274Y-123162142D01*
X141996100Y-123138250D01*
X141996100Y-122225750D01*
X141997274Y-122201858D01*
X142000784Y-122178197D01*
X142006596Y-122154993D01*
X142014654Y-122132471D01*
X142024882Y-122110847D01*
X142037179Y-122090330D01*
X142051429Y-122071117D01*
X142067493Y-122053393D01*
X142085217Y-122037329D01*
X142104430Y-122023079D01*
X142124947Y-122010782D01*
X142146571Y-122000554D01*
X142169093Y-121992496D01*
X142192297Y-121986684D01*
X142215958Y-121983174D01*
X142239850Y-121982000D01*
X142727350Y-121982000D01*
X142751242Y-121983174D01*
X142751242Y-121983174D01*
G37*
D12*
X142483600Y-122682000D03*
D10*
G36*
X128616142Y-87693174D02*
G01*
X128639803Y-87696684D01*
X128663007Y-87702496D01*
X128685529Y-87710554D01*
X128707153Y-87720782D01*
X128727670Y-87733079D01*
X128746883Y-87747329D01*
X128764607Y-87763393D01*
X128780671Y-87781117D01*
X128794921Y-87800330D01*
X128807218Y-87820847D01*
X128817446Y-87842471D01*
X128825504Y-87864993D01*
X128831316Y-87888197D01*
X128834826Y-87911858D01*
X128836000Y-87935750D01*
X128836000Y-88848250D01*
X128834826Y-88872142D01*
X128831316Y-88895803D01*
X128825504Y-88919007D01*
X128817446Y-88941529D01*
X128807218Y-88963153D01*
X128794921Y-88983670D01*
X128780671Y-89002883D01*
X128764607Y-89020607D01*
X128746883Y-89036671D01*
X128727670Y-89050921D01*
X128707153Y-89063218D01*
X128685529Y-89073446D01*
X128663007Y-89081504D01*
X128639803Y-89087316D01*
X128616142Y-89090826D01*
X128592250Y-89092000D01*
X128104750Y-89092000D01*
X128080858Y-89090826D01*
X128057197Y-89087316D01*
X128033993Y-89081504D01*
X128011471Y-89073446D01*
X127989847Y-89063218D01*
X127969330Y-89050921D01*
X127950117Y-89036671D01*
X127932393Y-89020607D01*
X127916329Y-89002883D01*
X127902079Y-88983670D01*
X127889782Y-88963153D01*
X127879554Y-88941529D01*
X127871496Y-88919007D01*
X127865684Y-88895803D01*
X127862174Y-88872142D01*
X127861000Y-88848250D01*
X127861000Y-87935750D01*
X127862174Y-87911858D01*
X127865684Y-87888197D01*
X127871496Y-87864993D01*
X127879554Y-87842471D01*
X127889782Y-87820847D01*
X127902079Y-87800330D01*
X127916329Y-87781117D01*
X127932393Y-87763393D01*
X127950117Y-87747329D01*
X127969330Y-87733079D01*
X127989847Y-87720782D01*
X128011471Y-87710554D01*
X128033993Y-87702496D01*
X128057197Y-87696684D01*
X128080858Y-87693174D01*
X128104750Y-87692000D01*
X128592250Y-87692000D01*
X128616142Y-87693174D01*
X128616142Y-87693174D01*
G37*
D12*
X128348500Y-88392000D03*
D10*
G36*
X130491142Y-87693174D02*
G01*
X130514803Y-87696684D01*
X130538007Y-87702496D01*
X130560529Y-87710554D01*
X130582153Y-87720782D01*
X130602670Y-87733079D01*
X130621883Y-87747329D01*
X130639607Y-87763393D01*
X130655671Y-87781117D01*
X130669921Y-87800330D01*
X130682218Y-87820847D01*
X130692446Y-87842471D01*
X130700504Y-87864993D01*
X130706316Y-87888197D01*
X130709826Y-87911858D01*
X130711000Y-87935750D01*
X130711000Y-88848250D01*
X130709826Y-88872142D01*
X130706316Y-88895803D01*
X130700504Y-88919007D01*
X130692446Y-88941529D01*
X130682218Y-88963153D01*
X130669921Y-88983670D01*
X130655671Y-89002883D01*
X130639607Y-89020607D01*
X130621883Y-89036671D01*
X130602670Y-89050921D01*
X130582153Y-89063218D01*
X130560529Y-89073446D01*
X130538007Y-89081504D01*
X130514803Y-89087316D01*
X130491142Y-89090826D01*
X130467250Y-89092000D01*
X129979750Y-89092000D01*
X129955858Y-89090826D01*
X129932197Y-89087316D01*
X129908993Y-89081504D01*
X129886471Y-89073446D01*
X129864847Y-89063218D01*
X129844330Y-89050921D01*
X129825117Y-89036671D01*
X129807393Y-89020607D01*
X129791329Y-89002883D01*
X129777079Y-88983670D01*
X129764782Y-88963153D01*
X129754554Y-88941529D01*
X129746496Y-88919007D01*
X129740684Y-88895803D01*
X129737174Y-88872142D01*
X129736000Y-88848250D01*
X129736000Y-87935750D01*
X129737174Y-87911858D01*
X129740684Y-87888197D01*
X129746496Y-87864993D01*
X129754554Y-87842471D01*
X129764782Y-87820847D01*
X129777079Y-87800330D01*
X129791329Y-87781117D01*
X129807393Y-87763393D01*
X129825117Y-87747329D01*
X129844330Y-87733079D01*
X129864847Y-87720782D01*
X129886471Y-87710554D01*
X129908993Y-87702496D01*
X129932197Y-87696684D01*
X129955858Y-87693174D01*
X129979750Y-87692000D01*
X130467250Y-87692000D01*
X130491142Y-87693174D01*
X130491142Y-87693174D01*
G37*
D12*
X130223500Y-88392000D03*
D10*
G36*
X130491142Y-95059174D02*
G01*
X130514803Y-95062684D01*
X130538007Y-95068496D01*
X130560529Y-95076554D01*
X130582153Y-95086782D01*
X130602670Y-95099079D01*
X130621883Y-95113329D01*
X130639607Y-95129393D01*
X130655671Y-95147117D01*
X130669921Y-95166330D01*
X130682218Y-95186847D01*
X130692446Y-95208471D01*
X130700504Y-95230993D01*
X130706316Y-95254197D01*
X130709826Y-95277858D01*
X130711000Y-95301750D01*
X130711000Y-96214250D01*
X130709826Y-96238142D01*
X130706316Y-96261803D01*
X130700504Y-96285007D01*
X130692446Y-96307529D01*
X130682218Y-96329153D01*
X130669921Y-96349670D01*
X130655671Y-96368883D01*
X130639607Y-96386607D01*
X130621883Y-96402671D01*
X130602670Y-96416921D01*
X130582153Y-96429218D01*
X130560529Y-96439446D01*
X130538007Y-96447504D01*
X130514803Y-96453316D01*
X130491142Y-96456826D01*
X130467250Y-96458000D01*
X129979750Y-96458000D01*
X129955858Y-96456826D01*
X129932197Y-96453316D01*
X129908993Y-96447504D01*
X129886471Y-96439446D01*
X129864847Y-96429218D01*
X129844330Y-96416921D01*
X129825117Y-96402671D01*
X129807393Y-96386607D01*
X129791329Y-96368883D01*
X129777079Y-96349670D01*
X129764782Y-96329153D01*
X129754554Y-96307529D01*
X129746496Y-96285007D01*
X129740684Y-96261803D01*
X129737174Y-96238142D01*
X129736000Y-96214250D01*
X129736000Y-95301750D01*
X129737174Y-95277858D01*
X129740684Y-95254197D01*
X129746496Y-95230993D01*
X129754554Y-95208471D01*
X129764782Y-95186847D01*
X129777079Y-95166330D01*
X129791329Y-95147117D01*
X129807393Y-95129393D01*
X129825117Y-95113329D01*
X129844330Y-95099079D01*
X129864847Y-95086782D01*
X129886471Y-95076554D01*
X129908993Y-95068496D01*
X129932197Y-95062684D01*
X129955858Y-95059174D01*
X129979750Y-95058000D01*
X130467250Y-95058000D01*
X130491142Y-95059174D01*
X130491142Y-95059174D01*
G37*
D12*
X130223500Y-95758000D03*
D10*
G36*
X128616142Y-95059174D02*
G01*
X128639803Y-95062684D01*
X128663007Y-95068496D01*
X128685529Y-95076554D01*
X128707153Y-95086782D01*
X128727670Y-95099079D01*
X128746883Y-95113329D01*
X128764607Y-95129393D01*
X128780671Y-95147117D01*
X128794921Y-95166330D01*
X128807218Y-95186847D01*
X128817446Y-95208471D01*
X128825504Y-95230993D01*
X128831316Y-95254197D01*
X128834826Y-95277858D01*
X128836000Y-95301750D01*
X128836000Y-96214250D01*
X128834826Y-96238142D01*
X128831316Y-96261803D01*
X128825504Y-96285007D01*
X128817446Y-96307529D01*
X128807218Y-96329153D01*
X128794921Y-96349670D01*
X128780671Y-96368883D01*
X128764607Y-96386607D01*
X128746883Y-96402671D01*
X128727670Y-96416921D01*
X128707153Y-96429218D01*
X128685529Y-96439446D01*
X128663007Y-96447504D01*
X128639803Y-96453316D01*
X128616142Y-96456826D01*
X128592250Y-96458000D01*
X128104750Y-96458000D01*
X128080858Y-96456826D01*
X128057197Y-96453316D01*
X128033993Y-96447504D01*
X128011471Y-96439446D01*
X127989847Y-96429218D01*
X127969330Y-96416921D01*
X127950117Y-96402671D01*
X127932393Y-96386607D01*
X127916329Y-96368883D01*
X127902079Y-96349670D01*
X127889782Y-96329153D01*
X127879554Y-96307529D01*
X127871496Y-96285007D01*
X127865684Y-96261803D01*
X127862174Y-96238142D01*
X127861000Y-96214250D01*
X127861000Y-95301750D01*
X127862174Y-95277858D01*
X127865684Y-95254197D01*
X127871496Y-95230993D01*
X127879554Y-95208471D01*
X127889782Y-95186847D01*
X127902079Y-95166330D01*
X127916329Y-95147117D01*
X127932393Y-95129393D01*
X127950117Y-95113329D01*
X127969330Y-95099079D01*
X127989847Y-95086782D01*
X128011471Y-95076554D01*
X128033993Y-95068496D01*
X128057197Y-95062684D01*
X128080858Y-95059174D01*
X128104750Y-95058000D01*
X128592250Y-95058000D01*
X128616142Y-95059174D01*
X128616142Y-95059174D01*
G37*
D12*
X128348500Y-95758000D03*
D10*
G36*
X149444142Y-96075174D02*
G01*
X149467803Y-96078684D01*
X149491007Y-96084496D01*
X149513529Y-96092554D01*
X149535153Y-96102782D01*
X149555670Y-96115079D01*
X149574883Y-96129329D01*
X149592607Y-96145393D01*
X149608671Y-96163117D01*
X149622921Y-96182330D01*
X149635218Y-96202847D01*
X149645446Y-96224471D01*
X149653504Y-96246993D01*
X149659316Y-96270197D01*
X149662826Y-96293858D01*
X149664000Y-96317750D01*
X149664000Y-97230250D01*
X149662826Y-97254142D01*
X149659316Y-97277803D01*
X149653504Y-97301007D01*
X149645446Y-97323529D01*
X149635218Y-97345153D01*
X149622921Y-97365670D01*
X149608671Y-97384883D01*
X149592607Y-97402607D01*
X149574883Y-97418671D01*
X149555670Y-97432921D01*
X149535153Y-97445218D01*
X149513529Y-97455446D01*
X149491007Y-97463504D01*
X149467803Y-97469316D01*
X149444142Y-97472826D01*
X149420250Y-97474000D01*
X148932750Y-97474000D01*
X148908858Y-97472826D01*
X148885197Y-97469316D01*
X148861993Y-97463504D01*
X148839471Y-97455446D01*
X148817847Y-97445218D01*
X148797330Y-97432921D01*
X148778117Y-97418671D01*
X148760393Y-97402607D01*
X148744329Y-97384883D01*
X148730079Y-97365670D01*
X148717782Y-97345153D01*
X148707554Y-97323529D01*
X148699496Y-97301007D01*
X148693684Y-97277803D01*
X148690174Y-97254142D01*
X148689000Y-97230250D01*
X148689000Y-96317750D01*
X148690174Y-96293858D01*
X148693684Y-96270197D01*
X148699496Y-96246993D01*
X148707554Y-96224471D01*
X148717782Y-96202847D01*
X148730079Y-96182330D01*
X148744329Y-96163117D01*
X148760393Y-96145393D01*
X148778117Y-96129329D01*
X148797330Y-96115079D01*
X148817847Y-96102782D01*
X148839471Y-96092554D01*
X148861993Y-96084496D01*
X148885197Y-96078684D01*
X148908858Y-96075174D01*
X148932750Y-96074000D01*
X149420250Y-96074000D01*
X149444142Y-96075174D01*
X149444142Y-96075174D01*
G37*
D12*
X149176500Y-96774000D03*
D10*
G36*
X151319142Y-96075174D02*
G01*
X151342803Y-96078684D01*
X151366007Y-96084496D01*
X151388529Y-96092554D01*
X151410153Y-96102782D01*
X151430670Y-96115079D01*
X151449883Y-96129329D01*
X151467607Y-96145393D01*
X151483671Y-96163117D01*
X151497921Y-96182330D01*
X151510218Y-96202847D01*
X151520446Y-96224471D01*
X151528504Y-96246993D01*
X151534316Y-96270197D01*
X151537826Y-96293858D01*
X151539000Y-96317750D01*
X151539000Y-97230250D01*
X151537826Y-97254142D01*
X151534316Y-97277803D01*
X151528504Y-97301007D01*
X151520446Y-97323529D01*
X151510218Y-97345153D01*
X151497921Y-97365670D01*
X151483671Y-97384883D01*
X151467607Y-97402607D01*
X151449883Y-97418671D01*
X151430670Y-97432921D01*
X151410153Y-97445218D01*
X151388529Y-97455446D01*
X151366007Y-97463504D01*
X151342803Y-97469316D01*
X151319142Y-97472826D01*
X151295250Y-97474000D01*
X150807750Y-97474000D01*
X150783858Y-97472826D01*
X150760197Y-97469316D01*
X150736993Y-97463504D01*
X150714471Y-97455446D01*
X150692847Y-97445218D01*
X150672330Y-97432921D01*
X150653117Y-97418671D01*
X150635393Y-97402607D01*
X150619329Y-97384883D01*
X150605079Y-97365670D01*
X150592782Y-97345153D01*
X150582554Y-97323529D01*
X150574496Y-97301007D01*
X150568684Y-97277803D01*
X150565174Y-97254142D01*
X150564000Y-97230250D01*
X150564000Y-96317750D01*
X150565174Y-96293858D01*
X150568684Y-96270197D01*
X150574496Y-96246993D01*
X150582554Y-96224471D01*
X150592782Y-96202847D01*
X150605079Y-96182330D01*
X150619329Y-96163117D01*
X150635393Y-96145393D01*
X150653117Y-96129329D01*
X150672330Y-96115079D01*
X150692847Y-96102782D01*
X150714471Y-96092554D01*
X150736993Y-96084496D01*
X150760197Y-96078684D01*
X150783858Y-96075174D01*
X150807750Y-96074000D01*
X151295250Y-96074000D01*
X151319142Y-96075174D01*
X151319142Y-96075174D01*
G37*
D12*
X151051500Y-96774000D03*
D13*
X130274000Y-91948000D03*
X128524000Y-91948000D03*
X128524000Y-99060000D03*
X130274000Y-99060000D03*
D14*
X135475000Y-97580000D03*
X136125000Y-97580000D03*
X136775000Y-97580000D03*
X137425000Y-97580000D03*
X138075000Y-97580000D03*
X138725000Y-97580000D03*
X139375000Y-97580000D03*
X140025000Y-97580000D03*
X140675000Y-97580000D03*
X141325000Y-97580000D03*
X141975000Y-97580000D03*
X142625000Y-97580000D03*
X143275000Y-97580000D03*
X143925000Y-97580000D03*
X143925000Y-90380000D03*
X143275000Y-90380000D03*
X142625000Y-90380000D03*
X141975000Y-90380000D03*
X141325000Y-90380000D03*
X140675000Y-90380000D03*
X140025000Y-90380000D03*
X139375000Y-90380000D03*
X138725000Y-90380000D03*
X138075000Y-90380000D03*
X137425000Y-90380000D03*
X136775000Y-90380000D03*
X136125000Y-90380000D03*
X135475000Y-90380000D03*
D15*
X146685000Y-118110000D03*
X146685000Y-116360000D03*
D10*
G36*
X144618142Y-119951174D02*
G01*
X144641803Y-119954684D01*
X144665007Y-119960496D01*
X144687529Y-119968554D01*
X144709153Y-119978782D01*
X144729670Y-119991079D01*
X144748883Y-120005329D01*
X144766607Y-120021393D01*
X144782671Y-120039117D01*
X144796921Y-120058330D01*
X144809218Y-120078847D01*
X144819446Y-120100471D01*
X144827504Y-120122993D01*
X144833316Y-120146197D01*
X144836826Y-120169858D01*
X144838000Y-120193750D01*
X144838000Y-121106250D01*
X144836826Y-121130142D01*
X144833316Y-121153803D01*
X144827504Y-121177007D01*
X144819446Y-121199529D01*
X144809218Y-121221153D01*
X144796921Y-121241670D01*
X144782671Y-121260883D01*
X144766607Y-121278607D01*
X144748883Y-121294671D01*
X144729670Y-121308921D01*
X144709153Y-121321218D01*
X144687529Y-121331446D01*
X144665007Y-121339504D01*
X144641803Y-121345316D01*
X144618142Y-121348826D01*
X144594250Y-121350000D01*
X144106750Y-121350000D01*
X144082858Y-121348826D01*
X144059197Y-121345316D01*
X144035993Y-121339504D01*
X144013471Y-121331446D01*
X143991847Y-121321218D01*
X143971330Y-121308921D01*
X143952117Y-121294671D01*
X143934393Y-121278607D01*
X143918329Y-121260883D01*
X143904079Y-121241670D01*
X143891782Y-121221153D01*
X143881554Y-121199529D01*
X143873496Y-121177007D01*
X143867684Y-121153803D01*
X143864174Y-121130142D01*
X143863000Y-121106250D01*
X143863000Y-120193750D01*
X143864174Y-120169858D01*
X143867684Y-120146197D01*
X143873496Y-120122993D01*
X143881554Y-120100471D01*
X143891782Y-120078847D01*
X143904079Y-120058330D01*
X143918329Y-120039117D01*
X143934393Y-120021393D01*
X143952117Y-120005329D01*
X143971330Y-119991079D01*
X143991847Y-119978782D01*
X144013471Y-119968554D01*
X144035993Y-119960496D01*
X144059197Y-119954684D01*
X144082858Y-119951174D01*
X144106750Y-119950000D01*
X144594250Y-119950000D01*
X144618142Y-119951174D01*
X144618142Y-119951174D01*
G37*
D12*
X144350500Y-120650000D03*
D10*
G36*
X146493142Y-119951174D02*
G01*
X146516803Y-119954684D01*
X146540007Y-119960496D01*
X146562529Y-119968554D01*
X146584153Y-119978782D01*
X146604670Y-119991079D01*
X146623883Y-120005329D01*
X146641607Y-120021393D01*
X146657671Y-120039117D01*
X146671921Y-120058330D01*
X146684218Y-120078847D01*
X146694446Y-120100471D01*
X146702504Y-120122993D01*
X146708316Y-120146197D01*
X146711826Y-120169858D01*
X146713000Y-120193750D01*
X146713000Y-121106250D01*
X146711826Y-121130142D01*
X146708316Y-121153803D01*
X146702504Y-121177007D01*
X146694446Y-121199529D01*
X146684218Y-121221153D01*
X146671921Y-121241670D01*
X146657671Y-121260883D01*
X146641607Y-121278607D01*
X146623883Y-121294671D01*
X146604670Y-121308921D01*
X146584153Y-121321218D01*
X146562529Y-121331446D01*
X146540007Y-121339504D01*
X146516803Y-121345316D01*
X146493142Y-121348826D01*
X146469250Y-121350000D01*
X145981750Y-121350000D01*
X145957858Y-121348826D01*
X145934197Y-121345316D01*
X145910993Y-121339504D01*
X145888471Y-121331446D01*
X145866847Y-121321218D01*
X145846330Y-121308921D01*
X145827117Y-121294671D01*
X145809393Y-121278607D01*
X145793329Y-121260883D01*
X145779079Y-121241670D01*
X145766782Y-121221153D01*
X145756554Y-121199529D01*
X145748496Y-121177007D01*
X145742684Y-121153803D01*
X145739174Y-121130142D01*
X145738000Y-121106250D01*
X145738000Y-120193750D01*
X145739174Y-120169858D01*
X145742684Y-120146197D01*
X145748496Y-120122993D01*
X145756554Y-120100471D01*
X145766782Y-120078847D01*
X145779079Y-120058330D01*
X145793329Y-120039117D01*
X145809393Y-120021393D01*
X145827117Y-120005329D01*
X145846330Y-119991079D01*
X145866847Y-119978782D01*
X145888471Y-119968554D01*
X145910993Y-119960496D01*
X145934197Y-119954684D01*
X145957858Y-119951174D01*
X145981750Y-119950000D01*
X146469250Y-119950000D01*
X146493142Y-119951174D01*
X146493142Y-119951174D01*
G37*
D12*
X146225500Y-120650000D03*
M02*
