G04 #@! TF.GenerationSoftware,KiCad,Pcbnew,(5.1.2)-2*
G04 #@! TF.CreationDate,2019-10-15T13:17:40+02:00*
G04 #@! TF.ProjectId,USB_UART_Iolated,5553425f-5541-4525-945f-496f6c617465,rev?*
G04 #@! TF.SameCoordinates,Original*
G04 #@! TF.FileFunction,Copper,L2,Bot*
G04 #@! TF.FilePolarity,Positive*
%FSLAX46Y46*%
G04 Gerber Fmt 4.6, Leading zero omitted, Abs format (unit mm)*
G04 Created by KiCad (PCBNEW (5.1.2)-2) date 2019-10-15 13:17:40*
%MOMM*%
%LPD*%
G04 APERTURE LIST*
%ADD10R,1.700000X1.700000*%
%ADD11O,1.700000X1.700000*%
%ADD12C,1.500000*%
%ADD13C,3.000000*%
%ADD14R,1.500000X1.500000*%
%ADD15C,0.800000*%
%ADD16C,0.381000*%
%ADD17C,0.304800*%
G04 APERTURE END LIST*
D10*
X128270000Y-105410000D03*
D11*
X128270000Y-107950000D03*
X128270000Y-110490000D03*
X128270000Y-113030000D03*
X128270000Y-115570000D03*
X128270000Y-118110000D03*
X128270000Y-120650000D03*
X128270000Y-123190000D03*
X151130000Y-105410000D03*
X151130000Y-107950000D03*
X151130000Y-110490000D03*
X151130000Y-113030000D03*
X151130000Y-115570000D03*
X151130000Y-118110000D03*
X151130000Y-120650000D03*
D10*
X151130000Y-123190000D03*
D12*
X140930000Y-85090000D03*
X138430000Y-83090000D03*
D13*
X133660000Y-80380000D03*
D12*
X140930000Y-83090000D03*
D14*
X138430000Y-85090000D03*
D13*
X145700000Y-80380000D03*
D15*
X144018000Y-119380000D03*
X133096000Y-118872000D03*
X140970000Y-101600000D03*
X149098000Y-99314000D03*
X141975000Y-88149000D03*
X139203000Y-88149000D03*
X147309000Y-88149000D03*
X139954000Y-123952000D03*
X137858500Y-113665000D03*
X146695500Y-123952000D03*
X140335000Y-109093000D03*
X136144000Y-95250000D03*
X137795000Y-109093000D03*
X137922000Y-94996000D03*
D16*
X144018000Y-119380000D02*
X133604000Y-119380000D01*
X133604000Y-119380000D02*
X133096000Y-118872000D01*
X133096000Y-118872000D02*
X133096000Y-118872000D01*
X140970000Y-101600000D02*
X146812000Y-101600000D01*
X146812000Y-101600000D02*
X149098000Y-99314000D01*
X149098000Y-99314000D02*
X149098000Y-99314000D01*
X141975000Y-88149000D02*
X139203000Y-88149000D01*
X139203000Y-88149000D02*
X139203000Y-88149000D01*
X141975000Y-88149000D02*
X147309000Y-88149000D01*
X147309000Y-88149000D02*
X147309000Y-88149000D01*
X139203000Y-88149000D02*
X137679000Y-88149000D01*
X137679000Y-88149000D02*
X135890000Y-86360000D01*
X135890000Y-86360000D02*
X135890000Y-84074000D01*
X136874000Y-83090000D02*
X138430000Y-83090000D01*
X135890000Y-84074000D02*
X136874000Y-83090000D01*
X131572000Y-123952000D02*
X128270000Y-120650000D01*
X139954000Y-123952000D02*
X131572000Y-123952000D01*
X138493500Y-113030000D02*
X137858500Y-113665000D01*
X151130000Y-113030000D02*
X138493500Y-113030000D01*
X146695500Y-123952000D02*
X147574000Y-123952000D01*
X147574000Y-123952000D02*
X148844000Y-122682000D01*
X148844000Y-122682000D02*
X148844000Y-121158000D01*
X149352000Y-120650000D02*
X151130000Y-120650000D01*
X148844000Y-121158000D02*
X149352000Y-120650000D01*
X136134873Y-80380000D02*
X145700000Y-80380000D01*
X133660000Y-80380000D02*
X136134873Y-80380000D01*
X140335000Y-108527315D02*
X139446000Y-107638315D01*
X140335000Y-109093000D02*
X140335000Y-108527315D01*
X139446000Y-107638315D02*
X139446000Y-94488000D01*
X139446000Y-94488000D02*
X139446000Y-93980000D01*
X139446000Y-93980000D02*
X138430000Y-92964000D01*
X138430000Y-92964000D02*
X137160000Y-92964000D01*
X137160000Y-92964000D02*
X136906000Y-92964000D01*
X136906000Y-92964000D02*
X136144000Y-93726000D01*
X136144000Y-93726000D02*
X136144000Y-95250000D01*
X136144000Y-95250000D02*
X136144000Y-95250000D01*
X137795000Y-108527315D02*
X137922000Y-108400315D01*
X137795000Y-109093000D02*
X137795000Y-108527315D01*
X137922000Y-108400315D02*
X137922000Y-94996000D01*
X137922000Y-94996000D02*
X137922000Y-94996000D01*
D17*
G36*
X150400245Y-109397845D02*
G01*
X150201198Y-109561198D01*
X150037845Y-109760245D01*
X149916462Y-109987336D01*
X149841715Y-110233744D01*
X149816476Y-110490000D01*
X149841715Y-110746256D01*
X149916462Y-110992664D01*
X150037845Y-111219755D01*
X150201198Y-111418802D01*
X150400245Y-111582155D01*
X150627336Y-111703538D01*
X150813466Y-111760000D01*
X150627336Y-111816462D01*
X150400245Y-111937845D01*
X150201198Y-112101198D01*
X150037845Y-112300245D01*
X149993986Y-112382300D01*
X138525301Y-112382300D01*
X138493500Y-112379168D01*
X138461699Y-112382300D01*
X138461691Y-112382300D01*
X138377573Y-112390585D01*
X138366528Y-112391673D01*
X138244437Y-112428709D01*
X138131917Y-112488852D01*
X138033292Y-112569792D01*
X138013017Y-112594497D01*
X137799714Y-112807800D01*
X137774073Y-112807800D01*
X137608464Y-112840741D01*
X137452463Y-112905359D01*
X137312067Y-112999169D01*
X137192669Y-113118567D01*
X137098859Y-113258963D01*
X137034241Y-113414964D01*
X137001300Y-113580573D01*
X137001300Y-113749427D01*
X137034241Y-113915036D01*
X137098859Y-114071037D01*
X137192669Y-114211433D01*
X137312067Y-114330831D01*
X137452463Y-114424641D01*
X137608464Y-114489259D01*
X137774073Y-114522200D01*
X137942927Y-114522200D01*
X138108536Y-114489259D01*
X138264537Y-114424641D01*
X138404933Y-114330831D01*
X138524331Y-114211433D01*
X138618141Y-114071037D01*
X138682759Y-113915036D01*
X138715700Y-113749427D01*
X138715700Y-113723786D01*
X138761786Y-113677700D01*
X149993986Y-113677700D01*
X150037845Y-113759755D01*
X150201198Y-113958802D01*
X150400245Y-114122155D01*
X150627336Y-114243538D01*
X150813466Y-114300000D01*
X150627336Y-114356462D01*
X150400245Y-114477845D01*
X150201198Y-114641198D01*
X150037845Y-114840245D01*
X149916462Y-115067336D01*
X149841715Y-115313744D01*
X149816476Y-115570000D01*
X149841715Y-115826256D01*
X149916462Y-116072664D01*
X150037845Y-116299755D01*
X150201198Y-116498802D01*
X150400245Y-116662155D01*
X150627336Y-116783538D01*
X150813466Y-116840000D01*
X150627336Y-116896462D01*
X150400245Y-117017845D01*
X150201198Y-117181198D01*
X150037845Y-117380245D01*
X149916462Y-117607336D01*
X149841715Y-117853744D01*
X149816476Y-118110000D01*
X149841715Y-118366256D01*
X149916462Y-118612664D01*
X150037845Y-118839755D01*
X150201198Y-119038802D01*
X150400245Y-119202155D01*
X150627336Y-119323538D01*
X150813466Y-119380000D01*
X150627336Y-119436462D01*
X150400245Y-119557845D01*
X150201198Y-119721198D01*
X150037845Y-119920245D01*
X149993986Y-120002300D01*
X149383798Y-120002300D01*
X149351999Y-119999168D01*
X149320200Y-120002300D01*
X149320191Y-120002300D01*
X149225029Y-120011673D01*
X149102937Y-120048709D01*
X148990417Y-120108852D01*
X148990415Y-120108853D01*
X148990416Y-120108853D01*
X148916498Y-120169515D01*
X148916491Y-120169522D01*
X148891792Y-120189792D01*
X148871521Y-120214492D01*
X148408497Y-120677518D01*
X148383793Y-120697792D01*
X148363518Y-120722497D01*
X148363515Y-120722500D01*
X148302853Y-120796417D01*
X148242709Y-120908938D01*
X148205673Y-121031029D01*
X148193168Y-121158000D01*
X148196301Y-121189811D01*
X148196300Y-122413714D01*
X147305715Y-123304300D01*
X147260064Y-123304300D01*
X147241933Y-123286169D01*
X147101537Y-123192359D01*
X146945536Y-123127741D01*
X146779927Y-123094800D01*
X146611073Y-123094800D01*
X146445464Y-123127741D01*
X146289463Y-123192359D01*
X146149067Y-123286169D01*
X146029669Y-123405567D01*
X145935859Y-123545963D01*
X145871241Y-123701964D01*
X145838300Y-123867573D01*
X145838300Y-124036427D01*
X145871241Y-124202036D01*
X145935859Y-124358037D01*
X146029669Y-124498433D01*
X146149067Y-124617831D01*
X146289463Y-124711641D01*
X146445464Y-124776259D01*
X146611073Y-124809200D01*
X146779927Y-124809200D01*
X146945536Y-124776259D01*
X147101537Y-124711641D01*
X147241933Y-124617831D01*
X147260064Y-124599700D01*
X147542199Y-124599700D01*
X147574000Y-124602832D01*
X147605801Y-124599700D01*
X147605809Y-124599700D01*
X147700971Y-124590327D01*
X147823063Y-124553291D01*
X147935583Y-124493148D01*
X148034208Y-124412208D01*
X148054487Y-124387498D01*
X148401985Y-124040000D01*
X149616405Y-124040000D01*
X149629156Y-124169461D01*
X149666918Y-124293947D01*
X149728241Y-124408674D01*
X149810767Y-124509233D01*
X149911326Y-124591759D01*
X150026053Y-124653082D01*
X150150539Y-124690844D01*
X150280000Y-124703595D01*
X150863300Y-124700400D01*
X151028400Y-124535300D01*
X151028400Y-123291600D01*
X149784700Y-123291600D01*
X149619600Y-123456700D01*
X149616405Y-124040000D01*
X148401985Y-124040000D01*
X149279504Y-123162482D01*
X149304208Y-123142208D01*
X149348368Y-123088400D01*
X149385147Y-123043584D01*
X149385148Y-123043583D01*
X149445291Y-122931063D01*
X149482327Y-122808971D01*
X149491700Y-122713809D01*
X149491700Y-122713802D01*
X149494832Y-122682001D01*
X149491700Y-122650200D01*
X149491700Y-121426286D01*
X149620286Y-121297700D01*
X149993986Y-121297700D01*
X150037845Y-121379755D01*
X150201198Y-121578802D01*
X150320398Y-121676626D01*
X150280000Y-121676405D01*
X150150539Y-121689156D01*
X150026053Y-121726918D01*
X149911326Y-121788241D01*
X149810767Y-121870767D01*
X149728241Y-121971326D01*
X149666918Y-122086053D01*
X149629156Y-122210539D01*
X149616405Y-122340000D01*
X149619600Y-122923300D01*
X149784700Y-123088400D01*
X151028400Y-123088400D01*
X151028400Y-123068400D01*
X151231600Y-123068400D01*
X151231600Y-123088400D01*
X151251600Y-123088400D01*
X151251600Y-123291600D01*
X151231600Y-123291600D01*
X151231600Y-124535300D01*
X151396700Y-124700400D01*
X151477225Y-124700841D01*
X149660268Y-126517800D01*
X127482200Y-126517800D01*
X127482200Y-124471074D01*
X127653087Y-124568673D01*
X127933907Y-124662536D01*
X128168400Y-124531883D01*
X128168400Y-123291600D01*
X128371600Y-123291600D01*
X128371600Y-124531883D01*
X128606093Y-124662536D01*
X128886913Y-124568673D01*
X129144025Y-124421828D01*
X129367549Y-124227645D01*
X129548894Y-123993586D01*
X129681092Y-123728645D01*
X129742532Y-123526093D01*
X129611458Y-123291600D01*
X128371600Y-123291600D01*
X128168400Y-123291600D01*
X128148400Y-123291600D01*
X128148400Y-123088400D01*
X128168400Y-123088400D01*
X128168400Y-123068400D01*
X128371600Y-123068400D01*
X128371600Y-123088400D01*
X129611458Y-123088400D01*
X129676340Y-122972325D01*
X131091517Y-124387503D01*
X131111792Y-124412208D01*
X131136497Y-124432483D01*
X131136499Y-124432485D01*
X131185388Y-124472607D01*
X131210417Y-124493148D01*
X131322937Y-124553291D01*
X131416612Y-124581707D01*
X131445028Y-124590327D01*
X131457126Y-124591518D01*
X131540191Y-124599700D01*
X131540198Y-124599700D01*
X131571999Y-124602832D01*
X131603800Y-124599700D01*
X139389436Y-124599700D01*
X139407567Y-124617831D01*
X139547963Y-124711641D01*
X139703964Y-124776259D01*
X139869573Y-124809200D01*
X140038427Y-124809200D01*
X140204036Y-124776259D01*
X140360037Y-124711641D01*
X140500433Y-124617831D01*
X140619831Y-124498433D01*
X140713641Y-124358037D01*
X140778259Y-124202036D01*
X140811200Y-124036427D01*
X140811200Y-123867573D01*
X140778259Y-123701964D01*
X140713641Y-123545963D01*
X140619831Y-123405567D01*
X140500433Y-123286169D01*
X140360037Y-123192359D01*
X140204036Y-123127741D01*
X140038427Y-123094800D01*
X139869573Y-123094800D01*
X139703964Y-123127741D01*
X139547963Y-123192359D01*
X139407567Y-123286169D01*
X139389436Y-123304300D01*
X131840286Y-123304300D01*
X129531276Y-120995291D01*
X129558285Y-120906256D01*
X129583524Y-120650000D01*
X129558285Y-120393744D01*
X129483538Y-120147336D01*
X129362155Y-119920245D01*
X129198802Y-119721198D01*
X128999755Y-119557845D01*
X128772664Y-119436462D01*
X128586534Y-119380000D01*
X128772664Y-119323538D01*
X128999755Y-119202155D01*
X129198802Y-119038802D01*
X129362155Y-118839755D01*
X129390046Y-118787573D01*
X132238800Y-118787573D01*
X132238800Y-118956427D01*
X132271741Y-119122036D01*
X132336359Y-119278037D01*
X132430169Y-119418433D01*
X132549567Y-119537831D01*
X132689963Y-119631641D01*
X132845964Y-119696259D01*
X133011573Y-119729200D01*
X133037213Y-119729200D01*
X133123521Y-119815508D01*
X133143792Y-119840208D01*
X133168491Y-119860478D01*
X133168498Y-119860485D01*
X133232600Y-119913091D01*
X133242417Y-119921148D01*
X133354937Y-119981291D01*
X133477029Y-120018327D01*
X133572191Y-120027700D01*
X133572200Y-120027700D01*
X133603999Y-120030832D01*
X133635798Y-120027700D01*
X143453436Y-120027700D01*
X143471567Y-120045831D01*
X143611963Y-120139641D01*
X143767964Y-120204259D01*
X143933573Y-120237200D01*
X144102427Y-120237200D01*
X144268036Y-120204259D01*
X144424037Y-120139641D01*
X144564433Y-120045831D01*
X144683831Y-119926433D01*
X144777641Y-119786037D01*
X144842259Y-119630036D01*
X144875200Y-119464427D01*
X144875200Y-119295573D01*
X144842259Y-119129964D01*
X144777641Y-118973963D01*
X144683831Y-118833567D01*
X144564433Y-118714169D01*
X144424037Y-118620359D01*
X144268036Y-118555741D01*
X144102427Y-118522800D01*
X143933573Y-118522800D01*
X143767964Y-118555741D01*
X143611963Y-118620359D01*
X143471567Y-118714169D01*
X143453436Y-118732300D01*
X133942206Y-118732300D01*
X133920259Y-118621964D01*
X133855641Y-118465963D01*
X133761831Y-118325567D01*
X133642433Y-118206169D01*
X133502037Y-118112359D01*
X133346036Y-118047741D01*
X133180427Y-118014800D01*
X133011573Y-118014800D01*
X132845964Y-118047741D01*
X132689963Y-118112359D01*
X132549567Y-118206169D01*
X132430169Y-118325567D01*
X132336359Y-118465963D01*
X132271741Y-118621964D01*
X132238800Y-118787573D01*
X129390046Y-118787573D01*
X129483538Y-118612664D01*
X129558285Y-118366256D01*
X129583524Y-118110000D01*
X129558285Y-117853744D01*
X129483538Y-117607336D01*
X129362155Y-117380245D01*
X129198802Y-117181198D01*
X128999755Y-117017845D01*
X128772664Y-116896462D01*
X128586534Y-116840000D01*
X128772664Y-116783538D01*
X128999755Y-116662155D01*
X129198802Y-116498802D01*
X129362155Y-116299755D01*
X129483538Y-116072664D01*
X129558285Y-115826256D01*
X129583524Y-115570000D01*
X129558285Y-115313744D01*
X129483538Y-115067336D01*
X129362155Y-114840245D01*
X129198802Y-114641198D01*
X128999755Y-114477845D01*
X128772664Y-114356462D01*
X128586534Y-114300000D01*
X128772664Y-114243538D01*
X128999755Y-114122155D01*
X129198802Y-113958802D01*
X129362155Y-113759755D01*
X129483538Y-113532664D01*
X129558285Y-113286256D01*
X129583524Y-113030000D01*
X129558285Y-112773744D01*
X129483538Y-112527336D01*
X129362155Y-112300245D01*
X129198802Y-112101198D01*
X128999755Y-111937845D01*
X128952151Y-111912400D01*
X142240000Y-111912400D01*
X142269732Y-111909472D01*
X142298321Y-111900799D01*
X142324669Y-111886716D01*
X142347763Y-111867763D01*
X144843126Y-109372400D01*
X150447849Y-109372400D01*
X150400245Y-109397845D01*
X150400245Y-109397845D01*
G37*
X150400245Y-109397845D02*
X150201198Y-109561198D01*
X150037845Y-109760245D01*
X149916462Y-109987336D01*
X149841715Y-110233744D01*
X149816476Y-110490000D01*
X149841715Y-110746256D01*
X149916462Y-110992664D01*
X150037845Y-111219755D01*
X150201198Y-111418802D01*
X150400245Y-111582155D01*
X150627336Y-111703538D01*
X150813466Y-111760000D01*
X150627336Y-111816462D01*
X150400245Y-111937845D01*
X150201198Y-112101198D01*
X150037845Y-112300245D01*
X149993986Y-112382300D01*
X138525301Y-112382300D01*
X138493500Y-112379168D01*
X138461699Y-112382300D01*
X138461691Y-112382300D01*
X138377573Y-112390585D01*
X138366528Y-112391673D01*
X138244437Y-112428709D01*
X138131917Y-112488852D01*
X138033292Y-112569792D01*
X138013017Y-112594497D01*
X137799714Y-112807800D01*
X137774073Y-112807800D01*
X137608464Y-112840741D01*
X137452463Y-112905359D01*
X137312067Y-112999169D01*
X137192669Y-113118567D01*
X137098859Y-113258963D01*
X137034241Y-113414964D01*
X137001300Y-113580573D01*
X137001300Y-113749427D01*
X137034241Y-113915036D01*
X137098859Y-114071037D01*
X137192669Y-114211433D01*
X137312067Y-114330831D01*
X137452463Y-114424641D01*
X137608464Y-114489259D01*
X137774073Y-114522200D01*
X137942927Y-114522200D01*
X138108536Y-114489259D01*
X138264537Y-114424641D01*
X138404933Y-114330831D01*
X138524331Y-114211433D01*
X138618141Y-114071037D01*
X138682759Y-113915036D01*
X138715700Y-113749427D01*
X138715700Y-113723786D01*
X138761786Y-113677700D01*
X149993986Y-113677700D01*
X150037845Y-113759755D01*
X150201198Y-113958802D01*
X150400245Y-114122155D01*
X150627336Y-114243538D01*
X150813466Y-114300000D01*
X150627336Y-114356462D01*
X150400245Y-114477845D01*
X150201198Y-114641198D01*
X150037845Y-114840245D01*
X149916462Y-115067336D01*
X149841715Y-115313744D01*
X149816476Y-115570000D01*
X149841715Y-115826256D01*
X149916462Y-116072664D01*
X150037845Y-116299755D01*
X150201198Y-116498802D01*
X150400245Y-116662155D01*
X150627336Y-116783538D01*
X150813466Y-116840000D01*
X150627336Y-116896462D01*
X150400245Y-117017845D01*
X150201198Y-117181198D01*
X150037845Y-117380245D01*
X149916462Y-117607336D01*
X149841715Y-117853744D01*
X149816476Y-118110000D01*
X149841715Y-118366256D01*
X149916462Y-118612664D01*
X150037845Y-118839755D01*
X150201198Y-119038802D01*
X150400245Y-119202155D01*
X150627336Y-119323538D01*
X150813466Y-119380000D01*
X150627336Y-119436462D01*
X150400245Y-119557845D01*
X150201198Y-119721198D01*
X150037845Y-119920245D01*
X149993986Y-120002300D01*
X149383798Y-120002300D01*
X149351999Y-119999168D01*
X149320200Y-120002300D01*
X149320191Y-120002300D01*
X149225029Y-120011673D01*
X149102937Y-120048709D01*
X148990417Y-120108852D01*
X148990415Y-120108853D01*
X148990416Y-120108853D01*
X148916498Y-120169515D01*
X148916491Y-120169522D01*
X148891792Y-120189792D01*
X148871521Y-120214492D01*
X148408497Y-120677518D01*
X148383793Y-120697792D01*
X148363518Y-120722497D01*
X148363515Y-120722500D01*
X148302853Y-120796417D01*
X148242709Y-120908938D01*
X148205673Y-121031029D01*
X148193168Y-121158000D01*
X148196301Y-121189811D01*
X148196300Y-122413714D01*
X147305715Y-123304300D01*
X147260064Y-123304300D01*
X147241933Y-123286169D01*
X147101537Y-123192359D01*
X146945536Y-123127741D01*
X146779927Y-123094800D01*
X146611073Y-123094800D01*
X146445464Y-123127741D01*
X146289463Y-123192359D01*
X146149067Y-123286169D01*
X146029669Y-123405567D01*
X145935859Y-123545963D01*
X145871241Y-123701964D01*
X145838300Y-123867573D01*
X145838300Y-124036427D01*
X145871241Y-124202036D01*
X145935859Y-124358037D01*
X146029669Y-124498433D01*
X146149067Y-124617831D01*
X146289463Y-124711641D01*
X146445464Y-124776259D01*
X146611073Y-124809200D01*
X146779927Y-124809200D01*
X146945536Y-124776259D01*
X147101537Y-124711641D01*
X147241933Y-124617831D01*
X147260064Y-124599700D01*
X147542199Y-124599700D01*
X147574000Y-124602832D01*
X147605801Y-124599700D01*
X147605809Y-124599700D01*
X147700971Y-124590327D01*
X147823063Y-124553291D01*
X147935583Y-124493148D01*
X148034208Y-124412208D01*
X148054487Y-124387498D01*
X148401985Y-124040000D01*
X149616405Y-124040000D01*
X149629156Y-124169461D01*
X149666918Y-124293947D01*
X149728241Y-124408674D01*
X149810767Y-124509233D01*
X149911326Y-124591759D01*
X150026053Y-124653082D01*
X150150539Y-124690844D01*
X150280000Y-124703595D01*
X150863300Y-124700400D01*
X151028400Y-124535300D01*
X151028400Y-123291600D01*
X149784700Y-123291600D01*
X149619600Y-123456700D01*
X149616405Y-124040000D01*
X148401985Y-124040000D01*
X149279504Y-123162482D01*
X149304208Y-123142208D01*
X149348368Y-123088400D01*
X149385147Y-123043584D01*
X149385148Y-123043583D01*
X149445291Y-122931063D01*
X149482327Y-122808971D01*
X149491700Y-122713809D01*
X149491700Y-122713802D01*
X149494832Y-122682001D01*
X149491700Y-122650200D01*
X149491700Y-121426286D01*
X149620286Y-121297700D01*
X149993986Y-121297700D01*
X150037845Y-121379755D01*
X150201198Y-121578802D01*
X150320398Y-121676626D01*
X150280000Y-121676405D01*
X150150539Y-121689156D01*
X150026053Y-121726918D01*
X149911326Y-121788241D01*
X149810767Y-121870767D01*
X149728241Y-121971326D01*
X149666918Y-122086053D01*
X149629156Y-122210539D01*
X149616405Y-122340000D01*
X149619600Y-122923300D01*
X149784700Y-123088400D01*
X151028400Y-123088400D01*
X151028400Y-123068400D01*
X151231600Y-123068400D01*
X151231600Y-123088400D01*
X151251600Y-123088400D01*
X151251600Y-123291600D01*
X151231600Y-123291600D01*
X151231600Y-124535300D01*
X151396700Y-124700400D01*
X151477225Y-124700841D01*
X149660268Y-126517800D01*
X127482200Y-126517800D01*
X127482200Y-124471074D01*
X127653087Y-124568673D01*
X127933907Y-124662536D01*
X128168400Y-124531883D01*
X128168400Y-123291600D01*
X128371600Y-123291600D01*
X128371600Y-124531883D01*
X128606093Y-124662536D01*
X128886913Y-124568673D01*
X129144025Y-124421828D01*
X129367549Y-124227645D01*
X129548894Y-123993586D01*
X129681092Y-123728645D01*
X129742532Y-123526093D01*
X129611458Y-123291600D01*
X128371600Y-123291600D01*
X128168400Y-123291600D01*
X128148400Y-123291600D01*
X128148400Y-123088400D01*
X128168400Y-123088400D01*
X128168400Y-123068400D01*
X128371600Y-123068400D01*
X128371600Y-123088400D01*
X129611458Y-123088400D01*
X129676340Y-122972325D01*
X131091517Y-124387503D01*
X131111792Y-124412208D01*
X131136497Y-124432483D01*
X131136499Y-124432485D01*
X131185388Y-124472607D01*
X131210417Y-124493148D01*
X131322937Y-124553291D01*
X131416612Y-124581707D01*
X131445028Y-124590327D01*
X131457126Y-124591518D01*
X131540191Y-124599700D01*
X131540198Y-124599700D01*
X131571999Y-124602832D01*
X131603800Y-124599700D01*
X139389436Y-124599700D01*
X139407567Y-124617831D01*
X139547963Y-124711641D01*
X139703964Y-124776259D01*
X139869573Y-124809200D01*
X140038427Y-124809200D01*
X140204036Y-124776259D01*
X140360037Y-124711641D01*
X140500433Y-124617831D01*
X140619831Y-124498433D01*
X140713641Y-124358037D01*
X140778259Y-124202036D01*
X140811200Y-124036427D01*
X140811200Y-123867573D01*
X140778259Y-123701964D01*
X140713641Y-123545963D01*
X140619831Y-123405567D01*
X140500433Y-123286169D01*
X140360037Y-123192359D01*
X140204036Y-123127741D01*
X140038427Y-123094800D01*
X139869573Y-123094800D01*
X139703964Y-123127741D01*
X139547963Y-123192359D01*
X139407567Y-123286169D01*
X139389436Y-123304300D01*
X131840286Y-123304300D01*
X129531276Y-120995291D01*
X129558285Y-120906256D01*
X129583524Y-120650000D01*
X129558285Y-120393744D01*
X129483538Y-120147336D01*
X129362155Y-119920245D01*
X129198802Y-119721198D01*
X128999755Y-119557845D01*
X128772664Y-119436462D01*
X128586534Y-119380000D01*
X128772664Y-119323538D01*
X128999755Y-119202155D01*
X129198802Y-119038802D01*
X129362155Y-118839755D01*
X129390046Y-118787573D01*
X132238800Y-118787573D01*
X132238800Y-118956427D01*
X132271741Y-119122036D01*
X132336359Y-119278037D01*
X132430169Y-119418433D01*
X132549567Y-119537831D01*
X132689963Y-119631641D01*
X132845964Y-119696259D01*
X133011573Y-119729200D01*
X133037213Y-119729200D01*
X133123521Y-119815508D01*
X133143792Y-119840208D01*
X133168491Y-119860478D01*
X133168498Y-119860485D01*
X133232600Y-119913091D01*
X133242417Y-119921148D01*
X133354937Y-119981291D01*
X133477029Y-120018327D01*
X133572191Y-120027700D01*
X133572200Y-120027700D01*
X133603999Y-120030832D01*
X133635798Y-120027700D01*
X143453436Y-120027700D01*
X143471567Y-120045831D01*
X143611963Y-120139641D01*
X143767964Y-120204259D01*
X143933573Y-120237200D01*
X144102427Y-120237200D01*
X144268036Y-120204259D01*
X144424037Y-120139641D01*
X144564433Y-120045831D01*
X144683831Y-119926433D01*
X144777641Y-119786037D01*
X144842259Y-119630036D01*
X144875200Y-119464427D01*
X144875200Y-119295573D01*
X144842259Y-119129964D01*
X144777641Y-118973963D01*
X144683831Y-118833567D01*
X144564433Y-118714169D01*
X144424037Y-118620359D01*
X144268036Y-118555741D01*
X144102427Y-118522800D01*
X143933573Y-118522800D01*
X143767964Y-118555741D01*
X143611963Y-118620359D01*
X143471567Y-118714169D01*
X143453436Y-118732300D01*
X133942206Y-118732300D01*
X133920259Y-118621964D01*
X133855641Y-118465963D01*
X133761831Y-118325567D01*
X133642433Y-118206169D01*
X133502037Y-118112359D01*
X133346036Y-118047741D01*
X133180427Y-118014800D01*
X133011573Y-118014800D01*
X132845964Y-118047741D01*
X132689963Y-118112359D01*
X132549567Y-118206169D01*
X132430169Y-118325567D01*
X132336359Y-118465963D01*
X132271741Y-118621964D01*
X132238800Y-118787573D01*
X129390046Y-118787573D01*
X129483538Y-118612664D01*
X129558285Y-118366256D01*
X129583524Y-118110000D01*
X129558285Y-117853744D01*
X129483538Y-117607336D01*
X129362155Y-117380245D01*
X129198802Y-117181198D01*
X128999755Y-117017845D01*
X128772664Y-116896462D01*
X128586534Y-116840000D01*
X128772664Y-116783538D01*
X128999755Y-116662155D01*
X129198802Y-116498802D01*
X129362155Y-116299755D01*
X129483538Y-116072664D01*
X129558285Y-115826256D01*
X129583524Y-115570000D01*
X129558285Y-115313744D01*
X129483538Y-115067336D01*
X129362155Y-114840245D01*
X129198802Y-114641198D01*
X128999755Y-114477845D01*
X128772664Y-114356462D01*
X128586534Y-114300000D01*
X128772664Y-114243538D01*
X128999755Y-114122155D01*
X129198802Y-113958802D01*
X129362155Y-113759755D01*
X129483538Y-113532664D01*
X129558285Y-113286256D01*
X129583524Y-113030000D01*
X129558285Y-112773744D01*
X129483538Y-112527336D01*
X129362155Y-112300245D01*
X129198802Y-112101198D01*
X128999755Y-111937845D01*
X128952151Y-111912400D01*
X142240000Y-111912400D01*
X142269732Y-111909472D01*
X142298321Y-111900799D01*
X142324669Y-111886716D01*
X142347763Y-111867763D01*
X144843126Y-109372400D01*
X150447849Y-109372400D01*
X150400245Y-109397845D01*
D16*
G36*
X151803500Y-104158172D02*
G01*
X151676617Y-104090351D01*
X151408663Y-104009068D01*
X151199833Y-103988500D01*
X151060167Y-103988500D01*
X150851337Y-104009068D01*
X150583383Y-104090351D01*
X150336436Y-104222347D01*
X150119984Y-104399984D01*
X149942347Y-104616436D01*
X149810351Y-104863383D01*
X149729068Y-105131337D01*
X149701622Y-105410000D01*
X149729068Y-105688663D01*
X149810351Y-105956617D01*
X149942347Y-106203564D01*
X150119984Y-106420016D01*
X150336436Y-106597653D01*
X150490496Y-106680000D01*
X150336436Y-106762347D01*
X150119984Y-106939984D01*
X149942347Y-107156436D01*
X149810351Y-107403383D01*
X149729068Y-107671337D01*
X149720385Y-107759500D01*
X144780000Y-107759500D01*
X144742835Y-107763160D01*
X144707099Y-107774001D01*
X144674164Y-107791605D01*
X144645296Y-107815296D01*
X142161092Y-110299500D01*
X129679615Y-110299500D01*
X129670932Y-110211337D01*
X129589649Y-109943383D01*
X129457653Y-109696436D01*
X129280016Y-109479984D01*
X129063564Y-109302347D01*
X128909504Y-109220000D01*
X129063564Y-109137653D01*
X129280016Y-108960016D01*
X129457653Y-108743564D01*
X129589649Y-108496617D01*
X129670932Y-108228663D01*
X129698378Y-107950000D01*
X129670932Y-107671337D01*
X129589649Y-107403383D01*
X129457653Y-107156436D01*
X129280016Y-106939984D01*
X129147854Y-106831522D01*
X129232034Y-106823231D01*
X129339762Y-106790552D01*
X129439045Y-106737484D01*
X129526067Y-106666067D01*
X129597484Y-106579045D01*
X129650552Y-106479762D01*
X129683231Y-106372034D01*
X129694265Y-106260000D01*
X129694265Y-104560000D01*
X129683231Y-104447966D01*
X129650552Y-104340238D01*
X129597484Y-104240955D01*
X129526067Y-104153933D01*
X129439045Y-104082516D01*
X129339762Y-104029448D01*
X129232034Y-103996769D01*
X129120000Y-103985735D01*
X127596500Y-103985735D01*
X127596500Y-95154316D01*
X135172500Y-95154316D01*
X135172500Y-95345684D01*
X135209834Y-95533376D01*
X135283068Y-95710178D01*
X135389386Y-95869295D01*
X135524705Y-96004614D01*
X135683822Y-96110932D01*
X135860624Y-96184166D01*
X136048316Y-96221500D01*
X136239684Y-96221500D01*
X136427376Y-96184166D01*
X136604178Y-96110932D01*
X136763295Y-96004614D01*
X136898614Y-95869295D01*
X137004932Y-95710178D01*
X137078166Y-95533376D01*
X137086077Y-95493606D01*
X137160001Y-95604242D01*
X137160000Y-108099919D01*
X137158355Y-108101923D01*
X137132302Y-108150666D01*
X137087598Y-108234300D01*
X137044026Y-108377937D01*
X137034594Y-108473705D01*
X137033593Y-108483872D01*
X136934068Y-108632822D01*
X136860834Y-108809624D01*
X136823500Y-108997316D01*
X136823500Y-109188684D01*
X136860834Y-109376376D01*
X136934068Y-109553178D01*
X137040386Y-109712295D01*
X137175705Y-109847614D01*
X137334822Y-109953932D01*
X137511624Y-110027166D01*
X137699316Y-110064500D01*
X137890684Y-110064500D01*
X138078376Y-110027166D01*
X138255178Y-109953932D01*
X138414295Y-109847614D01*
X138549614Y-109712295D01*
X138655932Y-109553178D01*
X138729166Y-109376376D01*
X138766500Y-109188684D01*
X138766500Y-108997316D01*
X138729166Y-108809624D01*
X138655932Y-108632822D01*
X138650310Y-108624407D01*
X138672974Y-108549693D01*
X138684000Y-108437741D01*
X138684000Y-108437739D01*
X138687686Y-108400316D01*
X138684000Y-108362893D01*
X138684000Y-107675740D01*
X138695026Y-107787692D01*
X138738598Y-107931329D01*
X138767763Y-107985893D01*
X138809355Y-108063707D01*
X138840718Y-108101922D01*
X138904578Y-108179737D01*
X138933653Y-108203599D01*
X139441501Y-108711446D01*
X139400834Y-108809624D01*
X139363500Y-108997316D01*
X139363500Y-109188684D01*
X139400834Y-109376376D01*
X139474068Y-109553178D01*
X139580386Y-109712295D01*
X139715705Y-109847614D01*
X139874822Y-109953932D01*
X140051624Y-110027166D01*
X140239316Y-110064500D01*
X140430684Y-110064500D01*
X140618376Y-110027166D01*
X140795178Y-109953932D01*
X140954295Y-109847614D01*
X141089614Y-109712295D01*
X141195932Y-109553178D01*
X141269166Y-109376376D01*
X141306500Y-109188684D01*
X141306500Y-108997316D01*
X141269166Y-108809624D01*
X141195932Y-108632822D01*
X141096407Y-108483872D01*
X141095406Y-108473705D01*
X141085974Y-108377937D01*
X141042402Y-108234300D01*
X140997699Y-108150666D01*
X140971645Y-108101922D01*
X140900279Y-108014963D01*
X140876422Y-107985893D01*
X140847351Y-107962036D01*
X140208000Y-107322685D01*
X140208000Y-102208241D01*
X140215386Y-102219295D01*
X140350705Y-102354614D01*
X140509822Y-102460932D01*
X140686624Y-102534166D01*
X140874316Y-102571500D01*
X141065684Y-102571500D01*
X141253376Y-102534166D01*
X141430178Y-102460932D01*
X141578241Y-102362000D01*
X146774577Y-102362000D01*
X146812000Y-102365686D01*
X146849423Y-102362000D01*
X146849426Y-102362000D01*
X146961378Y-102350974D01*
X147105015Y-102307402D01*
X147237392Y-102236645D01*
X147353422Y-102141422D01*
X147377284Y-102112346D01*
X149206725Y-100282906D01*
X149381376Y-100248166D01*
X149558178Y-100174932D01*
X149717295Y-100068614D01*
X149852614Y-99933295D01*
X149958932Y-99774178D01*
X150032166Y-99597376D01*
X150069500Y-99409684D01*
X150069500Y-99218316D01*
X150032166Y-99030624D01*
X149958932Y-98853822D01*
X149852614Y-98694705D01*
X149717295Y-98559386D01*
X149558178Y-98453068D01*
X149381376Y-98379834D01*
X149193684Y-98342500D01*
X149002316Y-98342500D01*
X148814624Y-98379834D01*
X148637822Y-98453068D01*
X148478705Y-98559386D01*
X148343386Y-98694705D01*
X148237068Y-98853822D01*
X148163834Y-99030624D01*
X148129094Y-99205275D01*
X146496370Y-100838000D01*
X141578241Y-100838000D01*
X141430178Y-100739068D01*
X141253376Y-100665834D01*
X141065684Y-100628500D01*
X140874316Y-100628500D01*
X140686624Y-100665834D01*
X140509822Y-100739068D01*
X140350705Y-100845386D01*
X140215386Y-100980705D01*
X140208000Y-100991759D01*
X140208000Y-94017423D01*
X140211686Y-93980000D01*
X140208000Y-93942574D01*
X140196974Y-93830622D01*
X140153402Y-93686985D01*
X140107252Y-93600645D01*
X140082645Y-93554607D01*
X140011279Y-93467648D01*
X139987422Y-93438578D01*
X139958351Y-93414721D01*
X138995284Y-92451654D01*
X138971422Y-92422578D01*
X138855392Y-92327355D01*
X138723015Y-92256598D01*
X138579378Y-92213026D01*
X138467426Y-92202000D01*
X138467423Y-92202000D01*
X138430000Y-92198314D01*
X138392577Y-92202000D01*
X136943423Y-92202000D01*
X136906000Y-92198314D01*
X136868577Y-92202000D01*
X136868574Y-92202000D01*
X136756622Y-92213026D01*
X136612985Y-92256598D01*
X136551364Y-92289535D01*
X136480607Y-92327355D01*
X136397904Y-92395228D01*
X136364578Y-92422578D01*
X136340720Y-92451649D01*
X135631653Y-93160716D01*
X135602578Y-93184578D01*
X135578175Y-93214314D01*
X135507355Y-93300608D01*
X135484507Y-93343355D01*
X135436598Y-93432986D01*
X135393026Y-93576623D01*
X135382157Y-93686984D01*
X135378314Y-93726000D01*
X135382000Y-93763424D01*
X135382001Y-94641758D01*
X135283068Y-94789822D01*
X135209834Y-94966624D01*
X135172500Y-95154316D01*
X127596500Y-95154316D01*
X127596500Y-83096363D01*
X136974506Y-83096363D01*
X137003714Y-83380193D01*
X137087734Y-83652872D01*
X137216265Y-83893340D01*
X137301293Y-83911479D01*
X137273933Y-83933933D01*
X137202516Y-84020955D01*
X137149448Y-84120238D01*
X137116769Y-84227966D01*
X137105735Y-84340000D01*
X137105735Y-85840000D01*
X137116769Y-85952034D01*
X137149448Y-86059762D01*
X137202516Y-86159045D01*
X137273933Y-86246067D01*
X137360955Y-86317484D01*
X137460238Y-86370552D01*
X137567966Y-86403231D01*
X137680000Y-86414265D01*
X139180000Y-86414265D01*
X139292034Y-86403231D01*
X139399762Y-86370552D01*
X139499045Y-86317484D01*
X139586067Y-86246067D01*
X139657484Y-86159045D01*
X139710552Y-86059762D01*
X139743231Y-85952034D01*
X139754265Y-85840000D01*
X139754265Y-85704770D01*
X139758902Y-85715965D01*
X139903524Y-85932407D01*
X140087593Y-86116476D01*
X140304035Y-86261098D01*
X140544533Y-86360715D01*
X140799844Y-86411500D01*
X141060156Y-86411500D01*
X141315467Y-86360715D01*
X141555965Y-86261098D01*
X141772407Y-86116476D01*
X141956476Y-85932407D01*
X142101098Y-85715965D01*
X142200715Y-85475467D01*
X142251500Y-85220156D01*
X142251500Y-84959844D01*
X142200715Y-84704533D01*
X142101098Y-84464035D01*
X141956476Y-84247593D01*
X141798883Y-84090000D01*
X141956476Y-83932407D01*
X142101098Y-83715965D01*
X142200715Y-83475467D01*
X142251500Y-83220156D01*
X142251500Y-82959844D01*
X142200715Y-82704533D01*
X142101098Y-82464035D01*
X141956476Y-82247593D01*
X141772407Y-82063524D01*
X141555965Y-81918902D01*
X141315467Y-81819285D01*
X141060156Y-81768500D01*
X140799844Y-81768500D01*
X140544533Y-81819285D01*
X140304035Y-81918902D01*
X140087593Y-82063524D01*
X139903524Y-82247593D01*
X139758902Y-82464035D01*
X139750013Y-82485495D01*
X139643735Y-82286660D01*
X139379509Y-82230293D01*
X138519803Y-83090000D01*
X138533945Y-83104142D01*
X138444142Y-83193945D01*
X138430000Y-83179803D01*
X138415858Y-83193945D01*
X138326055Y-83104142D01*
X138340197Y-83090000D01*
X137480491Y-82230293D01*
X137216265Y-82286660D01*
X137082863Y-82538885D01*
X137001231Y-82812287D01*
X136974506Y-83096363D01*
X127596500Y-83096363D01*
X127596500Y-80175975D01*
X131588500Y-80175975D01*
X131588500Y-80584025D01*
X131668107Y-80984234D01*
X131824261Y-81361223D01*
X132050961Y-81700504D01*
X132339496Y-81989039D01*
X132678777Y-82215739D01*
X133055766Y-82371893D01*
X133455975Y-82451500D01*
X133864025Y-82451500D01*
X134264234Y-82371893D01*
X134641223Y-82215739D01*
X134753839Y-82140491D01*
X137570293Y-82140491D01*
X138430000Y-83000197D01*
X139289707Y-82140491D01*
X139233340Y-81876265D01*
X138981115Y-81742863D01*
X138707713Y-81661231D01*
X138423637Y-81634506D01*
X138139807Y-81663714D01*
X137867128Y-81747734D01*
X137626660Y-81876265D01*
X137570293Y-82140491D01*
X134753839Y-82140491D01*
X134980504Y-81989039D01*
X135269039Y-81700504D01*
X135495739Y-81361223D01*
X135586544Y-81142000D01*
X143773456Y-81142000D01*
X143864261Y-81361223D01*
X144090961Y-81700504D01*
X144379496Y-81989039D01*
X144718777Y-82215739D01*
X145095766Y-82371893D01*
X145495975Y-82451500D01*
X145904025Y-82451500D01*
X146304234Y-82371893D01*
X146681223Y-82215739D01*
X147020504Y-81989039D01*
X147309039Y-81700504D01*
X147535739Y-81361223D01*
X147691893Y-80984234D01*
X147771500Y-80584025D01*
X147771500Y-80175975D01*
X147691893Y-79775766D01*
X147535739Y-79398777D01*
X147309039Y-79059496D01*
X147020504Y-78770961D01*
X146681223Y-78544261D01*
X146304234Y-78388107D01*
X145904025Y-78308500D01*
X145495975Y-78308500D01*
X145095766Y-78388107D01*
X144718777Y-78544261D01*
X144379496Y-78770961D01*
X144090961Y-79059496D01*
X143864261Y-79398777D01*
X143773456Y-79618000D01*
X135586544Y-79618000D01*
X135495739Y-79398777D01*
X135269039Y-79059496D01*
X134980504Y-78770961D01*
X134641223Y-78544261D01*
X134264234Y-78388107D01*
X133864025Y-78308500D01*
X133455975Y-78308500D01*
X133055766Y-78388107D01*
X132678777Y-78544261D01*
X132339496Y-78770961D01*
X132050961Y-79059496D01*
X131824261Y-79398777D01*
X131668107Y-79775766D01*
X131588500Y-80175975D01*
X127596500Y-80175975D01*
X127596500Y-70446500D01*
X151803501Y-70446500D01*
X151803500Y-104158172D01*
X151803500Y-104158172D01*
G37*
X151803500Y-104158172D02*
X151676617Y-104090351D01*
X151408663Y-104009068D01*
X151199833Y-103988500D01*
X151060167Y-103988500D01*
X150851337Y-104009068D01*
X150583383Y-104090351D01*
X150336436Y-104222347D01*
X150119984Y-104399984D01*
X149942347Y-104616436D01*
X149810351Y-104863383D01*
X149729068Y-105131337D01*
X149701622Y-105410000D01*
X149729068Y-105688663D01*
X149810351Y-105956617D01*
X149942347Y-106203564D01*
X150119984Y-106420016D01*
X150336436Y-106597653D01*
X150490496Y-106680000D01*
X150336436Y-106762347D01*
X150119984Y-106939984D01*
X149942347Y-107156436D01*
X149810351Y-107403383D01*
X149729068Y-107671337D01*
X149720385Y-107759500D01*
X144780000Y-107759500D01*
X144742835Y-107763160D01*
X144707099Y-107774001D01*
X144674164Y-107791605D01*
X144645296Y-107815296D01*
X142161092Y-110299500D01*
X129679615Y-110299500D01*
X129670932Y-110211337D01*
X129589649Y-109943383D01*
X129457653Y-109696436D01*
X129280016Y-109479984D01*
X129063564Y-109302347D01*
X128909504Y-109220000D01*
X129063564Y-109137653D01*
X129280016Y-108960016D01*
X129457653Y-108743564D01*
X129589649Y-108496617D01*
X129670932Y-108228663D01*
X129698378Y-107950000D01*
X129670932Y-107671337D01*
X129589649Y-107403383D01*
X129457653Y-107156436D01*
X129280016Y-106939984D01*
X129147854Y-106831522D01*
X129232034Y-106823231D01*
X129339762Y-106790552D01*
X129439045Y-106737484D01*
X129526067Y-106666067D01*
X129597484Y-106579045D01*
X129650552Y-106479762D01*
X129683231Y-106372034D01*
X129694265Y-106260000D01*
X129694265Y-104560000D01*
X129683231Y-104447966D01*
X129650552Y-104340238D01*
X129597484Y-104240955D01*
X129526067Y-104153933D01*
X129439045Y-104082516D01*
X129339762Y-104029448D01*
X129232034Y-103996769D01*
X129120000Y-103985735D01*
X127596500Y-103985735D01*
X127596500Y-95154316D01*
X135172500Y-95154316D01*
X135172500Y-95345684D01*
X135209834Y-95533376D01*
X135283068Y-95710178D01*
X135389386Y-95869295D01*
X135524705Y-96004614D01*
X135683822Y-96110932D01*
X135860624Y-96184166D01*
X136048316Y-96221500D01*
X136239684Y-96221500D01*
X136427376Y-96184166D01*
X136604178Y-96110932D01*
X136763295Y-96004614D01*
X136898614Y-95869295D01*
X137004932Y-95710178D01*
X137078166Y-95533376D01*
X137086077Y-95493606D01*
X137160001Y-95604242D01*
X137160000Y-108099919D01*
X137158355Y-108101923D01*
X137132302Y-108150666D01*
X137087598Y-108234300D01*
X137044026Y-108377937D01*
X137034594Y-108473705D01*
X137033593Y-108483872D01*
X136934068Y-108632822D01*
X136860834Y-108809624D01*
X136823500Y-108997316D01*
X136823500Y-109188684D01*
X136860834Y-109376376D01*
X136934068Y-109553178D01*
X137040386Y-109712295D01*
X137175705Y-109847614D01*
X137334822Y-109953932D01*
X137511624Y-110027166D01*
X137699316Y-110064500D01*
X137890684Y-110064500D01*
X138078376Y-110027166D01*
X138255178Y-109953932D01*
X138414295Y-109847614D01*
X138549614Y-109712295D01*
X138655932Y-109553178D01*
X138729166Y-109376376D01*
X138766500Y-109188684D01*
X138766500Y-108997316D01*
X138729166Y-108809624D01*
X138655932Y-108632822D01*
X138650310Y-108624407D01*
X138672974Y-108549693D01*
X138684000Y-108437741D01*
X138684000Y-108437739D01*
X138687686Y-108400316D01*
X138684000Y-108362893D01*
X138684000Y-107675740D01*
X138695026Y-107787692D01*
X138738598Y-107931329D01*
X138767763Y-107985893D01*
X138809355Y-108063707D01*
X138840718Y-108101922D01*
X138904578Y-108179737D01*
X138933653Y-108203599D01*
X139441501Y-108711446D01*
X139400834Y-108809624D01*
X139363500Y-108997316D01*
X139363500Y-109188684D01*
X139400834Y-109376376D01*
X139474068Y-109553178D01*
X139580386Y-109712295D01*
X139715705Y-109847614D01*
X139874822Y-109953932D01*
X140051624Y-110027166D01*
X140239316Y-110064500D01*
X140430684Y-110064500D01*
X140618376Y-110027166D01*
X140795178Y-109953932D01*
X140954295Y-109847614D01*
X141089614Y-109712295D01*
X141195932Y-109553178D01*
X141269166Y-109376376D01*
X141306500Y-109188684D01*
X141306500Y-108997316D01*
X141269166Y-108809624D01*
X141195932Y-108632822D01*
X141096407Y-108483872D01*
X141095406Y-108473705D01*
X141085974Y-108377937D01*
X141042402Y-108234300D01*
X140997699Y-108150666D01*
X140971645Y-108101922D01*
X140900279Y-108014963D01*
X140876422Y-107985893D01*
X140847351Y-107962036D01*
X140208000Y-107322685D01*
X140208000Y-102208241D01*
X140215386Y-102219295D01*
X140350705Y-102354614D01*
X140509822Y-102460932D01*
X140686624Y-102534166D01*
X140874316Y-102571500D01*
X141065684Y-102571500D01*
X141253376Y-102534166D01*
X141430178Y-102460932D01*
X141578241Y-102362000D01*
X146774577Y-102362000D01*
X146812000Y-102365686D01*
X146849423Y-102362000D01*
X146849426Y-102362000D01*
X146961378Y-102350974D01*
X147105015Y-102307402D01*
X147237392Y-102236645D01*
X147353422Y-102141422D01*
X147377284Y-102112346D01*
X149206725Y-100282906D01*
X149381376Y-100248166D01*
X149558178Y-100174932D01*
X149717295Y-100068614D01*
X149852614Y-99933295D01*
X149958932Y-99774178D01*
X150032166Y-99597376D01*
X150069500Y-99409684D01*
X150069500Y-99218316D01*
X150032166Y-99030624D01*
X149958932Y-98853822D01*
X149852614Y-98694705D01*
X149717295Y-98559386D01*
X149558178Y-98453068D01*
X149381376Y-98379834D01*
X149193684Y-98342500D01*
X149002316Y-98342500D01*
X148814624Y-98379834D01*
X148637822Y-98453068D01*
X148478705Y-98559386D01*
X148343386Y-98694705D01*
X148237068Y-98853822D01*
X148163834Y-99030624D01*
X148129094Y-99205275D01*
X146496370Y-100838000D01*
X141578241Y-100838000D01*
X141430178Y-100739068D01*
X141253376Y-100665834D01*
X141065684Y-100628500D01*
X140874316Y-100628500D01*
X140686624Y-100665834D01*
X140509822Y-100739068D01*
X140350705Y-100845386D01*
X140215386Y-100980705D01*
X140208000Y-100991759D01*
X140208000Y-94017423D01*
X140211686Y-93980000D01*
X140208000Y-93942574D01*
X140196974Y-93830622D01*
X140153402Y-93686985D01*
X140107252Y-93600645D01*
X140082645Y-93554607D01*
X140011279Y-93467648D01*
X139987422Y-93438578D01*
X139958351Y-93414721D01*
X138995284Y-92451654D01*
X138971422Y-92422578D01*
X138855392Y-92327355D01*
X138723015Y-92256598D01*
X138579378Y-92213026D01*
X138467426Y-92202000D01*
X138467423Y-92202000D01*
X138430000Y-92198314D01*
X138392577Y-92202000D01*
X136943423Y-92202000D01*
X136906000Y-92198314D01*
X136868577Y-92202000D01*
X136868574Y-92202000D01*
X136756622Y-92213026D01*
X136612985Y-92256598D01*
X136551364Y-92289535D01*
X136480607Y-92327355D01*
X136397904Y-92395228D01*
X136364578Y-92422578D01*
X136340720Y-92451649D01*
X135631653Y-93160716D01*
X135602578Y-93184578D01*
X135578175Y-93214314D01*
X135507355Y-93300608D01*
X135484507Y-93343355D01*
X135436598Y-93432986D01*
X135393026Y-93576623D01*
X135382157Y-93686984D01*
X135378314Y-93726000D01*
X135382000Y-93763424D01*
X135382001Y-94641758D01*
X135283068Y-94789822D01*
X135209834Y-94966624D01*
X135172500Y-95154316D01*
X127596500Y-95154316D01*
X127596500Y-83096363D01*
X136974506Y-83096363D01*
X137003714Y-83380193D01*
X137087734Y-83652872D01*
X137216265Y-83893340D01*
X137301293Y-83911479D01*
X137273933Y-83933933D01*
X137202516Y-84020955D01*
X137149448Y-84120238D01*
X137116769Y-84227966D01*
X137105735Y-84340000D01*
X137105735Y-85840000D01*
X137116769Y-85952034D01*
X137149448Y-86059762D01*
X137202516Y-86159045D01*
X137273933Y-86246067D01*
X137360955Y-86317484D01*
X137460238Y-86370552D01*
X137567966Y-86403231D01*
X137680000Y-86414265D01*
X139180000Y-86414265D01*
X139292034Y-86403231D01*
X139399762Y-86370552D01*
X139499045Y-86317484D01*
X139586067Y-86246067D01*
X139657484Y-86159045D01*
X139710552Y-86059762D01*
X139743231Y-85952034D01*
X139754265Y-85840000D01*
X139754265Y-85704770D01*
X139758902Y-85715965D01*
X139903524Y-85932407D01*
X140087593Y-86116476D01*
X140304035Y-86261098D01*
X140544533Y-86360715D01*
X140799844Y-86411500D01*
X141060156Y-86411500D01*
X141315467Y-86360715D01*
X141555965Y-86261098D01*
X141772407Y-86116476D01*
X141956476Y-85932407D01*
X142101098Y-85715965D01*
X142200715Y-85475467D01*
X142251500Y-85220156D01*
X142251500Y-84959844D01*
X142200715Y-84704533D01*
X142101098Y-84464035D01*
X141956476Y-84247593D01*
X141798883Y-84090000D01*
X141956476Y-83932407D01*
X142101098Y-83715965D01*
X142200715Y-83475467D01*
X142251500Y-83220156D01*
X142251500Y-82959844D01*
X142200715Y-82704533D01*
X142101098Y-82464035D01*
X141956476Y-82247593D01*
X141772407Y-82063524D01*
X141555965Y-81918902D01*
X141315467Y-81819285D01*
X141060156Y-81768500D01*
X140799844Y-81768500D01*
X140544533Y-81819285D01*
X140304035Y-81918902D01*
X140087593Y-82063524D01*
X139903524Y-82247593D01*
X139758902Y-82464035D01*
X139750013Y-82485495D01*
X139643735Y-82286660D01*
X139379509Y-82230293D01*
X138519803Y-83090000D01*
X138533945Y-83104142D01*
X138444142Y-83193945D01*
X138430000Y-83179803D01*
X138415858Y-83193945D01*
X138326055Y-83104142D01*
X138340197Y-83090000D01*
X137480491Y-82230293D01*
X137216265Y-82286660D01*
X137082863Y-82538885D01*
X137001231Y-82812287D01*
X136974506Y-83096363D01*
X127596500Y-83096363D01*
X127596500Y-80175975D01*
X131588500Y-80175975D01*
X131588500Y-80584025D01*
X131668107Y-80984234D01*
X131824261Y-81361223D01*
X132050961Y-81700504D01*
X132339496Y-81989039D01*
X132678777Y-82215739D01*
X133055766Y-82371893D01*
X133455975Y-82451500D01*
X133864025Y-82451500D01*
X134264234Y-82371893D01*
X134641223Y-82215739D01*
X134753839Y-82140491D01*
X137570293Y-82140491D01*
X138430000Y-83000197D01*
X139289707Y-82140491D01*
X139233340Y-81876265D01*
X138981115Y-81742863D01*
X138707713Y-81661231D01*
X138423637Y-81634506D01*
X138139807Y-81663714D01*
X137867128Y-81747734D01*
X137626660Y-81876265D01*
X137570293Y-82140491D01*
X134753839Y-82140491D01*
X134980504Y-81989039D01*
X135269039Y-81700504D01*
X135495739Y-81361223D01*
X135586544Y-81142000D01*
X143773456Y-81142000D01*
X143864261Y-81361223D01*
X144090961Y-81700504D01*
X144379496Y-81989039D01*
X144718777Y-82215739D01*
X145095766Y-82371893D01*
X145495975Y-82451500D01*
X145904025Y-82451500D01*
X146304234Y-82371893D01*
X146681223Y-82215739D01*
X147020504Y-81989039D01*
X147309039Y-81700504D01*
X147535739Y-81361223D01*
X147691893Y-80984234D01*
X147771500Y-80584025D01*
X147771500Y-80175975D01*
X147691893Y-79775766D01*
X147535739Y-79398777D01*
X147309039Y-79059496D01*
X147020504Y-78770961D01*
X146681223Y-78544261D01*
X146304234Y-78388107D01*
X145904025Y-78308500D01*
X145495975Y-78308500D01*
X145095766Y-78388107D01*
X144718777Y-78544261D01*
X144379496Y-78770961D01*
X144090961Y-79059496D01*
X143864261Y-79398777D01*
X143773456Y-79618000D01*
X135586544Y-79618000D01*
X135495739Y-79398777D01*
X135269039Y-79059496D01*
X134980504Y-78770961D01*
X134641223Y-78544261D01*
X134264234Y-78388107D01*
X133864025Y-78308500D01*
X133455975Y-78308500D01*
X133055766Y-78388107D01*
X132678777Y-78544261D01*
X132339496Y-78770961D01*
X132050961Y-79059496D01*
X131824261Y-79398777D01*
X131668107Y-79775766D01*
X131588500Y-80175975D01*
X127596500Y-80175975D01*
X127596500Y-70446500D01*
X151803501Y-70446500D01*
X151803500Y-104158172D01*
M02*
